<?xml version="1.0" encoding="utf-8"?>
<!-- Generator: Adobe Illustrator 23.0.1, SVG Export Plug-In . SVG Version: 6.00 Build 0)  -->
<svg version="1.1" id="Layer_1" xmlns="http://www.w3.org/2000/svg" xmlns:xlink="http://www.w3.org/1999/xlink" x="0px" y="0px"
	 viewBox="0 0 1569.1 834.6" style="enable-background:new 0 0 1569.1 834.6;" xml:space="preserve">
<style type="text/css">
	.st0{fill:#FFFFFF;}
</style>
<title>cog-01</title>
<path class="st0" d="M145,0.1c1.9,7.4,3.4,14.8,5.7,22.1c16.1,52.7,42.5,99.5,80.4,139.7c33.9,36.1,72,66.3,118,85.5
	c18,7.4,36.7,13.1,55.7,17c13.2,2.8,29.2-5.9,30-25.3c0-0.8,0-1.7,0-2.5l0.3-196.4c0-8.6-0.1-8.8-9-8.9c-21.2-0.2-42.3-0.3-63.5-0.3
	c-9.6,0-9.6,0-9.6-9.8c0-7-0.1-14-0.2-21h16c0.2,8.4,0.5,16.8,0.7,25.1c18.4,2,73.6,0.8,77.6-2c-2.8-0.2-5-0.5-7.3-0.5
	c-20.1-0.3-40.2-0.6-60.3-0.6c-4.4,0-5.9-1.7-5.7-5.9c0.3-5.3,0.1-10.6,0.1-16h8v16.9l2,0.1c2.1-5.5,0.9-11.3,1-16.9h4
	c0.1,4.4,0,8.9,0.3,13.3c0.1,1.3,1.3,2.6,2,3.9c1-1.2,2.7-2.3,2.8-3.5c0.3-4.6,0-9.1-0.1-13.7h4c0,4.3,0,8.6-0.2,12.9
	c-0.1,3.3,1.2,4.9,4.7,4.9c25.7,0.3,51.4,0.6,77.2,1c3.9,0.1,5.4-1.7,5.4-5.4c-0.1-4.5,0-9,0-13.4h5c-0.2,4.8-0.3,9.6-0.5,14.4
	c-0.1,3.2,1.3,4.4,4.5,4.4c24.7,0.1,49.3,0.2,74,0.3c3.4,0,5-1.4,5-4.7c0-4.8,0-9.6,0-14.5h4c0,5,0,10,0,14.9c0,3.6,1.9,4.3,5.2,4.2
	c3.2-0.1,5.7,0,5.7-4.2c0-5,0.1-9.9,0.2-14.9h4c-0.2,5.1-0.3,10.3-0.5,15.4c-0.3,6.8-0.9,7.4-7.6,7.4h-69v11.6
	c0,22.1-7.1,41.5-22.9,57.3c-5.4,5.4-6.7,5.4-12.6,0.8c-1.4-1.1-2.9-2.2-4.4-3.3c-15.2-11.4-24.7-26.3-27.1-45.4c-0.4-3-1-6-1.5-8.9
	c-0.9,0.9-1.5,2.1-1.4,3.4c-0.2,13.6-0.6,27.3-0.7,41c-0.1,51.3-0.4,102.6,0,154c0.1,15.8-7.6,25.5-20.4,32.7
	c-1.5,0.8-2.9,1.6-4.4,2.4c44.8,9.1,89.2,9,134.9,0.2c-5.5-3-10.1-4.9-13.9-7.7c-10.8-8.1-14.4-19.6-14.4-32.5
	c0.1-23.5,0.3-47,0.5-70.5c0.2-41.1,0.4-82.3,0.5-123.4c0-6.7,0.5-7.2,7-7.2c18.2,0,36.3-0.1,54.5,0.1c4.6,0,6.8-1.4,6.7-6.3
	c-0.2-7-0.1-14-0.2-21h4c0.7,4.2-2,9.3,4.9,13.3c0.4-5.1,0.8-9.2,1.1-13.3h6c1.1,2.7,1.5,6.9,3.4,7.9c5.8,3,9.4,1.1,12.2-4.7
	c0.5-1,0.9-2.1,1.3-3.2h13l-10.9,11.7l1,1L644,0.1h7l-10.4,9c8.6-2.9,16.2-5.5,23.8-8.1c0.6-0.3,1.1-0.6,1.6-1h36
	c0.4,0.5,0.7,1.2,1.3,1.4c10.2,4,21.4,5.2,32.2,3.5L711,0.1h41c0.3,0.8,0.7,1.7,1.2,2.4c2.8,4,5.8,7.9,8.5,11.9
	c3.7,5.3,0.7,9.6-2.4,13.9c-0.1,0.1,0,0.3,0.2,1c1.7,0,3.6-0.5,5.2,0.1s4,2.1,4,3.4c0.8,10,1.1,20.1,1.6,30.3L762,64
	c5.7,9.6,5.7,9.6,4.3,12.2c-0.8-1.7-1.8-3.2-2.9-4.7c-1.8-2.1-3.7-4.3-6-5.6c-2.8-1.5-4.7-0.6-4.5,3.2c0.3,5.8,3.1,9.2,8.9,10.4
	c1.6,0.3,3.2,0.5,5.3,0.8c-4,8.9-7.9,17.6-12.4,27.5l-4.1-8.1l0.6-0.3l3.2,2.8l7.6-18.1l-19.4-10.9c-3,8.2-1.8,14.7,4.1,20.2
	l-6.4-2.9c-0.1,1.5-0.5,2.6-0.2,3c1.9,2.5,4.1,4.8,7,8.1l-7.2-2.6c-2.1,3.8,0.7,5.2,2.7,6.8c9.8,8.1,9.8,8.1,1.9,18.3
	c-2.7,3.5-5.1,7.3-7.7,11l1.4,1c3.6-4.1,7.4-8.1,10.7-12.5c3-4,5.6-5.2,9.6-1.1c1.7,1.7,4.8,4.1,7.4,1c2.2-2.6,3.7-5.8,6.2-9.6
	l-9,1.2c5.2-5.5,14.9-4.5,15.8-14.5L759,111.1c1.9-6.5,5.1-12.1,7.1-18.2c3.1-9.1,8.2-14.9,18.7-14.2c1.2,0,2.3-0.2,3.4-0.6
	c5-1.3,7.4-4.5,7.8-10.2l-20.6,7.2c0.6-1.5,1.7-2.6,3.2-3.2c5.3-2.7,10.7-5.3,16.1-7.9c4-1.9,6.6-4.8,7.1-10.1
	c-11,0.8-19.5,5.7-27.2,13.2c-0.3-11.4-0.6-23-1.1-34.6c0-2.1-0.5-4.2-1.3-6.2c-3.6-7.2-7.5-14.3-11-21.6c-0.6-1.2-0.1-3-0.1-4.6h4
	c-0.2,1.4-1,3.1-0.5,4.2c2.6,6,5.5,11.9,8.3,17.9h1.3L782,0.1h9c-4.4,6.7-6.7,14.2-8.2,23.2c4.6-3.3,8.4-5.6,11.7-8.5
	c4.4-3.9,7.9-8.5,8.5-14.7h2c0.5,6.6-2.2,11.6-7.5,15.3c-3.8,2.7-7.6,5.3-11.4,8c-2.7,1.9-5.4,3.9-8.8,6.3c11.7,1.5,20.6-1,26.2-11
	c1.1-1.7,2.3-3.3,3.8-4.6c3.8-3.9,5.8-8.5,4.7-14h2c1.5,6.9-2.4,12-5.7,17.4c-6.2,10.4-13.5,18.1-27.2,15.6
	c-1.4-0.3-4.6,1.7-4.6,2.6c0.1,6.1,0.8,12.3,1.4,18.2c7.3-2,13.2-4.8,19.1-5c6.5-0.2,9.4-3,10.9-8.5c3.7-13.4,7.4-26.9,11.1-40.3h14
	c-7.5,32.6-20.2,63.1-36,92.7c-17.8,33.4-41.5,62.3-67.7,89.2c-25,25.6-54.6,45.2-86.9,60.5c-79,37.4-160.9,45.7-245.8,24.8
	c-67.8-16.6-123.7-53.1-170.2-104.5c-31.9-35.1-56.6-76.1-72.4-120.8C149.2,28.1,145.3,14,141,0.1H145z M602.4,43.9
	c-3.4-3.8-6.3-7.2-9.5-10.3c-1.4-1.4-3.3-2.2-5.2-2.4c-17.5-0.3-35-0.4-52.5-0.6c-3.4,0-4.8,1.6-4.8,4.9c0,5.2-0.5,10.3-0.5,15.5
	c0,60.7,0,121.3,0,182c0,20,19.3,36.2,38.6,31.3c17.2-4.3,34.2-9.6,50.8-15.9c29-11.1,54.4-28.7,78.1-48.5c4.9-4.1,9.6-8.6,14.3-13
	c-4.2,0.5-8.4,1.5-12.4,3c-6.9,2.7-14.5,2.6-21.4-0.2c-6-2.3-12.3-3.8-17.5-5.4c1,9.9,2,19.6,3.1,30.4c-3.1-1-4.9-1.5-6.5-2.1
	c-7.6-2.8-15.2-5.8-22.9-8.5c-3.9-1.3-6-3.3-6.7-7.6c-1-7-4.5-12.4-12-14.3c-0.6,0.8-1.1,1.4-1.5,2.1c-7.9,11.3-10.3,12.1-23.3,7.7
	c-5.9-2.1-12.3-1.8-18,0.7c-1.4,0.6-2.9,1.1-5.3,2.1c2.7-10.8,6.9-19,16.3-23.8c2.3-1.2,4.4-2.9,6-4.9c2-2.4,1.6-4.5-2-5.4
	c-4.5-1.1-9-2.4-13.4-3.9c-4.9-1.7-6.2-4.2-5.2-9.2c0.5-2.6,1.2-5.3,1.8-7.6c-6.3,2.4-12.2,6-18.3,6.5c-6.1,0.5-12.5-1.9-19.7-3.1
	c5.9-5.8,11-10.8,16-15.9c3.3-3.7,8.2-5.4,13.1-4.7c1.5,0.2,3.8,0.2,4.7-0.7c3.9-3.8,8.1-6.2,14.1-3.6c-0.3-6.2-0.4-11.5-1.1-16.8
	c-0.2-1.4-2.3-3.1-3.8-3.5c-5.2-1.3-10.4-2.3-15.7-2.8c-4.5-0.4-9.2,0.3-13.7-0.1c-4.9-0.4-9.8-1.5-15.8-2.5c6-6.6,8.3-15.9,16.5-16
	c11.4-0.1,23.8-8.2,34.1,3.7c1.3-2.1,2.6-4.4,3.7-6.6c1.4-3.3,0.2-4.8-3.4-6c-4.6-1.5-8.8-4.2-13.1-6.5c-6.1-3.2-2.7-8.8-3.3-13.4
	c-0.1-1.2-0.1-2.3,0-3.5c0.2-7.4,1.3-8.2,8.3-6.7c1.9,0.5,3.9,1,5.9,1.3c3.7,0.4,5.6,2.5,6.5,5.9c1.3,4.4,2.7,8.8,4.3,14L602.4,43.9
	z M724.4,136.9c-12.8-6-24.8-11-33.9-20.7c-17.3-18.5-34.6-37-51.9-55.5c-1.8-1.9-3.7-3.6-6.3-6c-2.9,13.6-3.9,26.8-8.6,38.6
	s-13,22.3-19.8,33.6c1.1,0.3,1.9,0.6,2.7,0.7c32.3,5.9,64.5,12.2,97.6,10.8c11.5-0.5,15,7.2,11.3,16.6c-1.2,3.1-3.1,5.9-5.4,8.2
	c-1.4,1.4-4.2,1.5-6.3,2.2c0.3-2.3,0.5-4.7,0.9-7c0.1-0.6,0.8-1,1.2-1.5c1.6-2.3,3.1-4.5,4.7-6.8l-1.4-2c-2.4,0.7-6,0.6-7.1,2.2
	c-6.4,9.2-7.8,18.6,2.1,27.2c-9.3-4.7-11.8-16.5-6.1-26c5.3-8.8,9.9-9.1,16-1c-0.8-3.2-1.6-7-3.9-8.6c-1.7-1.1-5.8,0-8.1,1.4
	c-11.3,6.5-15.7,27-7.7,37.2c1.9,2.4,6,3.8,9.3,4.3c2,0.3,4.7-1.3,6.7-2.7c12.3-8.5,20.3-21.8,22.2-36.5c2.5-18.4,2.8-37.1,4.5-55.7
	c0.8-10.4,2.3-20.8,4.4-31c2.6-11.9,8.2-22.8,15.2-32.9c3.7-5.3,1.6-10.2-0.8-15c-2.1-4.1-6-3.4-9.6-3.1
	c-21.3,1.7-42.7,0.2-63.5-4.5c-18.1-4.1-37.7,5.7-43.8,21.6c-1.2,3-1.3,5.6,1.1,8.2c20.4,22.2,40.6,44.6,61.2,66.6
	C711.4,110.4,719.7,121.7,724.4,136.9L724.4,136.9z M690.7,183.6c-3.8-15.2-3.8-28.7,7.1-40.6c-2.7-0.4-4.3-0.7-5.9-0.9
	c-28.7-3.8-57.4-7.4-86-11.4c-12.1-1.7-14.6-0.7-18.8,10.8c-0.6,1.7-0.9,3.5-1.5,5.3c-1.4,4.5,0.4,6.7,4.8,8
	c17.6,4.8,35.2,9.8,52.8,14.8C658.7,174.1,674.1,178.7,690.7,183.6z M596.8,63.8c3.2-4.6,6-8.7,8.9-12.7c2.9-4,5.5-4,9.7-1.1
	c2,1.4,4.7,1.9,7.5,2.9c-0.1-8.8-18-35.8-23.9-36.5c0,1.8,0.1,3.6,0,5.4c-0.2,2.6,0.4,5.7-0.8,7.8c-2.6,4.5-0.2,5.8,3.3,7.1
	c2.5,0.9,4.9,2,7.8,3.3c-6.4,8.7-12.2,16.5-18.5,25.1c-1.2-2.3-2.1-3.9-2.8-5.5c-1.9-4.4-3.5-9-5.5-13.4c-1.5-3.4-1.9-3.4-6.3-2.4
	l10,16.4l-1.2,0.8c-1.9-2.4-4-4.7-5.8-7.1c-1.8-2.4-3.5-5-5.6-7.8c-2.5,11.4-0.4,15.5,9.4,19.2c1.1,0.4,2.5,0.5,3.2,1.3
	c1.2,1.3,2.9,3.3,2.6,4.6c-1.2,5.4-3.1,10.6-5.1,17c-7.3-7.7-14-14.4-24.6-7.6l7.2,3.1c-2.3,0.5-4.7,0.4-6.9-0.3
	c-9-2.8-14.5,0.2-17.5,10.2c8.1-2.7,15.6-1,23.1,1.3c4.4,1.3,9.2,1,13.8,1.3c1.7,0.1,3.5,0.2,4,0.2c1.1,8.4,2.1,15.9,3.2,23.4
	c0.5,3.1,0,5.2-3.6,5.8c-3.8,0.7-7.5,2.4-11.2,2.2c-11.6-0.8-18,7-25.4,14.2c6.6,2.7,12.3,1.9,18-1.3c7.9-4.5,15.9-9.1,24-13.3
	c3.3-1.7,4.7-3.9,4.2-7.5c-0.6-4.8-1.2-9.6-1.6-14.4c-0.9-9.8-1-19.6,2.4-29.1c1.2-3.4,2.8-4.4,6.3-3.5c4.6,1.4,9.4,2.3,14.2,2.9
	c4.1,0.4,8.3-0.4,12.4-0.7c-1.8-4.5-2.8-9.6-5.6-13.4c-4.6-6.2-12.3-6-18.4-0.2l16.2,4.9c-0.2,0.6-0.3,1.2-0.5,1.8L596.8,63.8z
	 M483,91.8l1.8,0.3c1.7-4.2,3.8-8.2,5.1-12.6C494.2,65,494.5,50,495,35c0.4-12.1,0.5-12-11.6-12.7c-3.7-0.2-5.3,1.1-5.2,4.8
	c0.3,13.6,0.2,27.3,1,40.9C479.7,76,481.7,83.8,483,91.8z M699.9,113.5c-0.6-0.7-1-1.4-1.6-2c-25-27.5-50-55-74.9-82.5
	c-0.6-0.8-1.4-1.5-2.3-1.9c-1-0.2-2.1-0.3-3.1-0.3c0,1-0.3,2.3,0.1,3.1c0.8,1.3,1.8,2.4,2.9,3.5c11.5,12.7,22.9,25.5,34.5,38.2
	c12.4,13.7,24.9,27.3,37.5,40.8C694.8,114.5,696.8,117.1,699.9,113.5z M661,178.5v-1.4l-55.5-16l-0.5,1.2l4,2.5
	c9.7,6,20,10.7,28.3,19.1c4.5,4.5,11.8,6.4,17.9,9.2c1,0.4,2.4-0.1,4.9-0.2c-2.9-4.5-5.2-8.2-7.8-12.1L661,178.5z M752.9,121.3
	c-6.3,9.7-12.6,18.6-18,28c-3.7,6.6-6.1,13.9-9.2,20.9c-0.8,1.8-1.7,3.4-2.6,5.2l1.1,0.6l38.4-46.5L752.9,121.3z M623,21.4l-1,2
	c9.9,10.7,19.9,21.4,29.8,32.2c15.9,17.3,31.7,34.7,47.6,51.9c1.4,1.5,3.4,2.3,5.1,3.4l1.1-1.3c-0.6-1-1.4-2-2.1-3
	c-11.8-12.7-23.6-25.3-35.3-38.1c-13.6-14.9-27.1-29.9-40.7-44.7C626.3,22.7,624.5,22.2,623,21.4z M475.1,75.4c0-10.2,0-20,0-29.8
	c0-6.3-0.2-12.6-0.3-19c0-2.9-1.5-4.6-4.4-3.9c-1.5,0.4-4,1.8-4,2.9C465.6,42.6,468.6,59.6,475.1,75.4z M583.1,184.5
	c0.1,0.4,0.2,0.9,0.3,1.3c6.4,1.2,12.7,2.6,19.1,3.4c2,0.2,5.1-0.7,6-2.2c2.6-4.1,4.3-8.7,6.9-14.3
	C601.9,172.8,592.2,177.8,583.1,184.5L583.1,184.5z M459.7,21.7c-7.2,9.2,1.5,47.1,10.5,54.5c-1.3-7.3-2.9-15-4.1-22.7
	c-1.2-7.9-1.9-15.9-3.2-23.7C462.5,27.4,461.1,25.1,459.7,21.7z M493.8,76.8c6.3-10.8,12.5-39.4,11.1-51.1c-0.1-1.2-1.7-3.1-2.8-3.2
	c-3.6-0.5-3.7,2.3-3.9,4.9c-0.7,10.6-1.3,21.2-2.1,31.8C495.5,64.8,494.6,70.3,493.8,76.8L493.8,76.8z M595,123.2l2.5,0.6
	c4-5.8,8-11.6,11.9-17.4c0.3-0.7,0.2-1.5-0.1-2.2c-1.4-3.3-12.9-5.5-15.2-2.9c-0.7,0.7-1.1,1.6-1.1,2.6
	C593.5,110.3,594.3,116.8,595,123.2z M509,23.5c-1,9.2-1.2,18.5-3.1,27.6c-1.9,9.2-5.3,18.2-8.4,28.3C509.1,68,516.8,33.1,509,23.5
	L509,23.5z M768.3,59.8c-0.4-6.5-0.9-12.6-1.2-18.7c-0.5-8.3-1.8-9.3-10-7.2C759.1,53.6,758,57.8,768.3,59.8L768.3,59.8z
	 M591.4,94.1c15.7,6.6,28.9,2.7,31.6-9.3C611.3,83.9,602.6,90.9,591.4,94.1z M769.4,95.6c14,1.6,15.7,0.5,19.7-13.2
	C771,82.3,772.1,82.3,769.4,95.6L769.4,95.6z M661,210.1c-0.7-11-6.6-16.3-17.8-16.6C646.6,201.6,650.7,208.7,661,210.1z
	 M739.9,124.1c9.1-9.5,9.1-12.3,0-16V124.1z M646.3,204.8l-11.2-18.1C634.5,197.7,638,203.2,646.3,204.8z M754.1,37.1
	c-4.4,5.4-4.4,11.1-0.4,16.3C755.1,48.1,758.6,43.1,754.1,37.1z M588,177.5l20.2-8.4l-0.2-1.5c-2.9,0-6.3-1-8.5,0.2
	C595.5,170.1,592.3,173.7,588,177.5z M606.5,18.8c3.9,0,7.3,0.2,10.7-0.1c1-0.1,1.9-1.4,2.8-2.1c-0.8-0.9-1.5-2.2-2.5-2.7
	C614.2,12.2,610,14,606.5,18.8z M748.4,51.7l-1.1-0.1c-0.9,2.3-2.1,4.6-2.5,7.1c-0.1,1,1.7,2.3,2.6,3.4c0.8-1.1,2.3-2.3,2.3-3.4
	C749.7,56.4,748.9,54.1,748.4,51.7z M714.7,122.5c-2.1-3.5-3-8-8.7-10.3C707,118.5,710.1,121.2,714.7,122.5z M710.5,125.8
	c-3.7-7.8-5.5-8.8-9.5-6L710.5,125.8z"/>
<path class="st0" d="M5,0.1c-0.7,6,0.5,9.1,5.9,10.4c6.4,1.5,13,2.2,19.6,2.3C38.6,13,42.8,16.7,42,24.9c-0.1,1.4-2.1,3-3.6,3.9
	c-6.6,4.1-13.4,7.8-20,12c-3.4,2.2-5.1,6-3.4,9.5c1.4,2.8,3.8,5.1,6.7,6.4c7.1,2.7,14.6,2.6,22.1,0.6c5.9-1.6,6.7-1,8.7,4.8
	c2.5,7.5,2.5,7.5-4.1,12.2c-4.9,3.5-9.8,6.9-14.6,10.5c-3.9,3-5.8,6.9-3.8,11.8c1.4,3.7,4.2,5.5,8.2,4.9c7.1-1.1,14.2-2.1,21.2-3.4
	c3.8-0.7,6.4-0.4,7.7,3.9c1,2.7,2.2,5.2,3.8,7.6c1.7,3,0.9,4.9-2.1,6.4c-7.3,3.6-13.6,8.6-17.8,15.6c-1.5,2.6-2.5,6.8-1.4,9.1
	s5.3,4.4,8,4.2c6.6-0.4,13.1-1.5,19.5-3.3c8.1-2.3,8.1-2.7,12,4.6c0.9,1.7,1.7,3.5,2.6,5.3c-4.3,3.5-8.7,6.6-12.5,10.3
	c-3.1,3.1-6.3,6.7-8,10.7c-1.1,2.7-0.5,6.7,0.6,9.6c1.2,3.3,4.7,3.3,7.8,2.2c7-2.5,14.1-4.8,20.9-7.7c3.2-1.4,5.2-1.4,7.2,1.6
	c2.6,4,5.4,7.9,7.7,11.2c-6.3,7.8-12.6,15.1-18.2,22.9c-1.4,1.9-1.6,6.3-0.3,8c1.6,2.2,5.9,4.5,8.1,3.8c7.6-2.2,15-5.2,22-8.8
	c3.8-2,5.8-2,8.3,1.3c7.8,10.2,8.5,8.2,1.2,19c-3.1,4.5-5.8,9.3-8,14.3c-1,2.4-1.4,6.7,0,8.1c1.8,1.8,6.1,3,8.5,2.2
	c6.7-2.4,13.1-5.5,19.1-9.3c6.1-3.9,5.8-4.4,11.2,0.2c2,1.7,3.9,3.5,5,4.5c-4.5,7.8-8.7,15-12.9,22.3c-0.8,1.1-1.1,2.4-1.1,3.8
	c0.5,3,0.5,6.8,2.4,8.5c2.6,1.9,5.9,2.5,9,1.7c9.4-2.8,17.7-7.6,23.5-16.8c4.3,3.4,8.4,6.6,12.3,9.7c2.6,2.1,1.3,4.1,0.2,6.6
	c-3,6.6-5.7,13.4-8.1,20.2c-1.4,3.4-0.3,7.3,2.6,9.5c3.1,2.5,6.5,2,9.3-0.1c6.1-4.3,11.9-9,17.4-14c3.6-3.3,6.3-4.4,10.2-0.9
	c2.5,2,5.1,3.9,7.8,5.6c-5,8.6-8.5,17.4-8.5,27c0,2.7,1.4,6.5,3.5,7.9c1.8,1.2,6.1,0.7,8.1-0.8c5.9-4.6,11.4-9.6,16.6-15
	c3.2-3.3,6.1-3.9,10.2-2.1c11.6,5.1,11.3,4.9,8.2,16.7c-1.5,5.9-2.2,12.1-2,18.2c0.2,7.4,7.5,10.5,13.8,6.1
	c6.6-4.7,11.6-11.2,14.5-18.7c1.7-4.4,3.8-5.3,7.8-3.1c3,1.7,6.3,2.9,9,4.1c-1.2,7.5-2.6,14.7-3.5,21.8c-0.3,2.4,0.4,5,0.4,7.4
	c0,4.2,2.2,6.2,6.1,7.2s7,0,9-3.4c3.3-5.4,6.4-10.9,9.4-16.4c4.4-8,4.3-8,13.1-5.3c1.1,0.3,2.2,0.8,2.5,0.9V392c0,3.6,0.4,8,4.3,8.6
	c3.3,0.5,8.4-0.4,10.2-2.7c4.3-5.6,7.8-11.8,10.4-18.4c2.7-6.9,2.2-7.2,9.3-5.7c1.5,0.3,2.9,0.8,4.4,1c3.9,0.7,5.3,2.8,4.4,6.8
	c-1.8,7.9-0.6,15.5,2,23c1.1,3.3,2.6,6.3,6.3,5.8c3-0.4,7.2-1.5,8.4-3.7c3.5-6.5,6.3-13.4,8.4-20.6c1.7-6,1.6-6.8,7.7-6.2
	c16.2,1.6,12.8,0,13.7,14.6c0.4,5.8,1.9,11.4,4.3,16.6c2.7,6,8,6.3,12.4,1.3c2.2-2.5,3.8-5.4,4.9-8.5c1.3-4.3,2.2-8.7,2.9-13.1
	c1.3-7,7-10.6,13.9-8c1.4,0.5,2.5,3.2,2.9,5c1.7,7.2,2.8,14.6,4.7,21.8c1,3.8,3.4,6.9,8.1,6.8c5,0,9.2-2.2,10.7-6.8
	c2.1-6.8,3.6-13.7,4.3-20.8c0.7-6.2,5.4-10.2,11.1-7.8c1.3,0.6,2.3,2.6,2.9,4.2c3,7.4,5.7,14.8,8.7,22.2c1.4,3.5,4.1,4.5,7.7,3.7
	c4-0.9,9-0.4,9.8-5.9c1.1-7.4,1.9-14.8,2.5-22.3c0.4-6,8.7-11.6,14-8.8c1.5,0.8,2,3.2,3,4.9c3.7,6.8,7.2,13.8,11.2,20.4
	c2.1,3.4,5.7,4.5,9.7,3.2c4-1.2,5.1-4.5,5.3-8.2c0.3-7.8,0.3-15.6,0.8-23.4c0.1-1.7,2-3.2,3.2-4.8c0.2-0.2,0.6-0.2,0.9-0.3
	c9.1-2.9,8.9-2.8,12.6,6c1.7,4.1,4.3,7.9,6.6,11.7c3.2,5.4,8.1,6.3,13.8,5.3c3.6-0.6,6.1-2.5,6-6.2c-0.2-7.6-0.6-15.1-1.4-22.7
	c-0.3-2.7-2.5-5.5,1.1-7.4c3.8-2.1,7.8-4.5,12-1c2,2,3.8,4.1,5.4,6.5c3.1,4.1,6.1,8.3,9.1,12.5c2,2.8,4.6,4.5,8.1,3.1
	c3.9-1.4,7.9-3.4,7.5-8.2c-0.5-6.9-1.6-13.8-3.4-20.5c-2.3-8.2,0.7-14,9.4-14.9c1.6-0.2,3.7,2.1,5.2,3.6c5.2,5.3,10,11,15.3,16.1
	c3.2,3,7.3,3.1,11.1,0.9s3.6-6.1,3-9.3c-1.6-6.6-3.5-13-5.8-19.4c-0.7-2-2.1-3.7-3.1-5.6c0.7-0.6,1.2-1.1,1.7-1.5
	c11.9-8.5,11.8-8.4,22.5,1.4c3.8,3.5,8,6.5,12.6,8.9c2.4,1.2,6.8,1.5,8.6,0c2.3-1.8,4.3-6.2,3.7-8.8c-1.7-7.1-4.2-13.9-7.4-20.5
	c-2.1-4.2-2.1-7,1.7-9.7c2.1-1.7,4.1-3.4,6-5.3c8,5.4,15.5,10.6,23.2,15.5c3.7,2.4,7.6,2.6,11-0.6c3.4-3.2,2.7-7.3,1-11
	c-2-4.2-4.2-8.3-6.4-12.4c-5.7-10.6-5.5-12.3,2.8-21.3c6.3,4.5,12.4,9.3,19,13.4c7.3,4.5,11.6,4.1,16.5-1.2c1.3-1.4,2.1-4.5,1.4-6
	c-2.9-6.7-6.2-13.2-9.9-19.5c-4.4-7.3-4.8-7.1,0.8-13.6c0.5-0.5,0.9-1.1,1.5-1.6c8.6,3.7,16.5,7.2,24.6,10.6
	c1.4,0.5,2.9,0.7,4.4,0.7c6.4,0.4,9.9-4.1,7.9-10.3c-2.3-7.7-6.9-14.5-13.1-19.7c-4.6-3.8-4.8-5.5-1.3-10.4c1.6-2.1,3.3-4.1,4.2-5.1
	c9.2,3.1,17.6,6,26,8.8c4.1,1.4,7.4,0.3,9.9-3.5c2.6-4.1,3-8.1-0.2-12c-4.9-5.7-9.9-11.2-14.9-16.8c-3.4-3.9-1.8-12.9,2.9-15.2
	c1.2-0.6,3.1,0.1,4.6,0.5c7.2,1.9,14.4,4,21.6,5.6c3.7,1,7.6-0.8,9.4-4.2c2-3.1,1.6-7.1-1-9.7c-4.8-5.2-9.7-10.4-15.2-14.8
	c-5.5-4.3-6.1-4.8-3.3-10.9c0.7-1.5,1.5-3,2.2-4.5c1.6-3.4,3.8-4.1,7.3-2.6c7.6,3.5,16.2,4.5,24.4,2.9c7-1.3,10.5-10.1,5.5-15
	c-5.9-5.5-12.3-10.5-19.1-15c-3.2-2.2-4.4-4.3-3.2-7.8c0.3-0.9,0.7-1.9,1-2.8c2.5-7.2,3-7.5,10.4-6.1c7.7,1.6,15.7,1.2,23.1-1.3
	c6.7-2.2,8.3-8.1,3.6-13.2c-5.4-6-12.4-10.2-20.2-12.2c-4.5-1.2-6-3.6-4.9-8c0-0.2,0-0.3,0.1-0.5c2.4-10.6,0.9-9.6,11.7-9.2
	c5.9,0.2,11.9-0.8,17.8-1.6c4-0.3,7.3-3.2,8.2-7.1c1-4.3-0.5-7.8-4.1-10.5c-0.6-0.5-1.2-1.1-1.7-1.8h5c7,6.8,7.9,14,1.8,19.1
	c-2.5,2.1-6.2,3.1-9.5,3.7c-5.5,1.1-11.2,1.4-16.8,2.2c-1.8,0.2-4,0.3-5.2,1.3c-1.6,1.4-2.6,3.2-3.1,5.3c-0.2,0.9,1.8,2.4,3.1,3.2
	c7.1,4.8,14.8,8.9,21.4,14.4s2.9,17.8-5.5,19.2c-7.5,1.2-15.2,0.8-22.8,1.4c-2.3,0.2-5,0.7-6.8,2.1c-3.3,2.7-2.7,4.8,0.7,7.5
	c6.2,5,12.5,10,18.2,15.5c4.7,4.5,4.8,8,2,13.5c-2.5,5-6.6,7.3-12.2,7c-7.3-0.5-14.6-0.8-21.9-1.5c-3.2-0.3-6.1,0.3-6.6,3.6
	c-0.1,2.3,0.7,4.6,2.2,6.3c5.2,5.8,10.9,11.2,16.3,16.9c4.6,4.9,4.7,7.1,0.8,14.3c-2.5,4.5-6.3,5.5-11,4.5
	c-7.2-1.5-14.4-2.9-21.5-4.4c-2.7-0.5-5.3-1.1-6.8,2.2s0.7,4.6,2.5,6.8c4.8,5.5,9.8,10.9,13.4,17.2c2,3.4,2,8.7,1.3,12.8
	c-1.1,5.7-4.9,8-10.7,6.9c-9.2-1.8-18.3-4.2-28.4-6.6c-2.7,1.8-2.2,4.5,0.3,8c4.4,6.1,8.3,12.5,12.4,18.7c2.7,4.1,2.6,8-0.8,11.8
	c-5.1,6-7,6.8-12.7,4.8c-7.5-2.7-14.9-5.7-22.5-8.3c-1.5-0.5-3.5,0.1-5.2,0.2c0.2,1.8,0,3.9,0.8,5.4c2,3.6,4.9,6.8,6.6,10.5
	c2.1,4.3,3.7,8.8,4.8,13.5c1.7,8.2-4.8,15-12.9,12.7c-7-2-13.5-5.9-20.1-9.3c-2.2-1.1-3.9-3-5.8-4.4c-6,4.5-5.7,5.1-2.4,11
	c3.3,6.3,6.1,12.8,8.4,19.5c1.5,4.2,0.3,8.3-3.1,11.4c-3,2.9-7.6,3.5-11.2,1.3c-6.7-3.6-13.2-7.5-19.6-11.7c-2.6-1.7-4.8-3.9-8-1.8
	c-3.2,2-3.2,4.9-1.9,8.3c2.4,6.4,4.3,13,6.8,19.3c2.2,5.5,0,9.4-3.5,13c-3.4,3.6-8.9,4.2-12.9,1.4c-6.6-4.1-13-8.7-19.1-13.6
	c-3.2-2.6-5.3-1.9-8.3,0c-3.3,2.1-1.4,4.2-0.9,6.5c1.7,7.1,3.4,14.2,4.8,21.4c0.9,4.4-0.5,8.4-4.4,10.9c-4.2,2.7-9,3.8-13,0.3
	c-6.2-5.2-11.9-11-17.6-16.7c-1.8-1.8-2.6-4.1-6-2.5c-3.1,1.4-4.2,3.1-3.6,6.5c1.3,7.5,2.4,15.1,3.4,22.7c0.8,5.6-1.3,9.8-5.8,12.1
	c-4.8,2.5-9.7,2.2-13.3-1.8c-5.2-5.8-9.7-12.2-14.4-18.4c-1.4-1.8-1.8-4.8-5.5-3.2c-3.3,1.4-3.7,3.4-3.4,6.7
	c0.7,7.9,1,15.9,0.8,23.8c-0.2,6.7-2.6,8.5-11.2,10.4c-4.9,1.1-8.9-0.8-11.5-5c-3.7-6-7.2-12-10.7-18c-1.4-2.5-2.7-4.5-6.2-3.5
	c-3.5,1-2.9,3.4-3,6.2c-0.2,7.9-0.7,15.9-1.7,23.8c-0.5,4.5-3.9,8.1-8.3,9c-4.7,1.1-8.9-0.2-11.5-4c-4.3-6.3-8-12.9-11.6-19.6
	c-1.3-2.3-1.6-5.3-5.2-4.9c-3.6,0.4-5.7,2.3-6.1,6.1c-0.8,7.8-1.9,15.5-2.6,23.3c-0.4,3.9-2.2,5.9-6.1,6.5
	c-14,2.3-14.1,2.4-19.7-10.6c-2.2-5-3.8-10.3-6.1-15.3c-0.7-1.5-2.5-2.5-3.9-3.7c-1,1.5-2.7,3-2.9,4.6c-1,9.1-2.3,18.1-7.2,26.2
	c-1.7,2.8-3.4,4.3-6.7,3.8c-0.5,0-1,0-1.5,0c-11.7,0-13-0.7-16.5-11.9c-1.7-5.3-2.5-11-3.3-16.6c-0.4-2.6-0.8-4.7-3.9-4.7
	s-4.9,1.2-5.7,4.8c-1.7,7.3-3.9,14.6-6.4,21.7c-2,5.8-7.1,6.3-12.4,6.1c-5-0.2-8.5-2.6-9.6-7.2c-1.7-6.7-2.7-13.6-3.7-20.5
	c-0.4-3,0-6.3-4.3-6.6c-4-0.3-7.9-1.1-9.8,4.2c-2.2,6.3-4.9,12.3-7.6,18.4c-2,4.5-5.1,7.2-10.4,6.9c-5.9-0.3-10.9-2.6-12.2-8.4
	c-1.6-7.2-2.1-14.7-2.6-22.2c-0.2-3-0.6-5.1-3.8-6c-3.2-0.9-4.6,1-6.1,3.6c-3.9,6.9-7.9,13.8-12.2,20.5c-3.1,4.8-8.2,5.5-13.3,3.9
	c-5.2-1.6-7.2-5.6-7.3-10.8c-0.1-7-0.1-14-0.2-21c0-1.8-0.2-3.6-0.8-5.3c-0.3-0.8-2.1-1.8-2.7-1.5c-1.2,0.7-2.2,1.7-2.9,2.9
	c-3.7,5.9-6.9,12.1-11.2,17.5c-2.5,3-6,5.1-9.9,6c-7.7,1.4-12.6-2.7-12.8-10.6c-0.1-7.9,0.9-15.6,1.7-23.3c0.3-3,0.1-5.1-3.1-6.3
	c-3.1-1.2-4.5,0.4-6.1,2.6c-4,5.5-8,11.1-12.5,16.2c-5.6,6.4-12.4,6.5-19.1,1.4c-3.9-3-4.3-7.2-3.9-11.3c0.6-6.1,1.8-12.1,3.5-18
	c2-6.8,2.1-7.3-4.2-10.2c-1.6-0.7-3.3-1.5-3.8-1.7c-7.5,6.3-14.2,12.5-21.5,17.9c-2.5,1.8-6.6,2.2-9.9,1.9
	c-5.8-0.6-9.1-4.5-8.1-10.4c1.3-8,3.2-15.9,5.8-23.6c1.3-3.9,0.4-5.6-2.6-7.8c-3.4-2.4-4.9-0.1-7.1,1.7c-5.4,4.6-10.8,9.4-16.9,12.9
	c-3,1.7-7.8,1.6-11.4,0.7c-7-1.7-8.8-6-6.5-13s4.8-14.2,7.5-21.2c1.2-3.2,0.7-6-2.1-7.2c-2.3-0.9-4.8-0.9-7.1,0
	c-6.9,3.5-13.5,7.8-20.3,11.5c-4.4,2.4-8.6,1.5-12.5-1.8c-4.2-3.5-6-7.7-3.9-12.8c3.1-7.1,6.4-14.2,10-21.1c1-2.1,2.5-4,0-5.5
	c-1.7-0.9-4.3-1.4-6-0.8c-7.2,2.9-14.1,6.6-21.3,9.4c-3.8,1.5-7.9,1.7-11.1-1.8c-3.1-3-3.9-7.8-1.8-11.6c4-8.1,8.3-16.1,13-25
	c0.5,1.2,0.5,1.1,0.4,0.9c-5.4-8.2-5.2-7.8-14.1-3.9c-5.8,2.4-11.8,4.4-17.9,5.8c-4.2,1.1-8.3,0.5-11.1-3.6s-3.4-8.5-0.7-12.7
	c3.9-6.4,8.2-12.5,12.9-18.3c2.8-3.3,3-5.8,0.9-9.2c-2.1-3.5-4.8-3.2-8.1-2.1c-7.1,2.3-14.2,4.6-21.5,6.3
	c-5.7,1.3-10.7-2.1-12.2-7.7c-0.6-2-0.4-4.2,0.4-6.2c4.2-8.2,8.9-16.1,17.1-20.9c2.5-1.4,3.6-3.1,2.1-6.1c-1.5-3-3.4-2.8-6.2-2.3
	c-8.1,1.7-16.2,3.2-24.4,4.3c-4,0.5-7.6-0.9-9.3-5.2c-1.9-4.7-2.8-9.6,0.9-13.6c4.2-4.7,8.9-8.9,13.5-13.3c6.1-5.7,6.3-6.8,1.9-14.8
	c-5.3,0.7-10.7,1.6-16.1,2.2c-3.6,0.3-7.3,0.4-10.9,0.1c-3.9-0.3-7.5-1.3-9-5.8c-1.6-4.8-1.9-9.2,2.3-12.8
	c5.7-4.8,11.4-9.6,17.3-14.2c2.4-1.8,4.7-3.3,3.7-6.8c-1-3.2-3.6-3.4-6.4-3.5c-7.3-0.3-14.6-0.8-21.9-1.2c-4.9-0.3-8-2.8-9.7-7.3
	S9.9,44,13.4,41c5.3-4.5,11.1-8.4,16.8-12.5c3.1-2.3,8-3.7,6.7-8.7c-1.3-4.9-6.2-2.6-9.5-3.2C22.2,15.8,17,15.9,12,14.9
	C2.8,13.1,0,9.4,0,0.1H5z"/>
<path class="st0" d="M328,0.1l-2.4,4.2c2.5,8.2,4.9,15.5,7,22.9c1,3.5,0.2,6.5-3,8.8c-1.8,1.2-3.4,2.7-5.1,4
	c-12.3,9.3-25.7,8-36.3-3.5c-1.3-1.4-2.6-3-4-4.7c-3.3,2.2-6.5,4.4-9.6,6.5c-0.5,0.4-1,0.9-1.4,1.4c-3.8,5-2.4,20.4,2,25
	c11.8,12.4,23.3,25.1,35,37.6c1.5,1.6,2.8,3.3,4.6,5.4c8.1-6.5,17.2-11.5,19.2-23.4c2.3-13.9,10.3-20.4,24-22.7
	c19.5-3.3,32.8,5.8,42.8,21.1c8.5,13.1,16.3,26.7,24.5,40c4.8,7.9,4,15.5-1.4,22.8c-2.2,3-4.5,5.8-6.5,8.8c-3.2,4.7-7.8,7.1-13,9.6
	c-9.3,4.5-18,10.4-27.3,15.2c-4.3,2.3-9,4-13.8,5c-12,2.4-23,6.8-32.4,14.6c-7.4,6.1-15.8,8.3-25.1,7.3c-2.3-0.4-4.4-1.2-6.3-2.6
	c-10.4-6.9-20.9-13.6-30.8-21.2c-4.6-3.8-8.4-8.4-11.2-13.7c-10-18.4-19.3-37.2-28.9-55.9c-1.5-2.8-2.6-5.9-4.7-8.2
	c-1.7-2.1-4-3.5-6.6-4.2c-5-0.9-8.5-3.3-9.7-8.1c-1.6-6.5-5-10.2-12.1-10.1c-1.9,0-4.5-1.7-5.6-3.4c-2-3-3.9-6.5-4.3-9.9
	c-0.3-2.5,1.3-5.7,3-7.8c1.9-2.4,4.8-4.1,7.4-5.9c3.7-2.4,5.9-5,4.3-9.9c-0.5-1.5,0.9-4.2,2.2-5.7c7.9-9.4,18.4-14.8,29.9-18.8
	c5.2-1.8,10-5,15-7.5c2-1,4-2.1,5.4-2.9c1.1,7.8,3.1,15.5,3,23.1c-0.1,6.9-1.4,13.8-3.8,20.3c-2.9,8.2-7.1,15.9-0.5,24.5l-1.6,0.4
	l-5.4-10c-8.1,2.6-16.5,5.1-24.7,8c-1.8,0.6-3,3-4.5,4.6c2,1.5,3.8,3.9,6,4.3c5.4,0.9,10.9,0.9,16.4,1.3c2.1,0.2,4.2,0.4,6.3,0.7
	l0.2,1.2c-2.4,0.6-4.8,1.1-7.2,1.8c-3.1,1-5.2,3-3.5,6.3c10.9,22.2,21.7,44.5,33.1,66.5c4.7,9,12.6,15.4,20.9,21.1
	c5.4,3.6,10.6,7.5,15.9,11.3c9,6.6,17.1,6.5,26-0.1c10-7.5,21.6-12.8,33.8-15.4c11.7-2.5,21.7-8.2,30.6-16c2.6-2.3,3.3-4.8,1.7-8
	c-10-20.2-24.4-36.5-42.4-49.7c-12.9-9.4-20.5-5-30.2,7.9c-2.3,3-2.7,7.3-4.3,11.7c-0.9-3.2-1.3-5.8-2.4-8.1
	c-1.6-3.6-3.1-7.4-5.7-10.4c-8.9-10.4-18.1-20.4-27.3-30.5c-2.6-2.8-5.4-5.4-8.3-7.8c-4.8-3.9-7.1-10-6.2-16.1
	c1.9-15.4-0.8-29.5-11.2-41.4c3.1-4.4,11.9-3.4,10.6-11.6h8c2.6,2.9,5.3,5.6,7.7,8.6s6,5.8,6.2,9c0.8,9.5,6.5,15.8,13,21
	c8.9,7.1,9.6,6.6,17.9,1c2.5-1.7,5.3-3,7.3-5.2c1.5-1.7,3.1-4.8,2.6-6.6c-2-6.3-4.4-12.5-7.2-18.5c-1.5-3.3-3.6-6.2-5.5-9.3L328,0.1
	z M345.7,75.6c-0.9,4.5-1.7,8.2-2.4,11.9c-1.5,7.4-1.1,8.8,5.3,12.8c15.6,9.8,29.2,21.6,39.7,36.7c4.3,6.1,7.8,12.8,11.7,19.2
	c2.6,4.3,5,5.2,7.8,2.3c5.5-5.8,10.8-11.8,15.8-18c2.3-2.8,2.4-11.7,0.1-13.2c-1.7-1-4.5-0.2-7.1-0.2c3-6.5,0.9-12.5-2.8-18.2
	c-4.9-7.7-9.5-15.7-15-23c-4.1-5.7-8.8-10.8-14.1-15.4c-10-8.4-28.6-5.8-35.4,4.7c8.8,6.5,19,11.7,25.9,19.8s10.4,19,15.4,28.7
	c-2-1.2-3.6-3-4.8-5c-3.4-5.7-6.3-11.8-10.1-17.2c-3.5-5.2-7.6-9.9-12.3-14C358.4,83.1,352.3,79.9,345.7,75.6L345.7,75.6z
	 M241.6,57.4c4,4.3,5.9,1.7,7.6-1.6c4-7.5,2-14.9-0.5-22.2c-0.8-2.3-1.6-5.6-4.8-4.3c-2.4,1-4.4,3.5-5.8,5.8
	c-0.8,1.2,0.1,3.5,0.4,5.3c0.2,1.4,0.4,2.8,0.6,4.3c-0.7-0.3-1.2-0.9-1.4-1.7c-1.4-3.5-3-7.1-7.8-5.9c-5,1.3-4.8,5.4-3.8,9.3
	c1.5,5.6,3,11.2,4.9,16.7c0.6,1.6,2.7,4.1,3.6,3.9c2.2-0.6,4.1-1.9,5.4-3.7C241.1,62.1,241,60,241.6,57.4L241.6,57.4z M272.5,35.9
	c4-2.4,7.8-4.5,11.3-6.9c4.5-3,6-8.9,3.3-13.6c-2-3.4-4.5-4.4-8.3-2.6c-13.1,6.4-13.4,6.9-7.7,20.3
	C271.4,33.9,271.8,34.6,272.5,35.9z M217.6,54.2c0.6,4.9,0.9,8.7,1.5,12.4c0.6,3.7,3.7,5.7,7.8,4.8c3.9-0.9,2.4-3.8,2-6
	c-0.7-4.6-1.7-9.1-3-13.6c-0.6-2.1-2.2-4-3.3-5.9c-1.6,1.8-3.1,3.6-4.5,5.6C217.7,52.3,217.5,53.3,217.6,54.2L217.6,54.2z M207.8,79
	c7.5-5.2,8.4-8.4,4.4-13.6c-3.5-4.6-6.3-4.5-12.1,0.4L207.8,79z M251.8,24.8l-1.5,0.3c0.8,4.7,1.6,9.3,2.3,13.9
	C256.4,33.7,252.6,29.4,251.8,24.8L251.8,24.8z"/>
<path class="st0" d="M47,0.1C58.5,69,86.4,131.1,126.1,188c29.5,42.3,66.2,77.6,108.9,106.1c51.8,34.5,107.6,60.1,169.4,71.5
	c35.8,6.6,71.7,8,107.9,6c46.4-2.4,91.5-10.9,134.8-27.9c50.6-19.8,95.9-48.3,136.7-84c66.1-58,109.5-130.1,134-214.1
	c4.3-15,7.5-30.3,11.2-45.5h2c-5.9,32.8-15.3,64.8-28,95.6c-22.4,53.8-52.6,102.6-94.1,144.1c-64.7,64.6-140.7,108.3-230.7,126.7
	c-27.4,5.6-55.3,8.5-83.3,8.9c-88.5,1.3-170.3-21.7-245.4-68.8c-48.9-30.7-90.9-68.7-124.5-115.4C84.3,134.7,58.8,71.5,45,3.4
	c-0.2-1.1-0.6-2.2-0.9-3.4H47z"/>
<path class="st0" d="M920,0.1c-3.5,15.2-6.6,30.6-10.6,45.7c-10.2,38.8-26.8,74.9-47.8,108.8C796.1,260.3,702.7,327.8,581,354.5
	c-80.3,17.6-159.9,13.2-237.7-14.3c-59.7-21.1-112.3-53.7-158.7-96.9c-34.2-31.8-61.3-68.8-83.3-109.6c-18.3-34-31.6-70-41.6-107.2
	C57.4,17.9,56.5,8.9,55,0.1h2c4.5,17.5,8.2,35.3,13.5,52.6c18.5,60.2,49.6,113.4,90,161.5c31.3,37.3,69.6,65.5,111.1,90.1
	c51.8,30.8,109.9,49.7,169.9,55.4c110.6,10.6,211.8-15.1,302.5-80.8c53.1-38.5,94.5-86.9,126.3-143.6c23-41.1,38.2-85.2,46.4-131.6
	c0.1-1.2,0.2-2.3,0.2-3.5H920z"/>
<path class="st0" d="M135,0.1c4,15.6,6.7,31.7,12.3,46.7c14.4,38.9,35.2,75.2,61.6,107.3c29.9,36.3,64.9,66.7,106.4,88.5
	c57.2,30,118.2,46.3,183.4,43.3c80.9-3.7,153.8-29.1,216.7-81.1c30-24.9,54-55,75.6-87.3c23.3-34.9,38.1-73.3,47.8-113.9
	c0.2-1.1,0.2-2.3,0.2-3.4h3c-2.5,10-4.7,20-7.5,29.9c-14.6,51-41,95.3-75.2,135.5C704.1,230.1,633.9,268,551.1,283
	c-92.2,16.7-178.5-1-258.1-50c-36.5-22.6-67.1-52-93.2-86.4c-23.7-31.2-42.7-64.7-56-101.3c-5.3-14.6-7.9-30.1-11.8-45.2L135,0.1z"
	/>
<path class="st0" d="M122,0.1c3.2,14.4,4.3,11.9-9.5,15.5c-12.4,3.2-24.9,6.1-37.2,9.3c-4,1-6.3,0.3-7-4.2C67.2,13.8,63.1,7,68,0.1
	h12c-7.4,3.7-8.9,8.3-5.3,16.3c3-0.6,6.1-1.1,9.1-2c2.4-0.9,4.6-1.9,6.9-3c-1.6-3.2-3-6.4-4.7-9.4C85.4,1.1,84,0.7,83,0.1h13
	c0,1.8,0.1,3.6,0.3,5.4c0.9,5.4,2,6,7.3,4.6c2.5-0.7,5.1-1.4,7.6-2.1c5.9-1.6,6.1-1.9,3.8-7.8L122,0.1z"/>
<path class="st0" d="M909,0.1c1.8,6.4,0.2,8.1-6.2,6.5c-8.3-2.1-16.5-4.3-24.8-6.5H909z"/>
<path class="st0" d="M858,0.1c-1,3.9-2,7.9-3.2,12.4l-6.5-1.3c0.9-3.9,1.8-7.5,2.7-11.1H858z"/>
<path class="st0" d="M1417.6,833.8h-13.8c1.3-5.5,2.6-10.7,3.9-15.9c2.2-8.8,0.4-13.1-7.3-18.1c-5.7-3.8-12.5-5.8-19.3-5.8
	c-29.7-0.2-59.3-0.3-89-0.5c-7.8,0-15.6,0-23.6,0c0,0-0.3,0.3-0.3,0.5c1.9,12.3,1.7,12-9,18.1c-9.1,5.2-17.7,11.1-26.5,16.8
	c-1.2,0.8-2,1.9-2.5,3.3c5-1.7,9.9-3.6,14.9-5.2c9.7-3.2,19.4-6.4,29.5-1.2c0.8,0.4,3.1-0.1,3.3-0.7c3.2-7.1,9.7-8,16.2-9
	c1.5-0.3,2.9-0.7,4.3-1.2c-3.8-4.9-7.4-9.5-10.9-14.1c12.6-6.9,28.8-3.3,37.1,7.7c1.7,2.3,4.2,3.9,6.2,5.7c1-0.8,1.5-1,1.5-1.2
	c-0.2-7.4,4.2-9.9,10.8-10.6c8-0.8,16-2.1,24-3.2l0.9,1.7c-3.9,6.1-7.6,12.3-11.9,18.1c-3.3,4.6-6.4,8.8-1.4,14.4l-1.5,1
	c-1.3-1-3.1-1.8-3.7-3.1c-1.1-2.4-3.9-4.9,0-7.7c7-5.1,9.8-13,13.4-20.3l-1.1-1l-21.4,23l7.6,6.7c-0.5,0.7-1,1.3-1.5,2
	c-0.9,0.1-2,0.5-2.6,0.1c-5-3.5-10.6-2-16-1.7c-18.8,1.1-37.7-0.4-56.1-4.4c-9.9-2.2-19.4-1.7-28,3.4c-7,4.2-14.1,2.1-22.8,3
	l12.1-11.6l-1-1.1c-3.7,3.4-7.4,6.8-11.2,10c-1.2,1-2.7,2.2-4.1,2.3c-8.3,0.2-16.6,0.1-25.5,0.1c2.8-9,1.3-17-3.5-24.9
	c9.9-3.3,19.4-6.2,29.3-1.3c6.7,3.3,7.6,6.9,3.4,13.1c-1.7,2.4-3,5-4.1,7.7c5.1-2.4,8.8-5.8,11-11.3c1.8-4.3,4.3-8.8,7.8-11.7
	c5.8-4.9,12.6-8.7,18.1-12.4h-66.6v40.5h-3.8V634.9h-81.7c0,0.5-0.1,1.1-0.1,1.6c2.5,0.2,5,0.6,7.5,0.6c21.3,0.1,42.7,0.1,64,0
	c7.4,0,7.7,0.3,7.6,7.5c-0.3,18.5-0.5,37-0.7,55.5c-0.3,43.2-0.4,86.3-0.8,129.4c0,1.4-1.2,2.9-1.8,4.3c-0.6-1.3-1.7-2.6-1.7-3.8
	c0.2-29.3,0.6-58.6,0.9-88c0.3-31.3,0.5-62.6,0.7-94c0-1.8,0-3.6,0-5.9h-11c0,1.9,0,3.9,0,5.8c-0.3,42.7-0.7,85.3-1,128
	c-0.1,18-0.2,36-0.3,54c0,2.5,0.1,5-3.4,3.7c0-13.9-0.1-27.7,0-41.6c0.3-48.5,0.7-96.9,1.1-145.4c0-4-1.3-5.7-5.5-5.7
	c-24.3,0.1-48.7,0.1-73,0c-4.3,0-5.9,1.7-5.9,5.9c0,12.3-0.2,24.6-0.3,37c-0.2,48.7-0.5,97.3-0.7,146v3.4c-3.4,1.6-4.7,0.8-4.7-2.8
	c0.5-37,0.9-73.9,1.3-110.9c0.3-24.5,0.4-49,0.6-73.5c0-3.6-1.7-5-5.2-5c-26.2,0-52.3-0.1-78.5-0.2c-3.1,0-4.6,1-4.5,4.3
	c0.1,4.1-0.3,8.3-0.3,12.5c-0.1,57.2-0.2,114.3-0.4,171.5v4.3c-3.5,1.4-4.1-0.3-4-2.9c0.2-7.3,0.3-14.6,0.3-22
	c0.2-42.1,0.4-84.3,0.5-126.4c0-12,0-24,0-36c0-1.8-0.7-3.5-2-4.8c-0.6,1.3-1.7,2.7-1.8,4.1c-0.6,6.3-1.2,12.6-1.3,18.9
	c-0.3,23.2-0.3,46.3-0.4,69.5c-0.1,31.8-0.2,63.6-0.3,95.5c0.1,0.8,0.1,1.7-0.1,2.5c-0.5,0.8-1.1,1.6-1.8,2.2
	c-0.4-0.7-1.3-1.5-1.3-2.2c-0.1-3.7,0.1-7.3,0.1-11c0.1-56.7,0.2-113.3,0.3-170c0-2.7-0.8-5.5-1.1-8.2h-1.5
	c-0.5,2.6-0.8,5.2-0.9,7.8c-0.1,59-0.1,118,0,177v6.3h-8.7V643.9c0-7,0-7,6.9-7.1c20.2,0,40.3,0,60.5,0c2.5,0.1,4.9-0.5,7-1.8
	c-2.2-0.2-4.4-0.5-6.7-0.5c-22,0-44,0-66,0c-6.6,0-7.1,0.5-7.1,7.1c0.1,49.2,0.2,98.3,0.3,147.5c0,13,0.2,26,0.3,39
	c0,1.8,0,3.6,0,5.6h-16.3c0-10.2,0.1-20.4,0-30.5c-0.1-12.5,2.2-12.1-12.1-12.1c-32.3-0.1-64.7-0.2-97-0.3
	c-22.5-0.1-45-0.6-67.5-0.6c-17.2,0-30.1,10.8-32,27.4c-0.6,5.1,1,10.4,1.7,15.7c-3,0.7-3.2,0.7-3.9-3.1
	c-2.5-14.1-6.1-28.1-6.9-42.3c-1.5-24.4-2.6-49-1.4-73.3c2.9-57.8,20.4-111.5,50.9-160.6c39.2-63.3,91.5-112.5,160.8-141.6
	c40-16.8,82.7-26.2,126.1-27.6c40.4-1.5,80.2,1.8,118.9,14.2c34.3,11,67.2,24.8,96,46.8c41,31.4,77.8,66.9,104,112
	c25,42.6,41.2,89.8,47.8,138.8c6,45.2,3.1,90-7,134.4C1418.3,831.9,1418,832.8,1417.6,833.8z M1113.5,535.2c2.5-2.8,4.2-5,6.2-7
	c8.7-8.9,13.9-20.6,14.6-33.1c0.2-2.7,0.7-6.1,2.4-8c7.3-7.9,14.7-15.8,23-22.6c3.7-3,9.5-4.1,14.5-4.5c14.6-1,27.6-5.4,38.8-15
	c5.9-5.1,16.5-5.4,23.4-1.1c4.2,2.6,4.4,4.2,0.9,7.6l-35.3,33.9c-4.4,4.2-4.4,4.8-0.2,9.2c14.9,15.5,29.7,31,44.6,46.6
	c4.1,4.2,4.7,4.2,8.5-0.2c13.5-15.8,27.1-31.6,40.6-47.4c3.1-3.6,6.6-4.6,11.2-2.8c-3.4,29.2-11.9,57.4-14.1,87c2.4,0,4,0.1,5.6,0
	c16.4-1.7,32.8-3.4,49.2-5.3c3.6-0.4,6.6,0.4,8,3.6c3.4,8.4,6.4,17,9.9,26.5l-55,5.7c1.7,2,2.7,3.3,3.8,4.5
	c17.2,18.3,34.4,36.7,51.6,55c8.6,9.2,9.2,7.8-0.8,17.7c-5.6,5.5-10.6,11.7-15.7,17.4c-0.8-0.5-0.6-0.2-0.3-0.2
	c11.2,0,22.3,0.1,33.5,0.1c17.4-0.2,28.9-14.2,26.1-31.4c-5.7-35.2-18.2-68.1-34.9-99.4c-22.8-42.4-53.3-78.4-90.3-109.5
	c-36.1-30.3-75.9-52.7-121.4-64.8c-5.5-1.4-11.2-1.9-16.9-1.5c-17.7,1.5-32,16.7-31.4,34.4c0.7,22.3,0,44.6-0.1,67
	C1113.5,509.8,1113.5,521.9,1113.5,535.2z M1020,507.9c0-1.5,0-2.6,0-3.8c0.2-22.7,0.3-45.3,0.5-68c0-2.8-0.2-5.7-0.6-8.5
	c-3.1-20.8-18.9-34.3-41.2-27.7c-9.4,2.8-18.9,5.4-28.1,8.7c-50,18-92.3,47.6-128.9,85.9c-32.8,34.3-58.3,74.8-75,119.2
	c-2.4,5.7-3,12-1.8,18.1c0.7,3.1,2,4.1,4.8,2.2c2.8-1.9,5.7-4.3,8.8-5.6c5.6-2.4,11.4-5.9,17.1-5.8c8.2,0.2,12.8-2.8,16-9.6
	c0.6-1,1.2-2,1.9-2.9c6.4-9.8,6.8-7.6-1.2-16.1c-22.9-24.2-7-58.4,14.3-68.1c19.1-8.7,38.8-10,58.9-4.3c2.8,0.8,5.5,1.7,9,2.7
	c-0.5-13.9,13.5-16.3,18.6-25.4c1-1.8,2.5-3.4,3.5-5.3c0.6-1.3,0.2-3.5,1.1-4.2c4.5-3.6,4.5-8.4,4-13.2c-1.5-14.4,4.3-25.9,13.9-36
	c5.4-5.7,6.9-5.8,12.8-0.9c3.4,2.9,4,5.9,1.7,9.5c-1.4,2.2-2.7,4.6-4.3,6.8c-6.5,8.9-6.1,19-5.5,29.2c0.2,1,0.5,1.9,0.9,2.8
	c2,5.1,4.7,10.1,5.9,15.4c0.8,3.5,1.8,5.9,5,7.3c7.5,3.4,10.4,9.4,10.4,17.2c-0.2,18.8-0.3,37.6-0.4,56.5
	c-0.1,11.2-0.2,22.3,0.1,33.5c0,1.8,1.8,5,3,5.1c5.4,0.5,10-4.3,10-9.8v-7.7c5.4,0,10,0.1,14.6,0c3.6-0.1,4.8,1.6,4.7,4.8
	c0,1.2,0.1,2.3,0,3.5c-0.2,4,2.3,5.2,5.7,5.3c3.6,0.1,3.8-2.5,3.8-5.2c0.1-9.5,0.1-19,0.2-28.5c0-3.2,0-6.4,0-9.7
	c-4.1,4.1-7,8.5-10,12.8c-2.9,4.1-6.9,5.8-11.8,4.3c-4.6-1.4-7.7-5.9-7.2-10.8c0.3-2.9,1.3-5.8,2.9-8.2
	c7.5-10.8,15.2-21.4,22.8-32.1c3.7-5.2,4.4-10.8,3-17.1c-0.8-4.4-1-8.8-0.7-13.3c0.3-6.1,1.6-12.2,1.6-18.3
	c0.1-16.6-0.3-12.6,13.5-12.9c3.4-0.1,4.9,1.3,4.8,4.8c-0.2,5.7-0.1,11.3-0.2,17c-0.1,2.8,0.6,5,3.9,5.2
	C1011,507.2,1015.1,507.5,1020,507.9z M728.7,807.3l1.5,0.1c1-1.1,1.9-2.3,2.7-3.5c8.5-15.1,21.7-20,38.5-19.9
	c57.5,0.6,115,0.7,172.4,1c6.8,0,7.7-0.8,7.7-7.3c0.1-23.3,0.2-46.6,0.4-70c0-3.7-1-4.8-4.8-4.9c-30.7-0.1-61.3-0.5-92-0.7
	c-30.7-0.2-61.3-0.2-92-0.4c-12.3-0.1-22.4-4.4-28.7-15.7c-1.5-2.7-3.4-5.1-5.2-7.6l-1.5,0.4C721.1,721.7,720.7,764.5,728.7,807.3z
	 M1412.8,693.5c-1.2,0.6-2.3,1.3-3.3,2.1c-9.4,8.8-20.7,11.6-33.2,10.6c-2.5-0.2-5-0.2-7.5-0.2l-168.5-0.2c-13.1,0-13.2,0-13.3,13.4
	c-0.3,19.7-0.4,39.3-0.5,59c-0.1,8.1,0,8.2,7.9,8.3c36.5,0.4,73,0.7,109.4,1c24.8,0.2,49.7,0.3,74.5,0.5c10.3,0,20.2,4,27.5,11.3
	c1.2,1.2,2.6,2.3,4.5,3.9C1417.2,767.1,1418.1,730,1412.8,693.5z M849.3,698.4v1.6c28.5,0,56.9-0.1,85.4,0.1c4.8,0,6.5-1.6,6.5-6.4
	c-0.1-10.8,0.2-21.6,0.4-32.4c0.1-3.7-1.4-5.7-5.2-5.7c-4.8,0.1-9.6,0.3-14.5,0.3c-28-0.2-55.9-0.5-83.9-0.6
	c-29.8-0.1-59.6-0.2-89.4-0.2c-13.2,0-20.7,12.2-14.5,24c6.6,12.5,17,19.4,31.3,19.4C793.3,698.5,821.3,698.4,849.3,698.4
	L849.3,698.4z M1108.6,628.6c0.2-1.9,0.3-3.2,0.4-4.5c0.2-20.3,0.4-40.6,0.5-61c0.2-29,0.1-58,0.4-87c0.2-17.5,0.5-35,1-52.4
	c0.3-10,5.3-17.6,13.8-23c3.2-2,6.2-4.1,9.3-6.2l-0.4-1.6c-42.4-6.9-84.8-7.8-127.7,0.8c0.6,1.5,0.6,1.7,0.7,1.8
	c1.8,1.1,3.7,2.2,5.5,3.3c11.9,7.5,19.1,17.8,19,32.4c-0.1,13-0.1,26-0.2,39c-0.1,9.2,6.2,13.9,12.3,19.5c3.1-6.1,5.8-11.6,8.6-17.1
	c0.5-1,1.3-2.8,1.8-2.8c5.7,0.4,5.1-4.3,6-7.5c2.5-8.8,5.7-17.2,10.4-23.9l5.9,1.5c-3.4,12.3-0.6,23.7,5.1,35
	c3.2,6.2,4.2,13.6,5.9,20.5c0.5,2.7,0.8,5.5,1,8.3h0.8c1.3-6.3,2.5-12.7,3.8-19c4.6,8.7,7.7,17.4,11.4,25.9c4,8.7,4.3,18.7,0.8,27.7
	c-5.7,14.9-8.2,30.1-6.3,46c0.4,3.2,1.4,5.2,4.6,5.4c4.7,0.4,4.4,2.5,2.2,5.5c-7.6,10.2-4.9,21.8-5.2,33.3L1108.6,628.6z M939,571.6
	h0.5c0-15.1,0.1-30.3,0-45.4c0-7.2-3.3-12.2-9.5-12.6c-10.9-0.8-21.9-1.2-32.9-1c-7.2,0.1-12,5.6-12.1,12.8
	c-0.3,31.6-0.4,63.2-0.5,94.8c0,4.4,2,7.5,5.8,9.7c13.3,7.7,26.7,8,40.4,0.7c5.8-3.1,8.4-7.7,8.4-14.1
	C939,601.5,939,586.5,939,571.6z M1204.4,644.1c1.5-1.9,2.4-3.3,3.4-4.6c18.9-22.8,37.9-45.6,56.8-68.4c3.4-4.1,4.9-4.2,8.9-0.4
	c4.2,4.2,8.3,8.5,13.2,13.5l15.1-83.8l-1.3-0.7c-1.9,2.1-3.8,4.1-5.6,6.2c-30.1,35.4-59.7,71.2-90.6,105.8
	c-12.3,13.7-19.2,27.8-16.3,46.1c0.1,0.8,0.1,1.7,0,2.5c-0.4,3.7,1.2,5.3,5,5.9c23.4,3.8,46.9,7.8,70.4,11.7c5.9,1,6.5,0.2,7.5-5.5
	c1.5-9.3,3.2-18.7,4.9-28c1-5.5,0.6-10.8-3.1-15.1s-8-7.8-12.5-12.1c-0.6,1.6-1.1,2.6-1.4,3.6c-2.6,8.9-5.4,17.8-7.8,26.8
	c-1,3.7-2.9,4.9-6.5,4.1c-5.2-1.1-10.5-2-15.7-3C1220.9,647.3,1213,645.8,1204.4,644.1z M1113.4,629.8c21.8,0,43.2,0.1,64.6-0.1
	c4.8-0.1,7.2-3.9,9-8.9c-11.6,0.9-22.5,1.6-33.4,2.7c-4.4,0.5-6.5-1-7.4-5.2c-0.8-3.6-1.9-7-2.9-10.6c-3.9-13.5-3.8-13.3,10.1-14.8
	c19.9-2.1,39.7-4.4,59.5-6.9c2.8-0.3,5.5-1.7,9.6-3.1l-59.8-62.5c-11.4,12.1-22.1,23.3-32.6,34.7c-4.6,5-9.3,8.9-16.7,3.9
	L1113.4,629.8z M1247.7,598.3l95.6,100.8c6.7-6.2,13.1-12.3,19.7-18.1c5-4.4,5.1-4.4,0.7-9.2c-22.5-24.3-45-48.5-67.5-72.8
	c-8.4-9-16.8-17.9-25.6-27.2L1247.7,598.3z M854.4,534l1-1c2,1.4,4,2.6,6.2,3.8c4.1,2,7.6,0.6,9-3.1c1.4-3.8-0.3-6.4-4.8-7.7
	c-12.8-3.6-25.7-4-38.4-0.1c-13.9,4.3-26.1,11.7-31.1,25.9c-11.7,32.7,17.6,54.9,41.7,50.2c29.6-5.8,37.6-35.2,24-57
	C859.7,541.1,857,537.6,854.4,534z M1071.6,553.8c-2.5-5.9-1.2-10.5,0.5-15c3-7.7,6.4-15.3,9.5-23c4-9.8,4.9-19.9,1.1-29.8
	c-3.6-9.4-8.4-18.3-13.2-28.6c-6.1,17.6-4.9,34.8-7.6,51.5c-2.7,17-3.6,33.8,1.9,50.5c-5.3-7.2-8.1-15.2-7.7-23.8
	c0.4-8.9,2.6-17.8,3.2-26.7c0.6-9.4,0.1-18.9,0.1-28.4c-8,16.3-7.1,34.6-11.8,51.8c3.8-16.4,1.1-30.8-12-43.9
	c3.5,20.7,3,40.8,11.4,59.3l-1.3,0.5l-10.2-13.6c-1.8,11.7-0.5,21.6,3.8,31.1c1.8,4.6,6.4,7.7,11.3,7.5c12.7,0.3,25.3,0.4,38,0.9
	c4.1,0.2,5.5-1.4,6.2-5.1c1.9-9.8,4.6-19.4,6.2-29.3c1.2-7,2.1-14.3,1.5-21.3c-0.6-6.3-3.4-12.3-5.3-18.5l-1.8,0.4
	c1.8,9.1-1.5,17-5.2,24.9c-4.6,9.7-6.9,19.8-4,30.5c0.2,1.4,0.4,2.8,0.4,4.2c-0.8-0.9-1.3-1.2-1.5-1.6c-0.5-1.4-0.9-2.9-1.2-4.3
	c-2.8-12.4,0.3-23.7,5.7-34.7c1.8-3.8,2.7-8,4-12.1l-1.7-0.5C1082.4,520.6,1073.6,535,1071.6,553.8z M1142.9,489.8
	c6.5,5.7,13.8,11.4,20.2,17.9c21,21.8,41.7,43.9,62.4,66c2.6,2.8,4.3,2.7,6.7-0.2c5.2-6.3,10.7-12.3,16.1-18.4
	c2-2.2,2.3-4.2,0.1-6.5c-25.3-26.9-50.6-53.8-75.8-80.8c-2.8-3-5.4-3.3-8.4-0.2C1157.8,474.5,1151.3,481.1,1142.9,489.8
	L1142.9,489.8z M1188.2,669.8v23.5c0,7.4,0.3,7.7,7.5,7.7c43.8,0.3,87.6,0.5,131.4,0.8c1.7-0.1,3.4-0.3,5.1-0.5l-52.3-57.4
	c-0.5,1.9-0.7,2.6-0.8,3.4c-1.9,10.3-3.9,20.6-5.6,30.9c-0.7,4.1-2.5,5.3-6.4,4.6c-12.1-2.2-24.3-4.3-36.4-6.2
	C1216.6,674.3,1202.7,672.1,1188.2,669.8L1188.2,669.8z M747.3,651.4c1.7,0.2,3,0.5,4.3,0.6c12.3,0.3,24.6,0.8,36.9,0.8
	c45-0.1,89.9-0.3,134.8-0.7c6.6,0,13.3-0.3,19.9-1.1c6.5-0.8,9.9-6.7,8.6-11.8c-5.4,0.9-10.6,2.5-15.9,2.5
	c-60.6,0.2-121.2,0.2-181.8,0.1h-6C747.9,645.4,747.6,648.3,747.3,651.4z M990.8,557.9c0,20.8,0,40,0,59.1c0,3.3,0.5,6,4.7,6.1
	s4.3-2.9,4.3-5.8c0.2-17.3,1.2-34.7,0.4-51.9c-0.6-12.2-0.5-23.3,8.4-33.1c3.6-3.9-2.8-5.7-4.8-8.2c-0.3-0.3-3.6,0.7-4.4,1.9
	c-11.9,17.5-23.6,35-35.3,52.6c-0.7,1-1.8,2.1-1.6,3c0.3,2.4,0.6,5.4,2.1,6.9c2.2,2.3,4.5,0.4,6.1-1.8c2.6-3.7,5.2-7.3,7.8-11
	L990.8,557.9z M1019.6,623.2v-97.3c-4,5-7.3,9.4-10.9,13.5c-3.6,4-5.5,9.2-5.2,14.6c0.2,18.5,0.1,36.9,0.1,55.4
	C1003.5,624.8,1003.5,624.8,1019.6,623.2z M1298.4,594.8c3,7.4,8.2,10.6,15,10c6.6-0.6,13.3-1.2,19.9-1.9c9.2-1,18.3-2.2,28-3.4
	c-2-4.6-3.7-8.6-5.4-12.5c-3.9-9.3-2.4-11.8-16.2-9.9c-14.7,1.9-29.5,2.9-44.2,4.4c-2.8,0.3-5.3,1-4.8,4.8c0.4,3.3,1.9,5.3,5.5,5.1
	c2.7-0.2,5.3-0.3,8-0.5c14.1-1.3,28.2-2.7,42.2-4c1.8-0.2,3.7,0.4,5.5,0.6c-0.1,0.5-0.1,1.1-0.2,1.6L1298.4,594.8z M1143.4,495.1
	c-2.4,16.4-9.9,29.8-21.6,41.3c-4.2,4.1-4.3,9.9-2.3,15.5c1.3,3.5,3,4.6,6.1,1.6c3.6-3.5,7.3-6.8,10.9-10.2
	c9.4-9.1,18.8-18.3,28.1-27.3L1143.4,495.1z M1175.6,464.3c5.9,6.5,11.4,12.3,16.6,18.2c2.7,3.1,5,3.1,7.8,0.2
	c7.6-7.6,15.5-15.1,23.1-22.7c3.8-3.8,7.5-7.7,11.3-11.7c-7.1-5.6-14.6-5.3-21.5,0.4c-8.3,7-18.2,11.9-28.9,14
	C1181.6,463.2,1179,463.6,1175.6,464.3L1175.6,464.3z M754.1,637.6h108.2c-6.2-2.8-11.6-5.3-17.1-7.6c-9.9-4.1-20.4-4.3-30.9-3.7
	c-3.6,0.2-6.4,0.9-8.5,3.9c-3.3,4.6-8,6.7-13.5,5.7c-1.9-0.3-4.5-2.5-4.9-4.3c-0.9-4.2-3.3-5.3-7-5.5
	C770,625.8,761.6,629.9,754.1,637.6z M1211.1,642c10,1.5,18.7,2.9,27.4,3.9c1.4,0.2,4.1-1.2,4.5-2.4c2.9-9.3,5.3-18.7,8.1-28.8
	c-3.4,0.2-6.7,0.6-10,1.2c-3.6,0.8-8.1,1.1-10.4,3.4C1223.8,626,1218,633.7,1211.1,642L1211.1,642z M1213.1,589.9l-67,8.3
	c3.4,6.9,5.4,8,12.2,7.3c12.4-1.2,24.8-2.6,37.3-3.2C1203.9,601.8,1209.2,597.9,1213.1,589.9L1213.1,589.9z M872.2,623.2l1.8-0.5
	v-86.6c-6,3.6-7.3,8.2-4.6,15.5c5,13.4,3.1,26.4-5.5,38.3c-1.7,2.4-2.1,6.7-1.3,9.6c1.8,6.5,4.7,12.8,7.3,19.1
	C870.5,620.2,871.4,621.7,872.2,623.2L872.2,623.2z M1200.7,605c-10.4,0.8-20,1.6-29.6,2.4c-5,0.4-9.9,0.9-14.9,1.7
	c-4.6,0.7-4.9,4.4-4.6,8.1c0.4,4.1,3.3,2.6,5.7,2.4c8.4-0.9,16.9-2.4,25.3-2.4C1191.4,617,1196.6,612.9,1200.7,605L1200.7,605z
	 M1037.1,593.8c0.8,4.6,3.9,5.9,7.3,5.9c17.5,0,35-0.1,52.4-0.3c3.3,0,5.3-1.6,4.6-5.6H1037.1z M793,631.6c5,0.8,8.3-0.3,10.8-3.8
	c1.8-2.2,3.4-4.6,4.8-7c2.7-5.3,6.6-7.5,12.6-6.3c2.3,0.5,4.6,0.1,6.6-1c1.2-0.8,1.8-5,1.6-5.1c-5.3-2-10.8-3.8-16.3-5.4
	c-0.6-0.2-1.9,0.8-2.4,1.6C804.9,613.4,799.1,622.3,793,631.6z M1212.3,825.6l-1.6,1.1l-13.2-14.8c-0.1,6.1,0.3,11.7,2,17
	c0.6,1.8,4.2,3.1,6.7,3.6c1.8,0.4,5-0.4,5.8-1.7c3.1-5.4,5.6-11.2,8.2-16.8c-7-5.3-11.8-6.2-16.6-3.5L1212.3,825.6z M1086,620.3
	L1086,620.3c0-4.5,0-9,0-13.4c0-3.2-2.1-3.6-4.7-3.8c-2.8-0.2-4.1,0.9-4.1,3.6c0,9-0.1,17.9-0.1,26.8c0,3.2,1.9,3.8,4.6,3.5
	c2.4-0.3,4.6-0.3,4.4-3.8C1085.8,629,1086,624.7,1086,620.3z M1074.2,620.3L1074.2,620.3c0-4.3,0-8.7,0-13c0-2.7-1-5-4-4.3
	c-1.8,0.4-4.3,2.5-4.4,4c-0.3,8.6-0.2,17.3,0.2,25.9c0.1,1.4,2.3,3.6,3.8,3.8c2.5,0.3,4.7-1,4.4-4.4
	C1074,628.4,1074.2,624.4,1074.2,620.3L1074.2,620.3z M1055.3,603.7c0,9.5-0.2,19.1,0.1,28.7c0.2,4.7,2.1,5.3,7.4,3
	c0-9,0.1-18.1,0-27.2C1062.7,603.7,1060.9,602.7,1055.3,603.7z M1097,620.7L1097,620.7c0-4.3,0.3-8.7-0.2-12.9
	c-0.2-1.6-1.9-4-3.4-4.3c-2.6-0.7-4.3,1.2-4.3,4c0,8.6-0.2,17.3,0.2,25.9c0.1,1.3,2.6,2.6,3.9,3.8c1.2-1.4,3.3-2.6,3.5-4.1
	C1097.3,629,1097,624.8,1097,620.7L1097,620.7z M862.8,631.2c-3.4-8.6-6.5-17-10-25.2c-0.6-1.3-3.7-3-4.4-2.5
	c-4.5,2.8-8.5,6.2-12.8,9.5l0.6,1.3c2.4,0,4.9,0.2,7.3,0c4.9-0.4,7.8,1.6,9,6.5c0.8,2.9,1.8,5.7,3.1,8.4
	C857,632,859.1,633,862.8,631.2z M995.8,526.5c0.9-1.8,1.9-3,2-4.2c0.8-12.2,1.5-24.5,1.9-36.7c0-1.1-1.8-2.2-2.8-3.4
	c-0.9,1.2-2.4,2.4-2.4,3.7c-0.3,6.8-0.2,13.6-0.3,20.4c0,1.9,0.2,4.4-0.9,5.8C989.2,517.6,992.2,521.6,995.8,526.5L995.8,526.5z
	 M1044.8,620.1c0,4.2,0.1,8.3,0,12.5c-0.1,2.3,0.3,3.9,3.1,4c2.8,0.1,4-1.2,4-3.8c0-8.3,0.2-16.6-0.1-24.9c-0.1-1.5-2.4-2.9-3.7-4.4
	c-1.1,1.6-2.9,3-3.1,4.7C1044.5,612,1044.8,616.1,1044.8,620.1L1044.8,620.1z M908.5,487.6c8.4,1.1,8.5,1.1,8.9-6
	c0.2-4.6,0.6-9.4-0.2-13.9c-0.3-1.8-3.6-3.1-5.5-4.6c-1.1,1.8-2.9,3.5-3,5.3C908.3,474.8,908.5,481.1,908.5,487.6z M927.6,636.9
	l0.4,1c5.6,0,11.2,0.3,16.7-0.1c4-0.3,8.4-5.5,6.6-7.5c-1.6-1.8-5.3-2-8.1-2.5c-1.1-0.2-2.6,0.5-3.7,1.2
	C935.5,631.5,931.5,634.2,927.6,636.9z M965.8,643.9l-0.3-0.2v161.4h0.3V643.9z M1014.5,528c1.3-4.9,2.4-8.5,3.1-12.2
	c0.7-3.4-2.7-6.6-5.5-5.3c-3.6,1.8-7,4.1-11.5,6.8L1014.5,528z M1329.2,823.1c-8.7-7.2-17.2-8-30.2-3
	C1308.8,824.9,1318.3,826.4,1329.2,823.1z M911.9,458.5c6.7,3.5,6.7,3.5,9.8-2.3c1.7-3.2,3.8-6.3,5-9.7c0.5-1.3-0.7-3.2-1.1-4.9
	c-1.6,0.5-4,0.5-4.7,1.6C917.7,448.1,914.9,453.3,911.9,458.5z M889.9,637.7l0.4-1c-3.3-1.9-6.5-3.8-9.8-5.6
	c-6.8-3.8-6.8-3.8-10.6,2.9c-0.9,1.3-1.8,2.6-2.8,3.7L889.9,637.7z M968.4,629.2L968.4,629.2c2.6,0.2,5.3,0.1,7.9-0.1
	c1.5-0.2,2.8-1.6,4.3-2.5c-1.3-1.1-2.5-2.9-3.8-3c-5.6-0.4-11.2-0.4-16.9-0.2c-1,0-2.4,1.9-2.6,3.1c-0.1,0.7,1.6,2.4,2.6,2.6
	C962.8,629.2,965.6,629.3,968.4,629.2L968.4,629.2z M866.2,630.2l1.6-0.3c0-2,0.5-4.2-0.1-6.1c-2.7-8-5.7-15.9-8.8-23.8
	c-0.3-0.8-1.8-1.2-2.7-1.7c-0.4,1.1-1.4,2.5-1.1,3.3C858.7,611.2,862.5,620.7,866.2,630.2z M1327.3,816.4
	c-13.8-15.6-16.8-17.3-23.7-13.8C1308.7,811.4,1318.7,811.4,1327.3,816.4z M911.4,508.4c3.3,0.1,6.6,0.1,9.9-0.1
	c1.1-0.1,2.4-1.7,2.7-2.8c0.2-0.6-1.5-2.5-2.3-2.6c-6.1-0.2-12.3-0.2-18.4,0.1c-0.8,0-2.2,2.1-2.1,3.1c0.4,1.3,1.5,2.2,2.8,2.6
	C906.5,508.8,909,508.7,911.4,508.4z M840,622c-4.9-5.7-24.2-5.1-27.9,0H840z M1077.6,577l-1.5,1.4c1.1,3.8,2.1,7.6,3.5,11.3
	c0.1,0.2,4.7-0.4,4.9-1.2c0.9-3.2,1.7-6.8,0.8-9.9C1085,577.5,1080.3,577.5,1077.6,577L1077.6,577z M1043.1,588l1.7,1.8
	c2.3-0.4,6.3-0.3,6.5-1.3c0.9-3.4,0.6-7.1,0.3-10.6c0-0.4-4.4-1.1-4.6-0.7C1045.5,580.7,1044.2,584.3,1043.1,588L1043.1,588z
	 M905.4,492.9c-1.6,4.3-0.4,6.1,3.7,6.2c2.7,0,5.4,0.4,8-0.1c1.5-0.3,2.7-2.1,4-3.2c-1.3-0.9-2.5-2.5-3.9-2.7
	C913.4,492.6,909.6,492.9,905.4,492.9L905.4,492.9z M1322.1,828.9c-10.6-1.8-21-5.3-32-4.4C1300.4,828.8,1311.1,830.7,1322.1,828.9
	L1322.1,828.9z M962.8,618l2,2.1c2.9-1.2,6.1-2,8.5-3.8c0.9-0.7,0.4-5.1-0.8-5.9c-1.7-1.2-5.9-1.8-6.7-0.7
	C964,611.8,963.8,615.1,962.8,618z M1055,582.7l-1.1,0.7c1.5,2,2.7,5.4,4.5,5.7c3.4,0.6,5.3-2.1,5.1-5.7c-0.2-2.9,0.7-6.2-4-6.5
	C1054.8,576.6,1054.7,579.3,1055,582.7z M1265.5,800.5l-1.8-1l-18.9,13.9l0.8,1.3c5.8-2.7,11.8-5.1,17.3-8.2
	C1264.4,805.7,1264.7,802.6,1265.5,800.5z M1259.9,798.3c-5.7-0.4-21.5,10.6-23.2,17.1L1259.9,798.3z M1238.1,611.2
	c0.2,0.4,0.4,0.7,0.6,1.1l14-1.7l-7.1-9.3L1238.1,611.2z M1087.6,583.3l5.2,6.5c1.1-2.3,2.6-4.5,3.2-6.9c0.7-2.8-0.2-5.9-3.7-5.3
	C1090.7,577.8,1089.5,580.7,1087.6,583.3z M1355.5,804.8l-0.4-0.9c-3.4,1-6.9,1.9-10.2,3.1c-4.9,1.7-5.5,3.5-2.7,8.6L1355.5,804.8z
	 M1031.9,559.3l-1.4,0.2v6.2c0,7.8,0.7,8.4,9.1,6.8L1031.9,559.3z M1068,589.7c4.9-0.8,6.8-5.4,4.4-9.7c-0.5-0.9-2.1-2.1-2.8-1.8
	c-1.1,0.4-2.5,1.8-2.5,2.8C1067.2,583.9,1067.5,586.8,1068,589.7z M987.4,627.3c0,0.4,0,0.7,0,1.1h26.6v-1.1H987.4z M1030.4,623.9
	h1.3v-23.4h-1.3V623.9z M1031.9,511.8c-2.3,9.8-1.6,12.9,3.8,15.6C1034.5,522.2,1033.4,517.6,1031.9,511.8L1031.9,511.8z"/>
<path class="st0" d="M879.3,317.5c-0.5-10.6-1.1-20.5-1.3-30.4c-0.1-4.8,4.4-8.8,11.5-10.6c4.1-1.1,7,0.8,9.3,4.2
	c3.7,5.3,7.3,10.7,11,16.1c0.9,1.4,1.9,2.7,3.1,3.9c3.6,3.4,7,2.4,7.7-2.5c0.6-3.8,0.4-7.6,0.6-11.5c0.3-5.5,0.2-11,1-16.4
	c0.3-2.2,2.2-5.2,4.1-6c13.4-5.1,11.5-6.5,19.8,5.6c3.1,4.6,5.1,10,7.4,15.2c1.1,2.5,1.6,5.4,5.3,4.6c3.4-0.7,4.9-2.9,5.2-6.4
	c0.6-7.8,1.3-15.6,2-23.4c0.4-4.5,1.9-7.9,6.9-9c8.7-1.9,11.7-1.6,14.8,4.1c3.8,6.8,6.9,14,10.1,21.1c1.2,2.7,2.2,4.6,5.8,3.6
	c3.3-0.9,6-0.9,6.1-5.9c0.3-7.3,1.3-14.5,2.9-21.7c0.9-5.1,5.2-9,10.4-9.2c5.6-0.4,9.6,1.8,12.1,7.7c2.8,6.6,5.2,13.3,7.5,20.1
	c1,2.8,2.2,4.7,5.6,4.3c3.1-0.4,4.8-1.5,5-5c0.6-9.2,4.2-17.2,9.3-24.9c3.5-5.2,8.2-4,12.9-4.2c4-0.1,5.5,2.8,6.4,5.9
	c2.2,7.5,4.5,15,6,22.6c1,5.2,4.5,5.6,8,5.1c1.5-0.2,3-3.2,3.8-5.2c2.4-6.5,4.1-13.2,6.8-19.6c2.4-5.6,7-7.6,13.4-6.9
	c9.8,1.1,10.2,0.7,12.2,10.2c1.4,6.6,1.8,13.5,2.4,20.3c0.3,2.7,0.6,5,3.8,5.5c3.5,0.6,4.2-1.9,5.6-4.3c4.8-8.1,9.5-16.4,15.1-23.9
	c3.4-4.5,15.3-0.6,16.7,5.5c1.4,5.9,1.7,12.1,2.4,18.2c0.3,2.5,0,5.1,0.5,7.4c0.4,1.9,1.8,3.5,2.8,5.2c1.9-1.1,4.4-1.8,5.5-3.4
	c3.7-5.1,6.8-10.7,10.2-16c6-9,8.1-9.5,18.1-5.8c5.1,1.9,7.5,5.5,7.5,10.6c0,7-0.3,14-0.7,20.9c-0.2,3.1-0.6,5.9,3.2,7.3
	c3.6,1.4,5-0.6,6.9-3c4.6-5.9,9.2-11.8,14.1-17.5c4-4.7,7.8-5.2,13.9-3c5.1,1.8,6.2,5.6,5.8,10.3c-0.6,7.8-1.1,15.6-1.7,23.4
	c-0.2,2.5-0.8,4.9,2.4,6.3c3.2,1.4,5.2,0.5,7.4-2c4.7-5.2,9.4-10.3,14.4-15.2c4.6-4.8,12-5.4,17.3-1.4c3.2,2.4,4.7,5.4,3.8,9.5
	c-1.7,7.6-3.1,15.3-4.6,23c-0.2,0.5-0.2,1-0.2,1.5c0.6,2,0.9,5,2.3,5.8c1.2,0.7,4.2-0.5,5.8-1.8c6.2-5,12-10.5,18.2-15.5
	c4.2-3.3,8-2.3,12.7,0.6c6.6,4.1,7.4,8.9,5.3,15.5c-2.3,6.9-3.8,14.1-6.2,21c-1,2.9-0.4,4.8,1.9,5.6c1.9,0.5,3.9,0.2,5.5-0.8
	c7-4.6,13.5-10.3,20.8-14.2c8-4.2,17.3,2.5,17,11.7c-0.3,7.9-2.9,15.5-7.5,21.9c-0.6,0.8-1.2,1.6-1.8,2.4c-2.2,2.6-2.1,5.1,0.4,7.5
	s4.5,1.1,7-0.4c7-4.1,13.9-8.5,21.5-11.1c9.9-3.4,18,4.7,15.9,14.9c-1.7,7.9-5.4,15.1-10.7,21.1c-1.2,1.4-2.4,4.6-1.7,5.6
	c1.9,2.6,4.1,5.6,8.5,3.2c5.3-2.7,10.8-5.1,16.3-7.2c2.4-1,5-1.7,7.7-2.1c9.4-1.1,15.3,6,12.6,15.1c-2.4,8-6.3,15.1-12.5,20.6
	c-2.9,2.6-4.3,4.9-1.6,8.5c2.7,3.5,5.3,1.5,8.3,0.3c6.7-2.7,13.6-5.1,20.7-7c6.1-1.6,10,2.3,12.9,7.2c2.8,4.7,2.4,9.1-1,13.4
	c-4.7,6.1-9.1,12.3-14,18.2c-2.2,2.6-2,5.1,0.2,6.9c1.1,0.9,4,0.8,5.6,0.1c8-3.4,16.1-5.3,24.8-4.1c8.1,1.2,12.6,10.1,7.7,16.8
	c-4.6,6.4-10.4,12-16,17.6c-2.3,2.2-3.9,3.9-2.3,7.1c1.6,3.3,3.8,3.2,7,2.7c7.7-1.2,15.4-2,23.2-2.6c5.9-0.4,8.4,3.7,10.2,8.5
	c1.7,4.5,1.2,8.4-2.7,11.7c-5.9,5.1-11.6,10.5-17.9,15.2c-4.5,3.4-2,6.7-0.9,10.1s4,2,6.3,2.1c8.3,0.1,16.5,0.1,24.8,0.6
	c4.9,0.3,7,3.8,7.9,8.3c0.9,4.5,0.2,8.7-4,11.4c-6.4,4.1-13.1,8-19.4,12.3c-1.6,1.1-3.1,3.5-3,5.3c0.1,2.9,1.4,5.7,5.3,6
	c7.5,0.7,14.9,1.8,22.3,2.6c5.4,0.6,9.1,3.4,10.4,8.6c1.3,5.5-0.3,10.5-5,13.7c-6.1,4-12.5,7.7-19,11c-3.4,1.8-4.5,4-3.7,7.6
	c0.8,3.9,3.1,4.7,6.7,5.2c7.5,1.1,15.1,2.3,22.3,4.8c8.4,3,9.5,15.7,1.8,20.2c-6.8,3.9-14.4,6.6-21.9,9c-3.3,1.1-4.8,2.1-4.6,5.6
	c0.2,3.5,1,5.7,5,6.7c8.2,1.9,16.3,4.4,24.1,7.3c7,2.7,4.1,9.3,4.3,14.4c0.2,4.5-2.9,6.3-6.8,7.3c-6.6,1.6-13.2,3.3-19.9,4.8
	c-3.2,0.7-6,1.5-6.2,5.3c-0.3,4.3,3.4,4.3,6.1,5.2c5.6,2,11.3,3.8,17,6c5.9,2.2,9.2,7,9.2,12.9c0,5.9-2.5,10.1-9.2,12
	c-6.9,2-14.3,2.7-21.3,4.4c-2.3,0.5-4.2,2.4-6.3,3.7c1.5,1.9,2.6,4.3,4.5,5.6c7.3,4.6,14.9,8.6,22.1,13.3c2,1.3,2.8,4.3,4.2,6.6
	l-1.3,1.4c-1.3-0.5-3.5-0.6-3.8-1.5c-2.7-8-9.8-10.4-16.3-13.7c-1.5-0.7-3.1-1.2-4.7-1.6c-7.8-2.3-10.5-8.2-6.7-15.4
	c0.7-1.2,3.2-1.8,5-2.1c7.8-1.4,15.7-2.4,23.5-3.9c6-1.1,5.7-6.6,5.8-10.8c0-2.3-2.3-5.7-4.5-6.7c-6.8-3.1-13.8-5.7-20.9-8
	c-5.2-1.8-8.2-8.7-5.1-13.1c0.6-0.9,2.2-1.2,3.4-1.5c7.6-2,15.1-4,22.7-5.7c5.3-1.2,5.9-4.9,6.2-9.4s-1.3-7-5.5-8.1
	c-6.7-1.8-13.4-3.9-20.2-5.4c-6.5-1.3-7.6-2.2-7.7-8.6c0-1.7,0.1-3.3,0-5c-0.2-3,1.2-4.1,4.1-5c7.4-2.3,14.7-5,21.8-8
	c3.6-1.5,5.5-4.8,5.1-8.9s-3.2-6.7-7-7.4c-7.1-1.4-14.3-2.4-21.6-3.1c-3.8-0.3-5.9-1.3-6.3-5.3c-0.4-4-2.8-9-1.2-12
	c1.3-2.6,7-2.8,10.6-4.5c4.5-2.2,8.8-4.7,13-7.4c3.7-2.3,5.7-5.6,4.6-10.2c-1-4.4-4.5-6.1-8.5-6.7c-6.7-0.9-13.5-1.6-20.3-2.1
	c-6.1-0.4-12.5-10.2-10-15.8c0.5-1.2,2.5-2,3.9-2.5c8-2.6,15.1-7.3,20.6-13.6c3.8-4.3,3.7-7-1.2-10.2c-7.8-5.2-16.5-4.2-25.1-2.3
	c-1.3,0.3-2.5,0.8-3.8,1.1c-3,0.8-4.9-0.2-5.6-3.2c-0.1-0.3-0.1-0.7-0.2-1c-1-4.2-3.8-8.8-2.7-12.3c0.9-3,6.5-4.3,9.5-7
	c4.2-3.7,8.2-7.8,11.9-12c2.6-2.9,2.6-6.3,0.8-9.8s-4.7-4-8.1-3.4c-7.5,1.2-15,2.4-22.5,4c-2.8,0.6-4.9,0.4-6.2-2.4
	c-0.3-0.6-0.6-1.2-0.9-1.8c-3.5-8.5-6.5-8.9,4-15.8c5.1-3.3,9-8.8,12.7-13.8c2.4-3.2,2.1-7.4-0.5-10.7c-2.4-3.1-5.8-2.6-9.2-1.7
	c-7.4,2-14.9,3.7-22.2,5.8c-2.6,0.7-3.9,0.2-5.2-2.1c-4.8-8.3-4.9-8.7,1.5-16c3.3-3.7,7.1-7.2,9.8-11.3c2-3.2,3-6.8,2.9-10.5
	c-0.3-5.1-5.2-7.9-10.4-6.3c-7,2.2-13.8,4.9-20.5,7.6c-5.8,2.4-6.5,2-11.3-4.2c-3-3.9-2.6-6.5,0.5-10.3c5-5.9,9.3-12.4,12.9-19.2
	c3.8-7.6-1.2-13.2-9.6-11.8c-8.8,1.4-16.2,5.8-23,11.4c-1.1,0.9-2.4,1.7-3.8,2.6c-2.9-3.5-5.7-6.7-8.3-10.2c-2.2-3-1.3-5.6,0.8-8.6
	c4-5.7,7.7-11.6,11.1-17.6c2.4-4.2,0.6-8.1-2.5-11.3c-2.5-3-6.7-3.7-10.1-1.7c-6.6,3.4-13,7.2-19.2,11.2c-2.9,2-5.1,3.4-8.4,0.9
	c-6.5-4.9-7.4-6.5-5.3-11.2c3.1-7,6.2-14,9.2-21c1.7-3.4,0.9-7.5-2.1-10c-3-2.8-6.6-3.7-10.1-1.4c-6.2,4.1-12.3,8.4-18.1,13
	c-4.6,3.7-14.4,1.2-15.8-4.5c-0.3-1.4,0.8-3,1.3-4.6c2.3-7.6,5.2-15,6.6-22.8c0.5-2.8-1.7-7.4-4.1-9.2c-1.8-1.4-6.8-0.7-8.9,0.9
	c-6.1,4.6-11.8,9.6-17,15.1c-2.6,2.7-4.4,3.9-7.9,1.6c-8.8-5.6-8.4-5.3-5.1-15.3c2.1-6.4,2.9-13.3,3.6-20c0.2-1.7-1.8-4.1-3.3-5.3
	c-2.5-2-5.6-3.2-8.7-0.9c-6.9,5-13.7,10-17.5,18.1c-0.9,1.7-2,3.3-3.1,4.8l-13.1-6.4c1.2-10,2.5-19.1,3.3-28.2
	c0.3-3.7-0.7-7.3-5.1-8.7c-4.2-1.4-7.2,0.7-9.6,3.6c-5.2,6.3-10.4,12.6-15.1,19.1c-1.8,2.4-3,2.7-5.6,1.6c-10.8-4.3-10.4-4.2-9-15.7
	c0.7-5.9,0.4-11.9-0.6-17.8c-1.3-7.8-8.4-10-14.8-5.3c-6.5,4.8-9.7,11.7-11.9,19.2c-1.4,4.8-4.1,6.7-9.3,5.6
	c-6.9-1.5-7.4-1.9-7.6-9.1c-0.2-7-0.2-14-1.3-20.9c-0.4-2.7-3-6.3-5.5-7.3c-2.2-0.9-6.2,0.5-8.3,2.3c-6.4,5.4-9.9,12.8-12,20.9
	c-1.7,6.4-9.9,8.9-14.6,4.3c-1.3-1.2-1.3-3.9-1.6-5.9c-1-7.2-1.6-14.5-2.9-21.6c-1-5.1-5.9-8.5-11.1-7.5c-3.2,0.6-5.9,2.9-7,5.9
	c-2.7,6.8-5,13.7-6.9,20.7c-1,4.1-2.5,6.4-6.9,5.7c-0.2,0-0.3,0-0.5,0c-11.3-0.9-10,1.1-11.6-10.6c-0.8-6-2.9-11.9-4.8-17.7
	c-1.2-3.8-4.5-6.6-8.3-5.7c-2.8,0.6-6.2,3.2-7.2,5.7c-2.7,7.5-4.8,15.1-6.2,22.9c-0.8,4.1-2.3,5.7-6.3,5.9
	c-11.5,0.6-11.1,0.6-13.7-10.6c-1.3-5.8-3.8-11.3-6.1-16.8c-1.3-3.1-3.7-5-7.4-4.7c-4,0.3-6.9,2.3-7.7,6c-1,4.9-1.7,9.8-2.2,14.8
	c-0.4,2.7-0.6,5.3-0.7,8c-0.1,5.3-3,7.7-8,8.4c-7.6,1.2-8.6,0.6-11.6-6.5c-2.7-6.3-5.4-12.5-8.5-18.6c-1.7-3.7-5.7-5.6-9.6-4.6
	c-4.2,0.8-5.5,3.9-5.8,7.7c-0.8,8.4-1.3,16.8-2.3,25.1c-0.2,1.8-2.2,3.5-3.5,5.1c-0.3,0.4-1.2,0.5-1.9,0.6c-9.3,2-8.8,1.8-12.3-6.9
	c-2.3-5.9-6-11.4-9.4-16.9c-1.8-2.9-4.6-4-8.2-2.9c-3.9,1.1-7.5,2.1-7.7,7c-0.2,6-0.9,12-0.4,17.9c1.2,13.6,3.5,11.2-11.6,16.8
	c-4.6-7.2-9.1-14.5-13.8-21.7c-4.1-6.1-6.1-6.8-12.3-3c-2.2,1.4-4.6,4.6-4.6,6.9c0.2,7.6,1.1,15.2,2.6,22.6c0.9,4.1,0.7,6.4-3.5,8.2
	c-9.3,4.2-9,4.2-15.6-3.7c-3.9-4.7-8.5-8.9-12.8-13.3c-2.5-2.6-5.4-3-8.6-1.1c-3.5,2.1-7.1,4.3-5.9,9.2c2.1,9.3,4.4,18.7,6.8,28.8
	c-2.5,1.5-5.9,3.5-9.3,5.5c-3.1,1.7-4.3-0.6-6.1-2.5c-5.4-5.6-10.8-11.2-16.8-16.1c-1.9-1.5-6.3-1.7-8.5-0.6c-1.9,1-3.4,4.7-3.5,7.3
	c-0.3,8.3,2.2,16,6,23.4c1.2,2.3,2.2,6.4,1.1,7.6c-2.8,3-6.8,5-10.6,6.8c-0.8,0.4-2.9-1.7-4.3-2.8c-6.1-4.8-12.1-9.8-18.3-14.4
	c-3.1-2.3-6.7-1.5-9.8,0.7c-3.1,2.3-4,4.9-3.4,8.7c1.3,8.7,3.6,16.9,9.9,23.5c3,3.1,2.5,5.9-0.9,8.3c-1.3,0.8-2.5,1.7-3.6,2.7
	c-3.2,3-6,2.6-9-0.4c-5.6-5.7-12.7-9.9-20.5-12c-6.6-1.8-13.3,4-10.9,10.3c3,7.5,6.8,14.6,11.3,21.3c3,4.6,3.7,5.7-0.3,9.6
	c-2.4,2.3-4.8,4.5-6.8,5.2c-8.4-3.7-16.8-7.5-25.3-11c-3.4-1.4-7.2-1.1-8.7,2.4c-1.2,2.9-2,7.2-0.7,9.7c3.5,6.7,8.2,12.9,12.6,19.2
	c2.2,3.1,3.5,6,0.7,9.5c-4.1,5.4-4.6,5.6-10.4,2c-6.8-4.2-13.9-7.2-22-7.1c-6.9,0-10.3,4-7.7,10.3c2.2,5.1,5.7,9.7,9.3,14
	c10,11.8,10.9,9.3,1.3,22.8c-9.6-2-18.6-3.9-27.6-5.7c-3.7-0.7-6.5,0.9-8.3,4.2c-1.8,3.5-1.6,7.1,1,9.8c4.8,5,9.6,10.2,15.2,14.3
	c4.4,3.2,5.7,6.1,2.8,10.7c-0.3,0.6-0.6,1.2-0.8,1.8c-3.3,7-3.3,6.6-10.9,5.1c-7.1-1.3-14.2-2.1-21.4-2.5c-6.6-0.4-9.7,5.5-6.2,11.4
	c3.9,6.5,9.6,11.6,16.5,14.8c6.5,3.1,6.7,3.7,4.7,10.8c-0.4,1.3-0.9,2.5-1.1,3.8c-0.9,4.5-4,5-7.9,4.6c-5.9-0.6-11.9-1.2-17.8-1
	c-4.5,0.2-9.8,0.3-11.8,5.7c-2.1,5.7,2.4,8.8,5.9,11.5c6.3,4.7,13.2,8.8,20.5,13.5c-0.2-0.7,0-0.4,0-0.1c-4.5,14.9-1,13-17,13.3
	c-4.3,0.1-8.6,0.7-12.9,1.1c-5.4,0.5-7.8,4.1-8.7,8.8c-0.8,4.4,2,6.6,5.6,8.3c6.3,3.1,12.5,6.3,18.7,9.5c4.8,2.4,5.2,4.2,3.6,11.8
	c-0.9,4.4-4,4.3-7.2,4.2c-8-0.5-16,1.3-23.1,5c-6.1,3.3-6.5,9.9-0.8,13.8c6.7,4.7,13.6,8.8,22.1,9.8c4.6,0.5,5.3,3,4.8,10.8
	c-0.3,3.7-2.1,4.8-5.7,5.4c-7.3,1.3-14.6,2.9-21.7,4.9c-3.5,1-6.3,3.2-6.2,7.5c0,4.2,2.5,6.2,6.2,7.4c6.8,2.2,13.5,4.6,20.4,6.7
	c4.9,1.5,8.3,8.8,5.4,13c-0.8,1.1-2.8,1.4-4.2,2c-7.2,2.9-14.8,5-21.5,8.8c-7.8,4.5-7.3,12,1,15.3c6.8,2.7,14.3,4,21.6,5.1
	c3.9,0.6,5.9,1.2,6.5,5.6c1.5,11.3,1.6,11.1-8.9,15.1c-4.5,1.7-8.8,3.9-12.9,6.5c-7.5,4.7-8.2,8.7-3.4,16.2c-5,1.7-7.2-1.3-7-5.2
	c0.2-3.5,1.4-8.2,3.9-10c6.2-4.5,13.3-8,20.3-11.3c3-1.5,5.8-2.3,5.5-6.4c-0.3-4.2-2.3-5.7-6-6.6c-6.8-1.5-13.6-3.3-20.3-5.3
	c-5.5-1.6-8.5-5.6-9.1-11.3c-0.4-4.5,1-8.1,5.6-10.1c6.7-2.9,13.4-6,20-9c1.2-0.5,2.6-0.9,3.5-1.8c1.1-1.1,2.2-2.6,2.2-4
	c0-0.8-1.9-2.1-3.2-2.5c-6.8-2.2-13.7-4.1-20.5-6.2c-4.3-1.2-7.6-4.5-8.7-8.8c-1.5-5.6-0.2-9.8,5.1-11.8c7.4-2.8,15-5.2,22.7-7
	c3-0.7,5.5-1.1,5.9-4.7s-2.2-4-4.8-5c-7.2-2.8-14.6-5.6-21.3-9.4c-7.6-4.4-6.6-15.4,1-19.7c7.4-4.2,15.7-6.5,24.2-6.9
	c1.7-0.1,3.3-1.9,5-2.9c-1.1-1.8-1.9-4.2-3.5-5.3c-6.2-3.9-12.9-6.9-19-10.9c-6.1-4-6.5-7.3-4.7-14.8c1.4-5.8,5.5-6.9,10.4-7.4
	c6.8-0.8,13.6-1.4,20.3-2.7c2.4-0.5,4.3-2.9,6.5-4.4c-1.6-1.8-2.9-4-4.8-5.4c-6.3-5-13.3-9.4-19.2-14.9c-5.6-5.2-3.6-12.5,3.4-15.8
	c7.6-3.5,15.6-3.6,23.5-2.5c8.6,1.2,9.1,0.8,11.1-7.3c-7.2-6.4-14-12.6-21-18.7c-3.7-3.2-4.2-6.8-2.6-11.2c1.7-4.7,4.6-8.1,9.7-7.9
	c7.9,0.4,15.8,1.4,23.7,2.5c2.8,0.4,5.1,1.2,6.7-2.2c1.4-3,1.6-5.2-1.2-7.9c-5.6-5.2-10.8-10.9-16-16.4c-3.7-3.9-3.6-8.2-1.1-12.8
	c2.5-4.6,6-7.4,11.7-6.3c7.3,1.5,14.7,3,22.1,4.1c1.9,0.3,4.7-0.1,6-1.3c2.3-2.2,1.4-5-0.5-7.6c-4.4-5.9-8.6-11.9-12.8-17.9
	c-3.1-4.5-4.6-9.3-1.3-14.4c3.2-4.9,8.2-5.7,13.3-4.4c6.5,1.7,12.9,4.2,19.4,6c2.1,0.6,4.5,0,6.8-0.1c-0.6-2-1.4-3.9-2.3-5.7
	c-3.6-6.3-7.9-12.2-11.1-18.7c-2.9-6-1-12.6,4.3-16.5c1.9-1.1,4.2-1.4,6.3-0.8c7.5,2.6,15,5.6,22.3,8.7c6,2.6,6.3,2.7,9.4-1.9
	c-4.1-9-8.4-17.2-11.6-25.9c-3.5-9.5,4.4-18.2,14-15.2c7.1,2.2,13.9,6.1,20.2,10.2c6.3,4.1,6.2,4.5,11.5-1.4
	c-6.6-7.4-10-16.2-11.3-26c-1-7.5,0.9-12.6,7-14.9c3-1.1,7.5-1.2,10.2,0.4c6.9,4,13.2,9,19.5,13.8c2.5,1.9,4.7,3,7.6,0.9
	s2.4-4.7,1.3-7.5c-2-5.3-4.2-10.5-5.9-15.9c-1-3.2-1.4-6.5-1.3-9.8c0.4-8.8,8.4-14.5,16.1-10.1c7.2,4.1,13,10.6,19.6,15.9
	c1.4,1.1,3.3,2.6,4.8,2.4c2.6-0.3,4.2-2.2,3.4-5.5c-1.5-6.3-2.8-12.7-4-19c-0.5-2.6-0.7-5.3-0.5-8c0.7-8.6,10-14,17.1-9.2
	c6,4.2,11.4,9.2,16,14.8C873.5,321,873,321.4,879.3,317.5z"/>
<path class="st0" d="M1503.1,833.7c1.4-10,2.8-20,4.3-30c6.3-39,6.4-78.8,0.2-117.9c-3.7-23.2-6.6-46.4-13.6-69
	c-15.1-48.1-35.7-93.7-65.4-134.5c-35.1-48.3-77.9-88.3-129.5-119.3c-44.6-26.9-91.6-46.5-142.6-56.3c-40.3-7.7-81.5-9.7-122.3-5.9
	c-39.2,3.6-77.5,11.4-113.8,26.6c-47.9,20-93.6,44.3-132.7,79.2c-29.7,26.6-55.9,56.8-78.1,89.9c-32.4,47.8-54.3,102-64,159
	c-5.4,31-10.4,62.3-8.1,93.9c1.9,27.2,5.4,54.3,8.2,81.4c0.1,1,0.2,1.9,0.3,2.9l-1.6,0.7c-0.6-1.5-1.6-3-1.9-4.6
	c-1.7-12-3.9-24-4.8-36.1c-1.6-20.3-3.6-40.5-3.2-60.8c1.1-66.8,15.7-130.6,45.7-190.6c20.3-40.5,45.2-78,77.1-110
	c67.2-67.7,146.7-113.2,241.6-129.3c87.2-14.8,171.6-5.8,252.2,31.4c31.9,14.7,63,31.1,90.6,53.3c58.1,46.7,103.5,103.3,133.7,171.7
	c16.5,36.8,27.8,75.7,33.8,115.5c5.7,38.6,7.6,77.2,3.6,116c-1.4,13.7-4.8,27.2-7.4,40.7c-0.3,0.8-0.6,1.7-1.1,2.4L1503.1,833.7z"/>
<path class="st0" d="M634.3,834.2c-0.6-1.4-1.5-2.8-1.7-4.2c-2.5-17.6-5.9-35.2-7.2-52.9c-3.6-45.9-1-91.6,9.1-136.6
	c14.3-63.4,41.1-120.9,79.7-173.3c31.6-43,70.8-77.5,114.7-107.3c59.4-40.3,124.8-64,195.9-71.5c94.2-9.8,184.1,6.1,266.8,53.6
	c88.8,51,154.3,123.5,195.5,217.7c18.7,42.8,30.6,88.2,35.2,134.6c4.5,45.3,3.6,90.4-5.1,135.2c-0.3,1.5-0.8,2.9-1.2,4.4l-1.2-0.2
	c-0.1-1-0.1-1.9,0-2.9c5.5-29.1,8.2-58.8,8.1-88.4c-0.4-53.2-8.8-105.2-26.9-155.2c-20.7-57-51.2-108.7-92.4-153.5
	c-27.5-29.9-59.5-54.6-93.6-76.9c-49.7-32.5-103.9-53.5-162.3-62.4c-121.9-18.6-233.8,6.4-334.2,79.5
	c-74.7,54.3-128,124.6-159.4,211.2c-15.3,42.2-25.6,85.8-26.7,131c-0.9,38.5,0.6,76.9,8.2,114.9c0.2,0.8,0.3,1.5,0.4,2.3
	L634.3,834.2z"/>
<path class="st0" d="M1425.3,833.5c2.3-12.2,4.9-24.4,6.8-36.7c6.6-42.9,4.7-85.6-4-128.1c-12.5-61.7-40.7-119.1-81.9-166.7
	c-56.6-65.9-128.5-106.9-214.5-120.4c-98-15.3-188.3,5.9-269.4,63.5c-27.9,19.8-50.4,45.3-72.2,71.6c-34.4,41.4-54.3,89.5-68,140.8
	c-9.9,36.9-11,74.2-8.5,112c1.4,20.4,4.7,40.7,9.8,60.5c0.3,1.2,0.4,2.5,0.6,3.7l-1.6,0.7c-0.9-1.5-1.6-3.1-2.2-4.8
	c-5.2-20.7-8-41.8-9.7-63.1c-5.3-66.5,8.1-129.4,37.5-188.6c29.4-59.3,71.6-108.6,127.1-145.4c36.7-24.3,77.2-40.2,120.2-49.6
	c96.5-21.1,187.6-6.2,271,46c62.9,39.4,109.6,94.2,139.9,162.8c22.3,50.6,33.4,103,32.5,158c-0.4,27-3.8,53.9-10,80.1
	c-0.5,1.6-1.2,3.1-2.1,4.5L1425.3,833.5z"/>
<path class="st0" d="M1345.3,453.9c-2.2-2.6-4.4-4.7-6-7.2c-0.9-1.5-0.8-3.6-1.2-5.4c2.2,0,5.1-1,6.6,0.1c4.6,3.3,8.6,7.3,12.7,11
	c-4.1,10.2-19.3,17-29.5,12.7c-12-5-19.4-13.8-20.1-27.2c-0.7-12.9,5.1-22.7,16.4-28.5c11.5-6,23-4.9,33.2,3.1
	c5.9,4.6,10,10.7,10.4,18.6c0.1,2.8,0.9,6.6-3.4,7c-4.1,0.5-4.5-3-5.1-6c-2.5-12.4-10.2-18.7-22.3-18.2c-10.2,0.4-19,9.1-21.2,20.7
	c-1.5,8,4.4,17.7,13,21.5C1334.3,458.5,1338.3,458,1345.3,453.9z"/>
<path class="st0" d="M808.5,467.2c-15.6,0-30.5-14.8-30.3-30c0.2-16.6,13.9-30.2,30.3-30.2c16.1,0,30,13.7,30,29.3
	C838.5,453.4,825,467.2,808.5,467.2z M808.4,414.7c-12.1,0.4-21.2,10.3-20.9,22.7c0.4,12.4,9.9,21.9,21.5,21.6
	c12.5-0.2,21.8-9.7,21.5-22C830.2,424.4,820.3,414.3,808.4,414.7L808.4,414.7z"/>
<path class="st0" d="M1473.3,812.2c-18.2-0.8-30.2-14.3-29.3-33.2c0.7-14.1,12.1-29.5,31.7-28.2c17.6,1.2,29.2,14.5,28.4,33.6
	C1503.5,799,1490.7,814,1473.3,812.2z M1474,804.1c12.2,0.5,22.5-8.9,23-21.1c0-0.1,0-0.2,0-0.3c0.4-13.1-10.1-24.3-23-24.5
	c-12.2-0.2-22.1,9.7-22.4,22.6C1451.1,794.3,1460.2,803.7,1474,804.1L1474,804.1z"/>
<path class="st0" d="M726.2,606.1L673.8,582l0.1-1.4l54.2-20.3c-1-0.9-2.2-1.6-3.3-2.3c-9.3-4.6-18.5-9-27.8-13.6
	c-5.1-2.5-5.2-3.2-1.5-8.8l52.8,23.6c0,0.5,0.1,1,0.1,1.4l-55.1,21.8c10.9,4.9,20.9,9.4,31,13.8
	C730.4,599.1,730.7,600.2,726.2,606.1z"/>
<path class="st0" d="M719.1,628.9c-0.3,17.8-13.7,31.4-30.8,31.2c-15.4-0.2-28.5-13.8-28.3-29.7c0.2-17,14-30.8,30.5-30.4
	C706,600.4,719.3,613.9,719.1,628.9z M711.2,629.7c0-13.3-8.2-21.6-21.3-21.7c-11.7-0.1-22.7,10.6-22.7,22.1s10.4,21.9,22.2,21.9
	C702.9,652,711.2,643.6,711.2,629.7z"/>
<path class="st0" d="M643.5,758.8l41.5-40.2l-0.4-1.1H666h-17.5c-3.1,0-4.4-2-3.8-4.5c0.3-1.4,2.4-3.3,3.7-3.3
	c17.6,0.1,35.3,0.6,52.9,0.9c0.5,0.1,0.9,0.3,1.3,0.6L662.2,753h6.3c9.5,0,19-0.2,28.5,0.2c1.5,0,3,2.2,4.5,3.3
	c-1.3,1.1-2.6,3.2-4,3.2c-17.3,0.2-34.6,0.1-52,0.1C645,759.8,644.6,759.4,643.5,758.8z"/>
<path class="st0" d="M1475,744.2c-17.8,0-29.9-12.6-29.9-31.1c0.1-14.3,14.8-28,29.9-27.9c17.3,0.1,29.4,12.4,29.4,29.8
	C1504.5,732.9,1493.2,744.2,1475,744.2z M1453,714.7c0,13.6,8.9,22.4,22.6,22.4c11.3,0,22.3-10.9,22.4-22.1
	c0.1-11.1-10.8-22.5-21.3-22.5C1462.8,692.4,1453,701.6,1453,714.7L1453,714.7z"/>
<path class="st0" d="M1108.8,345.4v-33.9c0-2.7-0.4-5.7,3.7-5.5c3.8,0.2,3.3,3.1,3.2,5.5c-0.1,16.7-0.2,33.3-0.3,50
	c0,1-0.2,1.9-0.3,4l-40.4-42.5c-0.3,3.1-0.6,5-0.6,6.8c0,9.7,0,19.3,0,29c0,6.2-0.5,6.5-7,5v-59.6l40.2,42.3L1108.8,345.4z"/>
<path class="st0" d="M1387.8,480.9c4.6-3.9,8.8-7.4,13-11c5.1-4.4,5.9-4.3,9,2.2c-10.7,9.7-21.6,19.5-32.4,29.3
	c-2,1.8-4,3.5-5.8,5.4c-2.3,2.4-4.7,4-7.5,0.8s0-4.7,1.9-6.5l15.8-14.5c-4.9-6.2-9.5-12.4-14.5-18.3c-0.7-0.8-3.8-0.6-4.9,0.3
	c-4.9,3.9-9.5,8.3-14.3,12.4c-1.7,1.5-3.6,4-6.3,1c-2.4-2.7-1.1-4.5,1.2-6.6c11.6-10.7,23.1-21.6,34.6-32.4c1-0.9,2.1-2.4,3.1-2.4
	c2.1-0.1,4.1,0.5,5.9,1.5c0.6,0.4,0.1,3.8-0.9,4.8c-3.5,3.5-7.2,6.9-11,10.1c-2.9,2.5-3.7,4.8-0.8,7.9
	C1378.6,470,1382.9,475.2,1387.8,480.9z"/>
<path class="st0" d="M1475,669.8c6.9-1.1,13.1-2.2,19.4-2.8c1.5-0.1,3.2,1.6,4.8,2.5c-1.1,1.7-2,4.6-3.5,4.9
	c-16.4,3.7-32.8,7.1-49.3,10.2c-1.2,0.2-3.6-1.9-4.2-3.4c-0.4-0.9,1.4-3.7,2.7-4c6.3-1.7,12.6-2.9,19-4c3.4-0.6,4.5-2.3,3.9-5.5
	c-1.2-5.7-2.4-11.4-3.4-17.1c-0.7-3.8-2.4-5.1-6.2-4.1c-5.5,1.3-11.1,2.3-16.6,3.4c-2.7,0.5-5.5,1.1-6.4-2.6s2-4,4.5-4.5
	c15.6-3.4,31.2-7,46.8-10.2c1.5-0.3,3.4,1.5,5.1,2.3c-1.1,1.7-1.9,4.4-3.5,4.9c-4.6,1.4-9.3,2.5-14.1,3.2c-3,0.6-4.6,2.1-4,5.1
	C1471.6,655.2,1473.3,662.2,1475,669.8z"/>
<path class="st0" d="M1277.1,358l5.5,3.9c-3.7,6.9-7.2,13.7-10.9,20.6c6.4,3.8,12.6,7.5,18.6,11.2c2.7,1.7,4.4,0.5,5.8-1.6
	c2.5-3.7,5-7.4,7.5-11.2c3.3-5.2,3.7-5.3,8.8-0.3c-1.3,2.1-2.7,4.3-4.1,6.5c-6.8,11.4-13.7,22.8-20.5,34.2c-0.9,1.6-1.7,3.5-3.1,4.4
	c-1.6,1-3.8,1-5.8,1.4c-0.1-1.9-1.1-4.3-0.3-5.7c2.7-5.1,6-9.9,9.1-14.9c0.8-1.4,1.6-2.8,2.6-4.5c-6.9-4.2-13.5-8.3-20.3-12
	c-0.9-0.5-3.7,0.7-4.5,1.9c-3.5,5.2-6.7,10.7-9.8,16.2c-1.3,2.3-3,3.7-5.6,2.3c-2.6-1.5-2.6-3.6-1.1-5.9c0.4-0.7,0.8-1.4,1.3-2.1
	L1277.1,358z"/>
<path class="st0" d="M1025,367.9l-6.5,1.1c-0.8-7.1-1.6-14-2.3-20.8c-1.1-10.9-2-21.9-3.1-32.8c-0.3-2.8-0.5-5.7,3.3-6.1
	s3.6,2.6,3.9,5.1c0.5,4.8,1,9.6,1.4,14.4c0.2,3.5,2,4.6,5.3,4.2c5.9-0.7,11.9-1.4,17.9-1.9c3.2-0.3,4.4-1.8,4-4.9
	c-0.5-5-1.2-9.9-1.3-14.9c0-1.6,1.2-4.4,2.4-4.8c2.6-0.8,3.9,0.9,4.2,3.8c1.7,16.7,3.6,33.4,5.5,50.1c0.3,2.7-0.2,4.6-3.4,4.8
	c-2.9,0.2-4.3-0.8-4.5-3.9c-0.5-6.5-1.3-12.9-1.7-19.4c-0.2-3-1.5-4.1-4.4-3.8c-6.3,0.6-12.6,1.3-18.9,1.8c-3.7,0.3-3.6,2.6-3.4,5.3
	C1024,352.6,1024.5,360,1025,367.9z"/>
<path class="st0" d="M671.3,795.6c-1.2-7.5-2.4-14.7-3.7-22.4l6.7-1.8c0.9,6,2,11.5,2.6,17.1c0.5,4.4,2.2,6.3,6.8,5.3
	c2.9-0.5,5.9-0.8,8.9-0.9c3.4-0.2,4.7-1.8,4.3-5.2c-0.6-4.8-1.2-9.6-1.8-14.4c-0.3-2.5-0.3-5.3,3-4.9c1.8,0.2,4.5,2.1,4.7,3.6
	c1.3,7.4,2.2,14.8,2.6,22.3c0.1,1.5-2.3,4.4-3.9,4.7c-15.9,2.7-31.9,5-47.8,7.4c-3.1,0.5-4.5-1-4.9-4.1c-0.8-7.1-1.9-14.2-2.8-21.3
	c-0.3-2.6-0.5-5.6,3-5.5c1.3,0.1,3.1,2.8,3.7,4.6c1.1,4,2,8.1,2.6,12.2c0.7,3.8,2.6,5.5,6.6,4.8C665,796.5,667.9,796.1,671.3,795.6z
	"/>
<path class="st0" d="M964.1,380.9l-28.1,9.9c-0.8-1.6-1.5-2.9-2-4.3c-5.4-14.9-10.6-29.8-16.1-44.6c-1.6-4.2-0.7-6.4,3.6-7.9
	c6.3-2.2,12.4-4.9,18.6-7.3c2.2-0.9,4.6-2.7,6.1,1c1.5,3.7-0.2,5.4-3.7,6.5c-4.1,1.3-8,3.2-12.1,4.6s-4.6,3.9-3.1,7.4
	c0.6,1.4,1.3,2.7,1.8,4.1c1.2,3.1,3,4,6.2,2.7c4.3-1.7,8.7-3.2,13.3-4.4c1.6-0.4,4.5,0.2,5.2,1.4c1.5,2.4,0,4.1-2.8,5.1
	c-4.6,1.5-9,3.5-13.5,5.2c-2.9,1.1-3.8,2.7-2.7,5.7c1.3,3.4,2.3,6.9,3.3,10.4c1,3.2,2.7,4.2,6,2.8c3.8-1.6,7.8-2.8,11.8-4.1
	C961.9,373.4,962.4,373.7,964.1,380.9z"/>
<path class="st0" d="M1178.8,370.8c0.4,4.5-0.5,7.4-5.6,7.7c-15.8,0.9-27.6-7.6-31.3-22.9c-3.6-15,3.7-30.2,17.3-36
	c10.5-4.2,22.4-2,30.7,5.7c3.6,3.5,1.1,6.7-0.1,10.7c-2.3-1.8-4.3-3.3-6.4-4.8c-8.3-6.2-16.7-6.7-24.6-1.6c-8.1,5.3-12,15-9.9,24.4
	c1.8,8.2,9.2,14.8,18.3,16.1C1171,370.7,1174.7,370.6,1178.8,370.8z"/>
<path class="st0" d="M1010.2,360.1c2.6,7.1,2.2,8.1-3.9,11.3c-12.7,6.6-28.9,4.1-37.5-5.9c-8.7-10-9.8-29.6-1.5-40.1
	c7.8-9.8,18.3-13.7,30.6-11c2.5,0.5,4.4,4,6.6,6.1l-0.9,1.6c-2.4,0-4.8-0.2-7.1-0.4c-10.2-1.7-20.3,3.3-25,12.5
	c-4.4,8.9-2.2,21,5,27.5c7.7,6.7,18.8,7.7,27.5,2.4C1006.1,362.9,1008.1,361.5,1010.2,360.1z"/>
<path class="st0" d="M742,463.6c4.2-4.4,7.8-8.7,11.9-12.6c6.3-5.9,13.6-6.6,20-2.3c6.6,4.7,9.2,13.3,6.1,20.8
	c-1,2.4-2.3,4.8-3.9,6.9c-2.1,2.9-1.7,5,1,7.3c3.5,3,6.9,6.2,10.4,9.3c2.3,2,3.7,4,1.3,6.7c-2.4,2.7-4.6,0.9-6.5-0.6
	c-6.5-5.6-12.9-11.5-19.4-17.2c-3.5-3.1-6.9-6.2-10.4-9.3C749,469.4,745.4,466.5,742,463.6z M774.3,465.1c-0.4-6-2.6-9.3-7-10.8
	c-3.7-1.3-9.7,1.4-11.7,4.9c-2.2,3.9,1,5.7,3.1,7.9c1.9,2.1,4,4,6.2,5.8c1,0.7,3.5,1.2,3.9,0.6C770.7,470.8,772.6,468,774.3,465.1
	L774.3,465.1z"/>
<path class="st0" d="M1412.6,552.3c3.8,4.2,4.4,7.5,2.7,11.3c-2.1,4.6-1.6,9.3,2.4,12.2c2.8,1.8,6.2,2.5,9.6,1.9
	c4.7-1,6.3-5.4,6.7-10c0.3-3.8,0.7-7.6,1-11.4c0.4-5.8,3-10.2,8.2-12.7c5.4-2.6,10.4-1,14.9,2.4c5.6,4.3,8.4,12.8,6.4,19.3
	c-0.7,2.2-1.4,4.7-4.7,3.7c-2.8-0.8-3.5-2.4-2.8-5.3c0.5-1.9,0.5-3.9,0.2-5.9c-0.8-4.3-4.5-7.3-8.5-6.8c-4.5,0.5-6.8,3.4-7,7.7
	c0,2.8,0.1,5.6,0.4,8.5c0.4,8-3,13.9-10.1,17.4c-5.8,3.1-12.9,2.3-17.9-1.9c-6.2-4.9-8.2-11.7-6.6-19.2
	C1408.2,559.7,1410.6,556.4,1412.6,552.3z"/>
<path class="st0" d="M1441.3,633.4c-4.2,2.7-6.8,2.1-9.1-1.8c-10.9-18.1-7-35,10.7-44.5c10.3-5.5,20.3-4.4,29.6,2.2
	c9.6,6.9,13.7,16.5,12.4,28.2c-0.6,5-4.5,5.5-8.6,5.5c3-12.9-0.8-22.9-10.8-29c-6.4-3.9-17.9-2.5-24.3,3.3
	C1428.3,609.1,1435.2,621.2,1441.3,633.4z"/>
<path class="st0" d="M658.6,661.9c3.5,4,3.3,6.7,1.2,9.7c-1.4,2.1-3.3,4.8-3,7c0.4,2.7,2.2,6,4.5,7.3c1.7,0.9,5.5-0.2,7.4-1.7
	c2.9-2.4,4.9-5.8,7.1-8.9c4.1-5.8,9.2-9.6,16.8-8.2c6.9,1.3,13,7.2,14.3,13.8c1.5,7.7-1.5,16.4-7.3,19.9c-2.3,1.4-5,1.9-7.6,2.8
	c-1.9-4.5-0.4-6.7,2.7-8.6c4.9-3.1,6.4-8.7,4.2-14c-2-4.8-7.6-7-12.3-4.9c-1.3,0.6-2.4,1.4-3.4,2.5c-2.2,2.7-4.2,5.5-6,8.5
	c-5.2,8.2-12.4,10.5-20.3,6.1c-6.9-3.8-10.1-14.1-6.2-21.4C652.5,668.2,655.6,665.5,658.6,661.9z"/>
<path class="st0" d="M847.1,833.6c2.5-1.5,4.5-2.1,5.5-3.4c1.3-1.7,2.8-4.4,2.3-6.1c-3.2-10.9,6.1-30.8,22.5-30
	c6.2,0.3,12.4-0.3,15.9,6.6c0.5,1,2.6,1.3,4,1.6c6,1.5,11.3,5.2,14.9,10.2c4.5,6.3,4.5,9.8,0,16.5c0.7,1.3,1.5,2.7,2.2,4.1l-0.9,1
	c-1.3-1.1-2.9-2-3.8-3.3c-6.5-9-12.9-18.2-19.4-27.2c-4.6-6.3-6.6-6.7-12.3-1.6c-4.3,3.9-8.4,8-12.2,12.4c-4.8,5.6-4.6,7.9,0.4,13.2
	c1.8,1.9,3.9,3.6,6.2,5.7L847.1,833.6z M911.5,825.3l1.8-0.3c-0.1-2.4,0.6-5.4-0.6-7.2c-1.8-2.9-4.8-5.1-7.3-7.6
	c-0.9,1.1-2.8,2.5-2.6,3.2C904.6,818,906.9,822.6,911.5,825.3z"/>
<path class="st0" d="M711.5,833.9h-18l-0.2-0.6c2.6-0.7,5.4-1.1,7.8-2.4c1.2-0.7,2.6-3.1,2.3-4.3c-1-3.4-2.3-6.6-3.9-9.7
	c-2-3.9-5.6-4.6-9.4-3.6c-4.6,1.2-7,4.6-6.9,9.2c0,3.7,0.9,7.4,1.4,11.3h-5.9c-1.7-5.2-4.5-10-11.2-9.5c-5.3,0.4-6.8,4.7-7.2,9.4
	h-6.5c-2.7-11.9,7-18.1,23.1-14.6c0.4-1.2,0.9-2.4,1.4-3.6c2.4-6.3,7.3-9.9,13.5-10c6.7-0.3,12.9,3.7,15.3,10c0.7,2,1.4,4.1,1.8,6.2
	C709.7,825.6,710.5,829.4,711.5,833.9z"/>
<path class="st0" d="M867,387.6c0-8.2,0.1-15.6,0-23c-0.1-4.4,1.8-6.5,7-6.3c0,8.1,0.3,16.2-0.1,24.2c-0.6,7.9,1.7,15.7,6.3,22
	c1.9,2.5,3.5,5.2,4.8,8.1c0.5,1.3-0.6,3.3-0.9,5c-1.8-0.4-3.5-1-5.2-1.6c-0.6-0.3-0.9-1.4-1.2-2.1c-4.7-12-13.7-19.8-24.8-25.4
	c-5.2-2.6-10.3-5.3-15.4-7.9c2.7-5.2,4.6-6,9.1-3.6c5,2.6,9.8,5.6,14.8,8.3C863,386,864.7,386.6,867,387.6z"/>
<path class="st0" d="M890.3,356c-3.8,1.7-6.6,3.2-9.6,4c-1.3,0.3-3-1-4.5-1.6c0.8-1.5,1.1-3.9,2.3-4.5c7.6-4.1,15.4-7.8,23.2-11.5
	c2.1-1,4.2-2.2,5.8,1c1.5,3.2-1,3.7-2.8,4.7c-8.7,5-7.6,3.5-3.6,12.3c4.8,10.6,9.9,21.1,14.5,31.7c1.1,2.5,4.7,6.1-0.5,8.3
	c-5.1,2.2-5.3-2.6-6.6-5.2C902.4,382.3,896.5,369.3,890.3,356z"/>
<path class="st0" d="M853.9,426.5c3.9-2.6,7.2-5.2,10.8-7c1.8-0.6,3.7-0.3,5.3,0.8c2.1,2,1.3,4-1.3,5.6c-4.4,2.7-8.7,5.5-12.9,8.5
	c-3.1,2.3-5.4,1.8-7.5-1.2c-9.8-14-19.7-28-29.4-41.8c4.3-5.4,5.3-5.4,9-0.3C836.5,402.7,845,414.3,853.9,426.5z"/>
<path class="st0" d="M1294.4,436.7c-6.6-3.1-7-4.2-3.3-9.4c8.3-11.6,16.6-23.3,24.9-34.9c0.8-1.1,1.5-2.5,2.6-3
	c1.8-0.7,3.9-0.7,5.8-1c0.1,1.9,0.9,4.4,0,5.7C1314.6,408.4,1304.5,422.5,1294.4,436.7z"/>
<path class="st0" d="M1138.4,312.6c-2.5,18.1-4.9,36.1-7.5,53.9c-0.2,1-2.7,2.7-3.3,2.4c-1.5-0.7-3.5-2.5-3.4-3.7
	c0.3-5.4,1.1-10.9,1.9-16.3c1.5-10.8,2.9-21.7,4.5-32.5C1131.4,310.4,1131.8,310.3,1138.4,312.6z"/>
<path class="st0" d="M1398.4,834.6c2.2-10.4,1.5-12.2-5.5-14.5c-0.8,5,1.3,11.2-5.9,13.5c0.8-1.8,1.8-3.6,2.5-5.5
	c1.4-3.7,0.8-6.8-2.7-9.1c-3.8-2.5-6.1,0.1-7.9,2.6c-2.5,3.7-4.4,7.7-6.8,12.2h-7c3.2-6.2,5.8-12,9.1-17.3c0.9-1.4,4-2.2,6-2
	c4.8,0.7,9.5,1.6,14.1,2.9C1402.1,819.1,1404.4,827.4,1398.4,834.6z"/>
<path class="st0" d="M228.2,200.7c0,18.2-11.7,30-29.9,30.2c-16,0.2-29.1-13.4-29.3-30.5c-0.2-17.2,12.7-30.8,29.2-30.9
	C216.6,169.5,228.1,181.4,228.2,200.7z M198.4,223.2c12.5,0.1,22.4-10,22.6-23c0.2-12.4-10.4-23.2-22.6-23.2
	c-10,0-22.1,12.5-22.2,22.8C176.1,211.4,187.2,223.2,198.4,223.2z"/>
<path class="st0" d="M777.3,182.1c10.2,8.5,19.3,16,28.4,23.5c2.5,2,3.3,4.1,1.1,6.8s-4.1,1-5.9-0.5c-13.7-11.1-27.4-22.2-41.1-33.3
	c-0.6-0.7-1-1.4-1.4-2.2l59.1-6.6c-2.5-2.1-3.9-3.3-5.4-4.4c-7.6-5.9-15.3-11.8-22.8-17.8c-1-0.8-2.4-1.8-2.6-2.9
	c-0.3-1.5,0-3.1,0.9-4.4c1.1-0.8,2.6-0.9,3.9-0.4c15,11.5,29.9,23.2,44.8,34.8l-0.5,1.7L777.3,182.1z"/>
<path class="st0" d="M716.1,261.1c-2.4-5.2-1.4-7.7,1.7-9.8c2.6-1.8,5-3.9,7.5-5.7c4.3-3.1,6.5-2.6,9.3,1.8
	c6.7,10.5,3,27.1-7.9,35.2c-10.3,7.7-24.7,7.3-35.3-1c-10.2-8-14-23.8-8.6-36.3c5.3-12.3,16.5-18.4,29.8-16.5c2.6,0.4,4.5,1,4.4,4.2
	c-0.1,3.4-2.5,3.3-4.9,3.5c-3.8,0.4-7.8,0.4-11.2,1.7c-9.9,3.7-15,13.7-13,24.2c2,10.1,10.9,17.2,21.1,17.1
	c10.3,0,19.6-7.3,21.3-16.9c0.3-1.6,0.3-3.3-0.1-4.9c-0.9-4.1-3-4.7-6.4-2.1C721.5,257.5,719,259.1,716.1,261.1z"/>
<path class="st0" d="M569.7,347.2c-16.4,0.1-29.2-12.9-29.5-29.9c-0.3-16.5,13.2-29.7,30.3-29.7c15.8,0,28.5,13.2,28.7,29.7
	C599.3,335.1,587.6,347,569.7,347.2z M591.7,318c0.3-11.5-10.7-22.6-22.6-22.8c-10.2-0.2-21.6,10.7-21.9,20.9
	c-0.5,12.4,9.9,23.7,21.9,23.9C582.2,340.2,591.3,331.3,591.7,318L591.7,318z"/>
<path class="st0" d="M379.3,279.7c10,16.7,20,33.4,30.7,51.3c2.9-12.1,5.4-22.9,8-33.7c0.2-1,0.5-1.9,0.7-2.9
	c0.5-2.7,1.7-4.3,4.8-3.6c3.3,0.8,2.8,3.3,2.2,5.6c-1.5,6.5-3.1,12.9-4.5,19.4c-2.1,9.2-4.2,18.5-6.3,27.7c-0.4,1.7-1.1,3.4-2,6.4
	l-31.7-50.7c-0.9,3.4-1.5,5.8-2.1,8.2c-2.2,8.7-4.3,17.4-6.6,26.1c-0.6,2.2-0.9,5.4-4.7,4.3c-3.6-1-2.6-3.4-2-6
	c3.8-16.2,7.5-32.4,11.2-48.6c0.3-1.1,0.6-2.1,1-3.2L379.3,279.7z"/>
<path class="st0" d="M787.2,221.3c0,17-12.8,28.9-30.8,28.7c-14.7-0.2-28.7-14.3-28.8-29.1c-0.1-15.7,15.1-30.9,30.7-30.8
	C774.3,190.1,787.2,204.1,787.2,221.3z M735.8,220.1c0,13.4,9,22.6,22.4,22.7c11.5,0.1,22.4-10.6,22.6-22.4
	c0.2-10.6-11.7-22.1-23-22.2C746,198.1,735.8,208.2,735.8,220.1L735.8,220.1z"/>
<path class="st0" d="M435,292.4c8,2.3,15.7,3.9,22.8,6.8c11.8,4.8,17.9,18.8,15,32.2c-2.8,12.8-13.3,21.6-26.4,21.3
	c-7.4-0.1-14.8-1.1-22.5-1.7C427.7,331.4,431.3,312.3,435,292.4z M442.2,345.5c8.3,0.3,15.6-1.5,20-9.4c6.1-11,2.2-24.8-8.8-30.9
	c-1.8-1-3.7-1.8-5.8-2.2c-5.5-1.3-6.5-0.7-7.5,4.7c-1.9,9.5-3.6,18.9-5.5,28.4C432.8,345.5,432.8,345.4,442.2,345.5L442.2,345.5z"/>
<path class="st0" d="M355.1,268.4c1.7,22.1,3.3,43.2,4.9,64.4c-7.1,0.3-9.1-0.9-8.7-7.2c0.4-7.7-2.8-11.9-10-13.5
	c-1-0.2-1.9-0.5-2.8-1c-7.1-4.3-13.5-5.1-18.8,2.8c-0.6,0.8-1.5,1.3-2.5,1.5c-2.2,0.2-4.4,0-6.6,0c0.8-1.8,1.2-4,2.5-5.3
	c12-12.3,24.1-24.4,36.1-36.5C350.8,271.9,352.7,270.5,355.1,268.4z M349.1,287.8l-14.2,14.1l15.4,5.4
	C349.8,300,349.4,293.5,349.1,287.8L349.1,287.8z"/>
<path class="st0" d="M236.3,269.9c-5.5-0.7-7.3-3.5-7-8c0.5-8.7,1-17.5,1.4-26.3l-1.5-0.7c-2,2.4-4,4.8-6,7.3
	c-2.3,2.9-4.2,6.1-6.9,8.5c-1.3,1.1-3.9,0.7-6,1c0.1-1.8-0.6-4.3,0.3-5.5c9.8-12.8,19.9-25.4,29.8-38.2c2.5-3.2,4.7-3.8,7.6-0.7
	c3.2,3.4,6.5,6.7,9.9,9.9c4.4,4.1,6,9.1,3.6,14.4c-2.8,6-6.9,11.2-14.4,11.4c-3.2-0.1-6.3-0.4-9.5-0.8
	C237.2,251.3,236.8,260.3,236.3,269.9z M245.9,213.8c-3.8,4.7-7.5,9-10.8,13.4c-0.9,1.3-1.1,2.9-0.6,4.4c2.6,4.9,10.9,6.2,15.9,2.8
	c4.6-3.1,5.7-9.3,2.6-13.9c-0.2-0.3-0.4-0.6-0.7-0.9C250.5,217.6,248.2,215.9,245.9,213.8z"/>
<path class="st0" d="M647.7,323c-4,3.6-7.4,3.6-11,0.9c-5.3-4-10.7-7.9-16.2-11.8c-2-1.2-4.1-2.3-6.3-3.3c1.9,5.8,3.3,10.2,4.8,14.6
	c0.7,2.2,2,4.4,2.1,6.6c0,1.7-0.9,3.3-2.3,4.3c-0.9,0.5-3.5-0.6-4.2-1.7c-1.3-2-1.9-4.6-2.8-6.9c-4.8-13.4-9.7-26.9-14.5-40.3
	c-1.1-2.9-1.2-5.1,2.8-5.8c3.4-0.6,6.7-1.9,10.1-2.8c9-2.4,14.8-0.4,18.9,6.6c4.7,7.9,3.9,13.8-2.7,20.7c-0.5,0.5-0.9,0.9-1.7,1.8
	L647.7,323z M616,282.6c-8.4,0-10.5,2.9-7.7,10.7c0.5,1.6,1.2,3.1,1.8,4.6c2.5,6.4,5.1,7.1,10.1,2.4c1.6-1.4,2.9-3.2,3.9-5.1
	c2.1-4.5,0.1-9.9-4.4-11.9C618.5,282.9,617.2,282.6,616,282.6z"/>
<path class="st0" d="M656.4,289.2c2.3,4.6,4.4,8.5,6.2,12.6c1.6,3.5,3.9,4.1,7.3,2.6c5.3-2.4,10.6-4.6,16.3-7.2l2.8,6.6l-26.9,13.9
	l-25.7-52.5c8-4.1,15.6-8.2,23.4-11.8c1.4-0.6,4,1.1,6,1.8c-1,1.6-1.5,4-2.9,4.8c-5.1,3.1-10.5,5.7-16.4,8.7l7,12.6
	c5.3-2.3,10.4-4.6,15.6-6.8c2.1-0.9,4.4-3.3,6.4,0.1c1.9,3.5-0.7,4.6-3.2,5.9C667.1,283.4,662,286.2,656.4,289.2z"/>
<path class="st0" d="M156.8,160.2c-5,3.5-9.8,6.8-14.5,10.1c-2.1,1.5-4,2.4-6-0.2c-2-2.6-0.8-4.5,1.5-6.2
	c12.6-9.3,25.1-18.7,37.6-28.1c3-2.2,5.4-2.4,7.4,1.1c2.5,4.3,5.4,8.4,7.5,12.9c3.4,7.1,1.2,14.5-5.1,19c-6.5,4.7-13.7,4.6-19.7-0.5
	C162.7,165.8,159.9,163,156.8,160.2z M185,153.4c-1.1-1.9-2.3-5.8-4.9-7.7c-3.5-2.6-6.4,1.5-8.9,3.5s-5.1,4.6-5.6,7.3
	s7.9,8.6,10.7,8.3C180.5,164.4,184.6,159.7,185,153.4z"/>
<path class="st0" d="M271.5,227.7c8.6,5.2,17,10.2,25.2,15.5c1.1,0.7,1.2,2.9,1.7,4.4c-1.6,0.4-3.2,1.3-4.7,1
	c-3.3-0.6-7-3.3-9.4-2.3c-2.7,1.1-4.1,5.3-6,8.2c-5.1,8-10,16-15.1,24c-1.7,2.6-3.6,5.1-5.6,7.9l-5.7-3.7
	c7.3-12,14.4-23.7,21.5-35.5c3.5-5.9,5-7.6-2.2-11.9C267.5,233.1,268.4,230.6,271.5,227.7z"/>
<path class="st0" d="M312.5,251.6c-6.5,13.5-12.7,26.7-19.1,39.7c-2.7,5.5-2.7,5.8,2.8,8.6c1.8,0.9,3.9,1.5,5.2,2.8
	c1.2,1.2,1.4,3.3,2,5c-1.8,0.4-3.9,1.7-5.3,1.1c-6.2-2.7-12.2-5.9-18.6-9.1l26.5-51L312.5,251.6z"/>
<path class="st0" d="M1345.1,686.7c2.5-3.5,4.2-5.9,6.2-8.6C1353,684.1,1352.7,684.6,1345.1,686.7z"/>
</svg>
