<?xml version="1.0" encoding="utf-8"?>
<!-- Generator: Adobe Illustrator 23.0.1, SVG Export Plug-In . SVG Version: 6.00 Build 0)  -->
<svg version="1.1" id="Layer_1" xmlns="http://www.w3.org/2000/svg" xmlns:xlink="http://www.w3.org/1999/xlink" x="0px" y="0px"
	 viewBox="0 0 780.6 978.6" style="enable-background:new 0 0 780.6 978.6;" xml:space="preserve">
<style type="text/css">
	.st0{fill:#FFFFFF;}
</style>
<title>column</title>
<path class="st0" d="M716.8,602.5v4.6c0,22.2,0.1,44.3-0.1,66.5c-0.1,18-0.6,36-0.9,53.9c-0.1,4.4,0,8.7,0,13.1
	c0,8.5,0.1,17.1-0.1,25.7c-0.2,14.8-0.6,29.5-1,44.3c-0.2,7.1-0.5,14.2-1.1,21.3c-0.3,2.8-1.8,5.4-2.7,8.1l-2.2-0.3
	c-0.5-2.6-1.4-5.2-1.6-7.8c-0.5-9.4-0.9-18.9-1-28.3c0-5.9,0.9-11.9,0.9-17.8c-0.2-14.6-0.7-29.2-0.9-43.8c0-4.1-2.5-5.8-5.6-5.1
	c-4.5,1-9.3,2.3-13,4.9c-9.5,6.9-14.3,17.2-17.5,28.3c-0.3,1.5-0.4,3-0.3,4.5c0,32.3,0,64.7,0,97c0,5,0.1,10.1,0,15.1
	c-0.2,4.2,2,6.9,5.8,7.1c8.3,0.5,16.7,0.5,25,0c3.5-0.3,5.4-3.9,5.6-7.8c0.1-2.1,0.4-4.2,1-6.3c0.3-1,1.5-1.8,2.3-2.6
	c0.7,1,1.9,1.9,2.2,3c1,3.1,1.6,6.3,1.8,9.6c0.3,10,0.6,20.1,0.3,30.1c-0.4,11.1-2.9,22.3,4.8,32.3c0.9,1.2,0.4,4.7-0.8,6
	c-3.8,4.4-5.7,9.2-5.1,14.9c0.3,2.7-0.1,5.3-3.3,5.7c-3.2,0.4-4.3-1.7-4.4-4.7c-0.1-2.3-1-4.6-0.8-6.8c0.2-3.8-2.1-4.9-5.1-5.4
	c-6.5-1.1-12.9-2.1-19.4-3.2c-1.9-0.4-3.8-0.7-5.8-0.9c-40.2,0-80.3,0.3-120.5-0.3c-8.9-0.1-15.6,4.2-23.3,6.5
	c-4.8,1.3-9.7,2.1-14.7,2.5c-0.5,0-1.8-2.8-1.7-4.3c0-1.2,1.6-2.2,2.5-3.3c-0.3-0.5-0.5-0.9-0.8-1.4c-3.7,1.4-7.4,3.8-11.1,4
	c-3.9,0.2-8-1.7-11.9-2.7c-0.4,1.3-0.9,2.6-1.6,3.8c-1.4,1.8-3.5,4.9-4.4,4.6c-2.4-0.8-5.4-2.8-6-4.9c-1.1-3.8-3-4.6-6.4-4.6
	c-42.2,0-84.3-0.2-126.5,0.2c-9.1,0.1-18.2,2.2-27.1,4.2c-5.5,1.3-7.6-2.3-10.2-5.3c-2.2-2.6-0.9-5,0.2-8c1.7-5.3,2.7-10.8,2.8-16.3
	c0.4-10-0.1-20,0.2-30c0.3-5.2,0.9-10.4,1.8-15.6c1.3-8.8,4-18.4,0.4-26.1c-3.9-8.2-3.3-16.1-3.1-24.1c0.2-7.4,2-14.9,3.1-22.3
	c0.3-1.6,0.6-3.2,0.6-4.9c0-20.3-0.1-40.7,0.1-61c0.1-5.5-0.2-9.9-3.8-14.8c-3.2-4.4-4.6-10.8-5.1-16.5c-0.7-9.2-0.7-18.4,0.1-27.6
	c0.2-2.5,2.9-5.5,5.3-7.1c2.8-1.9,3.5-3.9,3.5-7c-0.1-14,0-28,0-42c0-5.4-1.3-6-6.5-5.2c-13.1,2-26.2,4-39.4,5.4
	c-17.3,1.8-34.4-1.5-51.5-2.9c-10-0.9-19.9-1.7-29.8-3.1c-4.5-0.8-8.8-2.2-12.8-4.4c-13.4-6.9-26.7-14.1-39.9-21.5
	c-3.3-1.9-5.9-5.1-8.8-7.7l0.8-2l10.2-0.9c-4.6-3.2-9.1-6.1-13.3-9.4c-10.6-8.3-21.5-16.2-31.4-25.2c-5.4-5-9.1-11.9-13.6-18
	c-0.7-0.9-1.1-2-1.8-2.9c-3-3.8-6.2-7.4-9.2-11.2c-6-7.9-12.4-15.6-17.8-24c-4.6-7.1-8.5-14.7-11.6-22.6c-5.2-13.1-9.5-26.6-14.1-40
	c-1.4-4.2-2.2-8.7-3.7-12.9c-0.4-1.2-2.6-1.7-4-2.5c0,1.4-0.3,3,0,4.3c3.5,12,7.2,24,10.8,36c2.9,9.7,7.7,18.5,13.1,26.9
	c8.2,12.8,16,25.9,24.9,38.3c8.6,12,17.7,23.8,27.9,34.4c7.9,8.1,18,14.2,27.2,21c3.1,2.3,5.5,4.8,4.6,9.2c-5.3,2-9.1-1.8-12.3-4.3
	c-10.3-8-21-15.8-29.5-25.5c-16.5-18.6-33.6-37-44.9-59.6c-7.8-15.7-15.3-31.6-21.9-47.9c-4.9-12.6-9-25.4-12.3-38.5
	c-2.4-9.1-3.5-18.7-4.4-28.1s-1.7-19.3-0.9-28.8c1.2-13.9-0.2-28,3.6-41.8c2.7-9.9,2.9-20.4,5.5-30.3c2.5-9.6,5.9-19,10.1-28
	c7.8-16.8,15.6-33.8,24.8-49.8c7.6-13.1,16.9-25.3,26.3-37.3c7.7-9.6,16-18.6,24.9-27c13.4-12.8,28.3-24.1,44.2-33.5
	c9.1-5.4,18-11.4,27.5-16.2c10.9-5.5,22.3-10,33.5-14.9c2.7-1.1,5.4-2.3,8-3.7c3.5-2,3.5-8.4,0.1-12.1c-5-5.5-10-11.1-15.4-16.3
	c-8.5-8.2-13.8-18.2-17-29.4c-2.7-9.5,5-19.2,14.8-19.2c68.3,0,136.7-0.2,205,0.1c15.5,0.1,31,2.2,46.4,2.8
	c18.6,0.7,37.2,0.8,55.8,1c1.4,0,2.9-1.2,4.2-2.1c3.3-2,6.2-2.9,9.9,0.1c2.5,1.9,5.4,2.9,8.5,3c62.1-0.2,124.2-0.5,186.3-0.9
	c2.1,0,4.2-0.8,6.2-1.2c1.6-0.4,3.2-0.6,4.8-0.6c6.8,0.5,13.7,1.6,20.5,1.8c12,0.3,24,0.1,36,0.1c2.7,0,5.6,0.2,5.6,3.3
	s-2.9,3.3-5.5,3.4c-12.8,0.3-25.5,0.6-38.3,1c-3.9,0.1-7.9,0.5-11.8,1.1c-1.6,0.3-3,1.2-3.9,2.5c-3.8,7.2-7.5,14.5-10.8,21.9
	c-0.6,1.3,0.8,4.9,1.7,5.1c7.7,1.1,7.2,7.5,7.7,12.4c0.8,7.1,0.3,14.3,0.2,21.5c-0.1,4.7-3,7.6-7.8,7.5c-15.9-0.5-31.8-1.4-47.6-1.9
	c-7-0.2-14-0.1-21-0.1c-53.8-0.3-107.5-0.7-161.3-1c-39.3-0.3-78.5-0.6-117.8-1c-20.8-0.2-41.6-0.7-62.4-1c-1.3,0-2.9-0.4-3.9,0.2
	c-1.5,0.9-2.6,2.5-4,3.9c1.4,0.7,2.9,2.1,4.3,2.1c30.9,0.5,61.9,0.7,92.8,1.2c14,0.2,27.9,0.5,41.8,1c10.2,0.4,20.4,1.8,30.6,1.8
	c17.9,0.1,35.9-0.6,53.8-0.9c26.3-0.4,52.5-0.7,78.8-1c2.5,0,5-0.1,7.5,0c13.8,0.3,27.5,0.6,41.3,1c20.9,0.6,41.7,1.4,62.6,2
	c8.8,0.2,11.7,2.3,12.2,11c0.4,7.8,0.4,15.7-0.1,23.5c-0.1,1.8-2,4.7-3.5,4.9c-2.5,0.5-4.5-0.9-5.2-4.4c-1.8-9.4-2.1-8.7-12.1-9.4
	c-49.3-3.7-98.7-1.2-148.1-1.8c-47.9-0.6-95.9-0.6-143.8-1c-13.3-0.1-26.7,0.4-39.8-1.2c-24.9-3.1-49.8-1.1-74.6-1.7
	c-7.1-0.2-13,3.3-18.3,7.4c-4.1,3.2-4.8,15.9-1.3,19.9c1.4,1.3,3.3,2,5.2,1.9c6.8-0.2,13.4,1.6,19.2,5.1c2.3,1.2,4.8,1.9,7.4,1.9
	c9.8,0.2,19.7-0.5,29.5,0.3c5.7,0.5,11.3,2.9,16.7,5c1,0.4,0.9,3.4,1.5,6.3l2.4,0.4c1.4,0.3,3.3,0.1,4.3,0.9
	c4.8,3.8,9.5,2.4,14.9,1.5c6.4-1.1,13.3,0,19.9,0.7c6.7,0.5,13.3,1.6,19.8,3.1c4,1,9.2,2.2,8.3,8.7c-0.1,0.6,2.1,1.9,3.4,2.1
	c2.7,0.2,5.3,0.2,8,0.1l-4.9-5.8l1-1.6c6.3,0.8,12.6,1.9,18.9,2.3c8.4,0.6,16.9,0.7,25.3,1.1c5.6,0.2,6.8,1.2,6.9,6.3
	c-11.7,4.1-23.8-1.7-36,2.2l8,3.2c-0.5,1.4-0.8,2.9-1.1,4.3c0,0.2,2.2,1.1,2.4,0.9c1.1-1.2,2-2.7,2.8-5.8c9.1,1.5,18.3,3.1,27.4,4.6
	c3.2,0.6,6.4,1.2,9.6,1.9c12.9,2.8,25.7,6.1,38.7,8.3c12.1,2,24.4,2.6,36.6,4.3c4.6,0.7,10.1-0.3,13.4,4.7c0.6,0.9,2.6,1,4,1
	c7,0.3,14,0.1,21,0.6c7.8,0.6,15.7,1.8,23.5,2.6c9.3,1,18.6,2.4,27.9,2.8c11.5,0.5,23.1,0.5,34.6,0.1c6.3-0.2,12.6-2,18.9-2.6
	c3.4-0.3,6.4,1.4,6.9,5.4c0.2,0.8,0.4,1.6,0.5,2.4c0.3,18.3,1,36.5,0.9,54.8c-0.2,17.7-1.5,35.4-1.8,53.1
	c-0.2,15.1,0.8,30.2,0.8,45.3c0,15.9-0.6,31.9-0.9,47.8c-0.3,11.6-0.6,23.2-1,34.8c-0.1,2.1-1,4.2-0.9,6.3c0.2,9,0.8,17.9,0.9,26.9
	c0.2,10.7,0.1,21.3,0.1,32c0,8,0.1,16.1,0,24.1c0,4,1.7,5.8,5.7,5.6c4.5-0.3,9.1-0.3,13.6,0c13.1,1.2,22.6,7.9,28.5,19.5
	c2.5,4.8,2.9,9.9,0.3,15.1c-2.3,4.6-3.9,9.5-5.8,14.3c-0.2,0.5-0.3,1.1-0.6,1.3c-5.4,2.8-10.6,6.4-16.3,8c-2.9,0.8-7.2-1.5-10.2-3.5
	c-3.2-2.2-5.3-2.9-8.7-0.3C723,604.5,719.8,603,716.8,602.5z M131,573.8c4.8,7,12.5,9.4,19.5,13c-4.5-6.7-11.6-11.4-19.6-12.9
	c-2.4-4.6-4.4-9.6-10.7-10.3c-0.6-0.1-1.2-0.5-1.7-0.9c-7.2-7.4-14.3-14.9-21.6-22.3c-1.4-1.4-3.5-2.1-5.3-3.2l-1.3,1.7
	c2,2.7,3.7,5.7,6.1,8.1c6.3,6.3,13.4,11.9,19.2,18.6C120.1,570.6,126,571.1,131,573.8z M398.7,563c-0.4,1.2-0.7,2.5-0.8,3.8
	c0,0.9,0.4,1.8,1,2.5c0.7,0.3,1.5,0.1,2.1-0.3c2-2.3,3.8-4.7,5.7-7.1c-0.3-0.4-0.7-0.8-1-1.2l-5.6,1l15.1-25.8
	c-4,0.3-6.6,1.3-7.5,5.4c-0.4,2.2-1.4,4.3-3,6c-3.9,3.9-8.2,7.4-12.2,10.9c-5.3-3.3-2.8-5.7-0.6-8.4c6.3-7.8,16.7-12.2,19.5-23.1
	c0.3-1.1,2.3-1.7,3.3-2.8c1.5-1.6,4-3.3,4.1-5.1c0.3-2.9,1.7-4.2,3.6-5.8c1.7-1.6,3-3.5,3.8-5.6c1.5-3.4,2.6-7,3.9-10.5
	c2-5.3,4.1-10.6,5.9-15.9c2.2-6.5,4.6-12.9,6.2-19.5c1.5-6.6,2.1-13.2,2.8-19.8c0.1-0.9-1.3-2.5-2.2-2.7c-3.5-0.9-8.1,2.4-9,6
	c-1.5,6.2-3,12.3-4.3,18.5c-2,9.4-9.5,17-9.1,27.2c0,0.2-0.5,0.4-0.6,0.7c-10.9,17.9-22.3,35.4-38.3,49.5
	c-11.6,10.3-23.8,19.8-37.6,26.7c-10.9,5.4-22.2,10.1-33.8,14c-9.9,3.4-20.4,5.4-30.6,8.2c-2.7,0.7-6.7-0.2-6.8,4.7
	c0,3.2,3.8,9.5,6.5,9.5c4.6,0.1,9.2-0.4,13.6-1.4c7.2-1.8,14.2-4.8,21.5-6.3c10.6-2.2,20-7.2,29.8-11.5c7.1-3.1,12.6-9.5,21-9.9
	c0.8,0,1.3-1.7,2.2-2.4c5.3-4.5,10.6-8.9,16-13.3c3.1,4.1,2.1,6-0.8,7.8c-2,1.3-3.5,3.2-5.3,4.9c-1.3,1.3-2.6,3.5-4,3.6
	c-7.6,0.5-8.5,9.5-15.1,11.3c5.3-2.7,11.7-1.6,16.3-6.4C381.5,573.1,388.8,566.1,398.7,563z M235,274.8l0.2,0.2l5.1-8.3
	c-0.5-0.5-0.9-1-1.4-1.5c-5.2,3.2-10.2,6.8-15.6,9.5c-1.6,0.8-5.4,0.4-6.2-0.8c-1.8-2.5-3.4-2.1-5.4-1c-1.4,0.8-2.6,2.1-4.1,2.5
	c-1.6,0.5-3.5,0.2-5.3,0.2c0.5-1.9,0.4-4.4,1.6-5.5c2.5-2.4,5.7-4,8.6-5.9c12.4-8.3,26.1-14.8,40.4-19.1c4.3-1.4,9.8-0.6,12.5-6.9
	c-1.6-0.8-3.3-2.4-4.8-2.2c-5.1,0.9-10.1,2.4-15.1,3.7s-9.9,2.6-15,3.7c-0.5,0.1-2.3-2.2-2-2.7c0.7-1.6,1.9-2.9,3.4-3.8
	c3.2-1.5,6.6-2.7,10-3.7c7-2.1,14-4,21-6.1c3.2-1,6.3-2.4,9.4-3.6c-0.2-0.5-0.4-1.1-0.6-1.7c-5.1,0.9-10.1,1.8-15.2,2.6
	c-3.4,0.5-7,0.3-10.1,1.5c-8.3,3.3-16.3,7.3-24.5,10.7c-1,0.4-2.8-1.1-4.2-1.7c0.5-1,1.1-2,1.8-2.9c9.3-9,21.8-10.6,33.5-13.9
	c6-1.7,12-3.3,17.5-4.7c-1.7-2.9-4.7-6.2-4-7.2c3.3-4.9,1-8.8-1.2-13c-1.5-2.9-3.2-5.8-4.1-8.8c-1.3-4.6-4.4-6.6-8.6-6.6
	c-4.5,0.1-7.3-1.3-8-6.1c-2.4,0-4.9-0.7-6.6,0.2s-4.3,3.6-3.9,4.9c1.1,4.4-1.1,4.8-4.3,5c-1.6,0.1-3.2,0.4-4.7,1
	c-6.6,2.8-13.9,4.3-19.6,9.1c-1.5,1.2-3.5,1.8-4.9,3.1c-6,5.4-15.6,4.1-20.7,11.2c-0.4,0.6-1.8,0.4-2.8,0.6
	c-3.6,0.6-7.3,1.1-11.1,1.7l3.2,6.3c-3.4,2.5-6.7,4.9-10.1,7.3c-3,2.1-6.3,4-9.2,6.3c-2.5,2-4.4,4-8.2,2.6c-1.6-0.6-4.6,0.3-5.8,1.6
	c-3.1,3.3-6.2,7-5.1,12.2c1.1,4.8-0.9,8.8-3.8,12.2c-4,4.7-9,7.9-10.8,15c-1.6,6.5-6.4,12.4-10.6,17.9c-3.4,4.5-3.7,10-6,14.6
	c-3.5,6.8-4.6,14.1-6.6,21.1c-3,10.4-4.2,21.4-6.3,32.1c-1.3,6.5-4,13.1-3.7,19.6c0.5,11.6,2.5,23.1,4.3,34.6
	c0.8,5.6,2.1,11.1,3.8,16.6c0.7,2.1,2.9,5,4.7,5.3c3.4,0.5,6.3-1.5,8.1-5.1c5.4-10.7,4.2-22.1,4-33.4c-0.1-7,0-14.1,0.4-21.1
	c0.1-1.2,2.2-3.2,3.6-3.3c4.1-0.4,4.5-2,3.2-5.4c-0.6-1.6-0.9-4.9-0.1-5.3c4.6-2.6,3-6.4,2.8-10.1c0.1-1.3,0.2-2.6,0.5-3.8l1.4-0.6
	c2.3,2.8,6.1,5.3,6.7,8.4c0.8,5.4,0.5,10.9-0.8,16.2c-1.7,8.1-3.9,16.1-2.8,24.4c0.3,2.9,1.3,5.6,3,7.9c4.1,4.8,10.1,7.9,11.7,14.8
	c0.2,0.8,1.7,1.3,2.7,2.1c0.3-0.5,0.5-1.1,0.7-1.6c2.3-9.5-0.3-8.7,10.2-10.7c1.1-0.2,2.7-2.4,2.8-3.7c0.3-5.1,0-10.3,0.2-15.5
	c0.2-5.8,1.9-7.4,7-7.3c1.2,12.3,2.4,24.6,3.6,36.8c0.2,1.8,0.3,3.9,1.4,5.1s3.6,2.5,4.8,2s2.5-3.1,2.4-4.6
	c-0.4-5.9-1.7-11.7-2-17.5c-0.2-3.1,0.3-6.2,1.5-9.1c1.4-3.1,3.1-6.7,8.3-6.9c-0.5,5.5-1.5,10.4-1.2,15.3c0.4,5.8,2,11.6,2.7,17.4
	c0.4,3,1.1,5.3,4.5,5.2c4-0.1,2.9-3.4,2.9-5.7c-0.2-7.8-0.8-15.5-0.8-23.3c0-1.6,1.6-3.2,2.5-4.8c1.1,0.8,2.2,1.5,3.2,2.4
	c2.1,1.8,3.9,3.1,7,1.6c4.4-2.2,5.6-1.1,5.8,4.1c0.1,2.1,0.4,4.3,0.5,6.4h1.6c0.4-2.5,0.6-5,1.2-7.5c1.6-6.8,2.3-14.1,5.2-20.3
	c4.6-9.5,10.7-18.2,16.4-27.1c6.5-10.2,16.7-15.3,27.4-19.8c2.2-1,4.3-2.2,6.4-3.5c-0.2-0.7-0.4-1.4-0.6-2.1c-1.8,0-3.7-0.4-5.3,0.1
	c-1.7,0.4-3.1,1.9-4.7,2.5c-4.6,1.9-6.5,0.4-6.2-4.5c0.1-0.9-0.7-2.4-1.3-2.6c-3-0.8-12.6,6.8-12.5,9.9c0,3.1-0.7,5.5-4.5,5.8
	c-2.3,0.2-3.1,1.5-1.7,3.8c1.7,2.8,0.3,4.4-2.1,6.3c-5.4,3.9-9.3,9.6-10.9,16c-0.8,3.1-2.7,6.6-5.2,8.3c-2.9,2-4.7,3.4-3.7,7.2
	c0.2,0.9-1.4,2.2-2.1,3.3c-0.9-0.6-1.8-1.3-2.5-2.2c-0.9-1.4-1.4-3-2.3-4.4c-6.2-9.5-4.4-16.1,5.8-21.3c1.7-0.9,3.9-1.9,4.5-3.4
	c1.7-4.3,0.6-9.8,5.9-12.4c0.2-0.1,0.1-1,0.1-1.5c-0.2-6.3,3.4-10.3,8.2-13.5c2.8-1.9,6.4-3.1,8.6-5.6c8.6-9.3,20.7-11.7,31.6-16.5
	c1.9-0.8,4.2-3,4.3-4.7c0.3-3.7-2.9-3.9-5.6-3.4c-14.3,2.4-27.5,7.6-38.5,16.9c-7.8,6.5-14.5,14.2-21.7,21.4c-2.1,2.2-4.7,4.3-7,1.6
	c-0.9-1,0.4-5.1,1.8-6.7c6.5-7.4,13-14.9,20.4-21.4c5.8-5,12.3-9.2,19.2-12.5c8.9-4.3,18.4-7.2,27.5-11.1c1.8-0.8,3.8-3.4,3.8-5.1
	c0-2.8-1.2-5.5-5.5-5.3c-8.1,0.3-8.1,0-8.7-7.8c-4.3,0-8.6,0-13,0c-0.6,0-1.2,0.8-1.8,1.2c0.5,0.7,0.8,1.8,1.5,2
	c1.7,0.6,3.6,0.5,5.2,1.2c2,0.8,4.4,1.9,2.4,4.7C246.9,275.2,240.5,276.7,235,274.8z M119.2,396.8c-1.2,1.4-1.7,1.9-2.1,2.4
	c-5.2,7.2-5.2,16-7,24.1c-1.5,6.7-5.4,11-11.1,13.8c-4.2,2.2-7.4,0.9-9.3-3.5c-2.2-5.2-4.7-10.4-5.4-15.8c-2.4-18-9-35.7-3.2-54.4
	c5-16.4,5.3-34.1,12.2-50.2c2.1-4.9,3.2-10.3,4.9-15.4c0.9-2.6,2-5.2,3.3-7.6c3.9-7.1,8.9-13.8,11.6-21.3c1.7-4.7,3.4-7.9,7.6-10.6
	c4.2-2.5,6.8-7,7-11.9c0.1-5.4,1-10.8,2.6-16c0.7-2,5-4.5,7-4.1c6.2,1.4,10.2-0.9,14.1-5.1c1.2-1.3,3.4-1.9,5.3-2.4
	c3.5-1.2,6.3-2.4,4.3-7c-0.5-1.2,0.1-4.3,0.7-4.4c7.1-1.9,12.3-8.3,18.9-9.7c6.4-1.3,12.7-2.3,18.3-5.4c3.7-2,8-3.6,10.5-8.9
	c-6.5-0.6-12-0.8-17.6-1.6c-2.7-0.3-5.3-1.2-7.7-2.4c-5.1-2.8-10.2-3.7-15.1-0.2c-5.2,3.7-10,8-15.3,12.2c1.8,2.4,3.7,4.7,5.3,7.2
	c0.6,0.9,0.7,2.1,0.2,3.1c-0.5,0.6-2.1,0.8-3,0.4c-8.1-3-11.6-1.7-16.3,5.6c-1,1.6-3.1,3.4-4.9,3.6c-4.5,0.5-6.9,3.4-9.8,6.3
	c-15.8,15.8-25,35.9-36.3,54.6c-5.5,9.5-9.6,19.6-12.2,30.3c-4.2,16.2-8.4,32.7-9.5,49.2c-1.5,21.4-0.5,42.9,0.5,64.4
	c0.4,9,4.1,17.9-5.6,25c10.5,1,11.2,1.6,13.3,6.3c4.7,10.6,9.3,21.3,14.5,31.7c9.1,18.4,21.7,34.9,37.2,48.4
	c14.5,13,30.3,24.5,47.1,34.3c11,6.5,22.7,11.6,34.9,15.3c10.4,2.9,21.1,4.9,31.8,5.9c17.5,1.9,21.4,4.1,24.7,17
	c0,0.2,0.1,0.3,0.1,0.5c1.1,3.7-0.4,5.9-4.1,6.4c-3.3,0.5-6.6,0.8-9.9,0.8c-12.6-0.1-25.3,0.4-37.6-3.4c-11.3-3.4-22.7-6.3-34.1-9.4
	c-1.1-0.2-2.2-0.3-3.4-0.3c2.3,2.3,5.1,4.1,8.2,5.1c3.8,1.1,6.2,3.3,6.9,7c0.8,4.1,3.4,5.3,7.1,5.5c4.6,0.3,9.3,0.7,13.9,1.3
	c4.5,0.5,9.4,3.8,12.2-3.1c0.3-0.7,4.7-0.2,6.9,0.6c0.7,0.3,0.5,3.2,0.7,4.8c7.8,2.6,12,2,15.1-2.1c4.2-5.5,8.5-5.6,12.8-0.2
	c4.6,5.7,5.7,6,11.7,2c2.7-1.8,4.7-1.2,6.5,1c3.5,4.4,1.1,11-4.4,11.5c-7.6,0.6-15.3,0.4-22.9,0.5c-2.3,0-4.5,0-6.8,0v1.8
	c7.6,0,15.3,0.5,22.8-0.1c10.4-0.9,20.7-2.9,31.2-3.8c7-0.6,14.2-3.3,21.1,0.8c1.1,0.3,2.2,0.1,3.1-0.6c4.3-3.5,8.5-7.3,12.6-10.9
	c-2.8,0.2-5.4,1.3-8.1,2c-8.8,2.2-17.6,4.5-26.5,6.2c-1.8,0.4-4.2-1.8-6.3-2.8c1.3-1.6,2.5-3.1,3.7-4.7c0.1-0.2,0.1-0.6,0-0.1
	c-1.9-1.5-4.8-2.9-4.7-4c0.2-1.9,2.2-3.6,4.3-6.5c-5.2,0.7-9.3,1.2-13.3,1.9c-10.1,1.7-16.6-9-15.4-15.8c0.3-1.7,2.5-4,4.3-4.5
	c11.2-3.1,22.5-5.6,33.7-8.5c15.6-4.2,30.4-10.7,44-19.4c18.6-11.6,35.1-25.5,48.4-43.4c9.9-13.4,17.7-28.3,23.1-44.1
	c3.1-8.9,5.3-18.2,8-27.2c2.4-8,10.5-11.2,18.3-7.5c1,0.5,3.3,0.3,3.7-0.3c4-6.4,9.8-7.6,17.8-6.1c-0.7-7-1.4-13.7-2.1-20.4
	c-0.4-4.3-1.3-8.6-1.1-12.8c0.2-4.8,3.1-8.3,8.1-8.7c5.9-0.5,11.9-0.6,17.8-0.4c5.6,0.1,11.3,1,16.9,1c21.5,0,43-0.5,64.5-0.2
	c10.2,0.1,12.7,3.6,13.4,14c0.4,5.1,1.9,10.1,2.4,15.1c0.6,5.8,1,11.6-4.1,16.2c-1.1,1-1.5,3.9-1,5.6c1.6,5.4,4,10.5,5.8,15.9
	c2.7,7.8,0.6,10.9-7.5,11.8c-2.5,0.3-4.9,0.8-7.3,1.3c0,0.4,0.1,0.8,0.2,1.3c4.1,0.4,8.1,0.7,12.2,1.4c4.9,0.8,5.5,5.1,6.8,8.9
	c1.8,5.3-3.5,6.8-6.1,10.5c4.6,0.8,9.1,0.5,12.6,2.3c6.3,3.2,12.8,3.3,19.5,3.3c24.2,0.1,48.3,0,72.5,0.3c4.6,0.2,9.2,1.2,13.5,2.8
	c1.8,0.6,4.3,3.7,3.9,4.8c-1,2.2-2.8,3.9-5.1,4.6c-4.4,1-8.9,1.5-13.4,1.4c-27.7-0.1-55.3-0.4-83-0.8c-49.5-0.6-98.9-1.3-148.4-2.1
	c-2.3,0-4.6-1.5-7-2.4c1.3-2.4,2.3-5.1,4.1-7c1-1.1,3.3-1.5,5-1.6c4.2-0.2,8.3,0,12.5-0.1c1.4-0.2,2.8-0.4,4.1-0.8
	c-4.8-2.3-9.3-3.8-13.1-6.3c-4.4-2.8-5.7-7.5-5-12.9c-3.7,6.6-6.6,13-9.6,19.5s-2.9,6.3-8.9,2.6c-1.6,4.2-5.8,8.1-0.3,12.6
	c0.8,0.7,0.7,3.4,0,4.7c-2.9,6.3-5.3,13-9.5,18.5c-8.9,11.8-18.7,22.8-28.2,34.1c-1.6,1.9-3.4,3.7-5.3,5.3
	c-5.1,4.5-7.4,4.2-11.2-2.2l-8.4,7.5c5.2,4.2,5,7-0.1,10.7c-2,1.4-3.9,2.9-5.9,4.3c1.5,0.8,2.3,0.8,3,0.5
	c8.9-3.8,16.9-9.6,23.2-16.9c6.5-7.6,13-15.2,19.3-22.9c6.1-7.4,11.7-15.3,18.1-22.4c2.5-2.5,5.8-4.2,9.4-4.6
	c5.8-0.5,11.6,0.5,17.4,0.6c18.2,0.4,36.3,0.7,54.5,1c27.2,0.4,54.3,0.9,81.5,1.1c32.2,0.2,64.3,0.2,96.5,0.2c6.1,0,12.6-0.9,15.6,7
	c0.5-1.1,0.8-2.3,0.9-3.5c0-19,0.1-38,0-57c0-2-0.5-4-1.4-5.7c-2-3.3-0.9-6.1-0.2-9.4c1.4-6.5,1.7-13.3,2.4-19.9l-1.6-0.2
	c-0.2,0.8-0.4,1.6-0.6,2.4c-1.8,6.5-4.6,7.6-9.2,2.8c-3.3-3.5-5.6-8.1-7.7-12.5c-4.9-10.4-7-21.9-5.8-33.4
	c0.7-6.8,4.4-10.5,11.2-10.3c4.2,0.1,8.4,1.9,13.1,3c0.2-1.2,0.4-2.4,0.4-3.7c0-3.5-0.5-6-5.2-3.9c-2.4,1.1-5.5,1.2-8.3,1.2
	c-20.1-0.6-40.3-1.8-60.4-2c-45.3-0.5-90.7-0.6-136-0.8c-8.8-0.1-17.7-0.1-26.5-0.1c-3.3,0-7.4-1-9.8,0.5c-2.1,1.4-2.3,5.6-3.6,8.5
	c-2,4.5-4.2,8.9-6.8,13.1c-0.8,1.2-3.7,1.4-5.6,1.3c-1.2-0.1-2.3-1.5-3.9-2.7c-0.3,1.1-0.6,2.1-0.7,3.2c-0.1,4.8,0.1,9.7-0.2,14.5
	c-0.3,5.3-4.1,8.2-9.9,8.5c-5.5,0.2-5.7-3.6-6.4-7.6c-3.3-19.9-3.2-40.6-12.7-59.2c-4.3-8.4-8.8-16.7-13.4-24.9
	c-0.4-0.7-1.6-1-3.7-2.3c4.6,10.8,8.2,20.4,12.6,29.6c6.8,13.7,10,28.2,11.7,43.2c0.4,4.1,0.4,8.3,0.1,12.5c-0.3,5.2-4.5,9.6-9,9.8
	c-5.9,0.2-6.4-4.1-7.1-8.4c-0.3-2.1-1.1-4.2-1.5-6.3c-0.6-3.1-2.1-5.1-5.5-5.4c-1.1-0.1-2.1-1.3-3.1-2c0.9-1,1.6-2.3,2.7-2.9
	c3.4-2,5-7.2,2.5-10.1c-1.1-1.1-2.7-1.7-4.3-1.6c-0.9,0.1-2,1.9-2.4,3.1c-0.6,1.7-0.1,4-1,5.3c-4.3,5.9-3.9,12.9-5.2,19.4
	c-0.6,2.9-0.3,6.6-4.4,6.6c-3.9,0.1-6.1-2.7-6.5-6.4c-0.6-5.1-0.7-10.3-1.1-15.4c-0.3-2-0.7-4-1.2-6c-1.6,1-2.4,1.5-3.2,2
	c-5.5,3.8-7.3,9.7-9.2,15.5c-1.6,4.8-3.9,5.7-7.6,2.6c-2.5-2-3.7-1.7-5.5,0.9c-2.5,3.8-5.6,3.9-8.5,0.3c-1.3-1.7-2.2-3.7-2.6-5.8
	c-1.5-6.3-2.3-12.8-4.1-18.9c-5.6-18.5-17.9-29.8-37-33.5c-4.7-0.9-9.5-2-14.2-2.9c-3-0.6-3.9-2.4-3.8-5.4c0.1-2.8-0.9-5.6-0.9-8.4
	c0-2.2,0-5.2,1.3-6.5c2.1-1.9,4.7-3.2,7.5-3.6c11.2-1.7,21.7,1.9,32,5.5c4,1.4,7.1,3.8,11.5,1c1.4-0.9,4.6,0,6.2,1.2
	c0.8,0.6-0.2,3.6-0.6,5.6c-0.1,0.5-0.3,1.1-0.6,1.5c4.1,2.3,7.7,4.3,11.3,6.2c1.4,0.6,2.7,1.2,4.2,1.7c-0.1-1.7,0.4-3.8-0.5-5
	c-12-17.9-29.2-27-50.4-29c-7-0.7-14.1-1.4-21-2.6c-2.1-0.6-3.7-2.2-4.5-4.3c-0.3-1.1,2-3.8,3.6-4.4c6.8-2.8,14.4-3.3,21.5-1.5
	c8.5,2.2,17.1,4,25.8,5.6c2.4,0.3,4.8-0.3,6.8-1.6c1.9-1.2,3-3.7,4.8-6c-3.5-1.5-7-3-10.5-4.7c-3-1.4-5.7-2.3-8.6,0.7
	c-2.4,2.4-5.5,1.2-5.6-2.1c-0.1-3.3-1.8-4.4-4.3-4c-6.2,1.1-12.3,2.9-18.2-1.6c-1.6-1.2-4.9-0.1-7.4-0.4c-4.4-0.7-7.7-4.4-8-8.9
	c-0.1-5,3.6-5.2,7.1-5.9c1.6-0.4,3.1-1,4.6-1.7l-0.1-1.4c-2.1-0.7-4.3-1.4-6.4-2.2c-4.7-1.8-7.6-7.2-4.9-11.3c2-3,5.8-5.2,9.2-6.9
	c2.5-1.2,4.1-1.8,4-5.1c0-1.7,2.3-3.8,4-5.1c1.1-0.9,3-0.8,4.4-1v-8.5c-2.6,0-5.1,0-7.5,0c-4.5,0.1-9.1,0.9-13.4,0.2
	c-2.4-0.4-5.6-3-6.2-5.2c-0.6-2.2,1-6.5,2.9-7.5c3.8-1.9,8.4-2.3,12.7-3.1c1.6-0.2,3.3-0.2,4.9-0.1c-4.3-3.6-2.9-7.1-1.8-10.4
	c-1.4-1.8-3.2-4.2-2.5-5.7c1-2.2,3.5-3.6,6.6-6.4c-3.8-0.4-6.3-0.6-8.8-0.9c-2.3-0.3-5.1-0.1-6.7-1.3c-6.5-4.8-10.9-11.9-12.6-19.8
	c-1.4-6.1,2.8-9,5.8-12.9c4.2-5.3,5.5-5.6,10.6-1.3c5.1,4.3,15.7,3.1,19.2-2.9c-1.7-0.4-3.5-0.7-5.3-0.9c-3.7-0.2-7.3,0-11-0.1
	c-1.8,0-10.5-10.2-9.9-11.6c0.7-1.4,1.9-2.5,3.4-3c2-0.5,4.3-0.3,6.5-0.3c3,0,6.1,0,9.1,0c0.2-0.7,0.3-1.5,0.5-2.2
	c-3.1-1.3-6.2-3-9.5-3.7c-3-0.6-6.4,0.3-9.4-0.4c-2.7-0.6-6-1.8-7.5-3.9c-7.7-10.7-3.6-24.4,8.5-29.5c4.6-2,9.4-3.5,12.5-4.7
	c0-4.2-1.3-8.4,0.3-10.4c2-2.7,6.3-3.6,10.2-5.6c-2.1-0.4-3.6-0.8-5.2-1c-2.7-0.5-6.6-0.3-6.4-4c0.2-3,2-6.1,3.8-8.6
	c1-1.4,3.5-1.7,5.3-2.5c3.4-1.4,6.9-2.8,10.3-4.2l-0.3-1.8h-65.2l-0.1,0.2l27.5,3v1.7c-0.9,0.6-1.9,1-3,1.3
	c-14.3,1.1-28.5,2.3-42.8,3.1c-1.3,0.1-3.9-2.2-3.9-3.4c0.1-1.6,1.7-3.6,3.2-4.7c1.3-0.9,3.4-0.7,3.7-0.8c-0.6-3.6-1-6.9-1.8-10.2
	c-0.4-1.5-1.2-3.7-2.3-4.1c-6.9-2.4-7.6-2.7-6.8-10c1.3-12.4,0.6-24.9-2.1-37.1c-0.5-1.2-1.6-2.1-2.9-2.4c-8-0.1-16-0.1-24,0.4
	c-2.1,0.1-4,2.3-6,3.6c1.2,1.4,2.5,2.7,3.9,3.9c3.1,2.4,5.6,10.6,3.4,13.7c-1.1,1.5-4.3,1.5-7.6,2.6c1.9,3.1,3.5,7.2,6.3,10.4
	c7.4,8.6,15.4,16.6,22.9,25.1c5.2,5.9,3.4,14.3-3.6,17.5c-8.6,3.9-17.5,7.3-26.1,11.2c-24.9,11.2-48.4,25.5-69.8,42.5
	c-18.9,15-35.8,32.1-49.3,52.1c-9.4,13.9-18.1,28.3-26.1,43c-9.4,17.3-17.9,35.3-22.5,54.7c-2.9,11.9-5.7,23.9-7.5,36
	c-1.7,11.3-2,22.9-2.7,34.3c-1.2,23.3,1.2,46.7,7.3,69.2c0.1,0.3,0.7,0.5,1.4,0.9c0.2-0.7,0.4-1.3,0.7-1.9c1-2,2.1-5.7,3.1-5.7
	c2.5,0.2,4.8,1.3,6.6,3.2c2,2.2,3.2,2.1,5.3,0.4c4-3.2,7-2.5,9,2.1c1.3,3.2,2.4,6.6,3.3,9.9c1.8,5.6,3.5,11.2,5.2,16.3l10.3-6.3
	c-0.9-0.7-1.9-1.3-2.9-1.7c-6.6-1.8-9.7-6.6-11.3-12.8c-1.5-6.2-2.8-12.3-4.2-18.4c-0.4-1.6-1-3.1-1.8-5.4c-1.2,1.5-1.7,2.1-2.3,2.7
	c-1.9,1.8-3.8,3.6-5.6,5.4c-1.8-2.2-3.7-4.3-5.4-6.7c-0.6-1-0.8-2.2-0.7-3.4c-0.3-16.7-0.5-33.3-0.7-49.9c0-4.1,0-8.2,0-12.3
	c-1.1,0.4-1.5,0.9-1.5,1.3c-0.4,18.5-0.7,37-1.1,55.4c0,2.6,0.6,5.3,0.3,7.9c-0.4,1.5-1.5,2.8-3,3.4c-0.9,0.3-2.7-1-3.5-2.1
	c-3.6-4.5-4.8-9.7-4.8-15.4c0-10.5-0.2-21-0.1-31.5c0.2-17.5-0.3-35,4.6-52.1c2.8-9.7,5.6-19.5,8.4-29.2c6.2-21.5,15.3-42,27.1-61
	c10.7-17.2,22.8-33.6,35.3-49.6c16.7-21.3,38.1-37.8,61.1-51.7c15.9-9.5,33-17.3,49.9-25c9.4-4.2,19.2-7.4,29.3-9.5
	c18.4-3.9,37.2-5.2,56.1-5.1c4.8,0,6.7,2.5,4.9,7.1c-1.1,2.7-2.6,5.3-3.9,7.9c6.6,7.3,5.5,11.7-3.8,14.8c-4.6,1.6-9.3,2.7-14.5,4.2
	c4.1,3.6,3.1,7.7,2,12.1c-0.4,2.3-0.6,4.6-0.5,6.9c-0.1,5.1,1.6,10.4-2.4,14.8c-0.4,0.5-0.2,2,0.2,2.8c1.6,3.2,0,4.8-2.8,5.5
	c-2.3,0.6-3.7,1.4-3.7,4.3c0,1.3-2.3,3.5-3.6,3.6c-2.3,0.1-4.6-1.1-6.9-1.8c0.5-1.7,1.1-3.4,1.6-5.1c0.4-1.2,1.4-2.8,1-3.4
	c-0.9-1.1-2.2-1.7-3.6-1.8c-1.8,0.1-3.6,0.6-5.1,1.6c-3.7,2.4-7.6,4.7-10.8,7.7c-4.3,4.1-8.8,4-13.8,2.1c-3.2-1.2-6-0.9-8.4,1.9
	c6.6,4.4,6.6,4.4-0.2,9.7c1.4,2.2,2.6,4.1,5.8,2.1c1.1-0.7,2.9-0.4,4.4-0.5c-0.3,1.6-0.6,3.2-1.1,4.7c-0.6,1.5-1.3,3-2,4.4
	c2.6-0.4,4-0.6,5.3-1c2.5-0.7,4.9-1.8,7.5-2.1c2.7-0.3,3.8-1.3,4.7-4c0.9-2.5,3.1-6,5.2-6.4c6.6-1.1,13.2-1.6,19.8-1.5
	c3.2,0,4.4,2.1,2.7,5.2c-0.4,0.8-0.7,1.5-1,2.3c2,1.6,4.3,2.7,5.1,4.4c3.6,7.9,6.7,16.1,10.1,24.1c0.5,1.3,1.3,2.9,2.4,3.4
	c4.2,2,2.9,4.6,1,7.3c-0.8,1.2-1.8,2.2-3,3.5c1,0.3,1.9,0.6,2.8,1.1c1.4,1,3.7,1.9,3.8,3.1c0.2,1.4-1.3,3.3-2.6,4.4
	c-1.7,1.3-3.7,2.3-5.7,2.9c-2.3,0.8-4.6,1.3-8.8,2.5c7.8,3.6,6.3,8.8,4.9,13l8.7,3.1l-5.8,10c0.3,0.9,1.7,3.1,1.1,4.3
	c-0.8,1.6-3.2,2.3-5,3.5c5.9,2.5,8.1,6.7,6.8,12.8c-1.4,6.6-8.8,5.4-13.4,9.9c2.7,0,4.3,0,5.9,0c6.4,0,10.1,5.6,7.1,11.3
	c-1.7,3.3-6.3,4.8-5.5,9.6c0,0.3-1.6,0.9-2.5,1.2c-2.6,0.8-8.9,8.1-7.8,8.7c2.3,1.4,5.2,1.5,7.9,2.2c0.5,0.1,1,0.1,1.5,0.1
	c3,0.3,4.2,1.9,3.4,4.8c-1.1,4-2.7,7.3-7.6,8.1c-2.9,0.5-5.7,2.2-8.5,3.4c3.2,5.9,4.9,6.8,11.3,3.9c5.1-2.3,7.9,0.3,10.5,3.7
	c2.6,3.5,2.1,6.8-1.1,9.8c-0.5,0.7-1,1.4-1.3,2.2c9.5,6.7,1.2,10.8-2.6,15.8c2.4-0.4,4.8-1,7.1-1.7c4.1-1,8.3-2.4,12.5-2.8
	c9-0.8,16.3,3.8,23.5,8.3c18.5,11.3,27,35.8,18.3,55.3c-5.8,13-15.6,23.1-28.7,28.7c-15.4,6.6-30.2,4.7-42.6-7.8
	c-1.6-1.9-3.5-3.6-5.6-5c-1.5-0.7-3.1-0.7-4.6,0.1c-4.3,3.2-8.5,1.7-10.2-3.4c-0.9-2.7-3.4-4.8-5.1-7.3c-1.3-1.9-2.3-3.9-3.4-5.9
	c1.9-1,3.7-2.1,5.7-2.9c0.9-0.4,2.4,0.2,2.9-0.3c1.2-1.5,2.7-3.3,2.9-5c0.1-1.7-1.4-5.3-2.1-5.2c-5.1,0.3-7.3-2.9-8.4-6.2l-7.6,2.9
	c-0.8-2.7-1.8-5.4-2.4-8.2c-0.3-1.1,0.2-2.3,0.2-3.5c0.2-11.9,6.2-21.9,11-32.2c1.6-3.4,0.5-4.5-2.5-4.3c-1.9,0.2-4.8,1-5.5,2.4
	c-3.3,6.1-6.1,12.4-8.3,19c-2,6.3-2.7,13-4.4,19.5c-0.4,1.5-2.6,2.5-3.9,3.7c-1.1-1.3-2.6-2.4-3.2-3.9c-0.6-1.8-0.9-3.7-1.1-5.6
	l-10.5-2c0,1.6-0.1,3.4,0,5.1c0.2,5,0.7,10,0.7,15c0,4.3-3.4,7.7-7.7,8.5c-4.6,0.9-6.3-1.8-7.2-5.6c-0.1-0.6-0.4-1.2-0.8-2.6
	c-1.2,2.2-1.6,2.9-2,3.6c-1.5,3.2-3.7,6.6-7.3,5.4c-3.1-1.2-5.7-3.6-7.1-6.6c-1.8-4.2-1.9-9-2.8-13.6c-0.3-1.6-0.4-3.2-0.6-4.8
	l-1.2-0.3c-0.3,5.1-3.6,6.7-7.7,7.4c-4.3,0.7-6,3.4-6.4,7.6c-0.2,2.5-1.7,4.9-2.6,7.4c-2.3-1.8-4.6-3.8-6.6-5.8
	c-1-1.2-1.1-3.1-1.9-4.6c-1-1.7-1.9-3.8-3.4-4.7C124.4,407.5,120.4,403.8,119.2,396.8L119.2,396.8z M397,671.1l0,0.9
	c16.2-1,32.4-2.5,48.6-2.8c27-0.5,54-0.1,81-0.1c0.3,0,0.7,0,1,0.1c12.2,1.3,24.5,3.1,36.7,3.9c12.3,0.8,24.9,1.1,37.3,1
	c20.3-0.1,40.5-0.6,60.8-0.9c0.7,0,1.3-0.2,2-0.2c10.4,0,20.8,0.1,31.2-0.1c4.1-0.1,8.8,2.3,11.9-3.3c4.2-7.7,1.6-16,2.6-23.9
	c0.1-0.9-1.1-2-1.5-3c-1.5-4-4.1-8.2-4.1-12.2c0.2-19.7,1.1-39.4,1.8-59.1c0.1-0.8,0.3-1.6,0.5-2.4c1.5-8.4,4.3-16.5,3.6-25.2
	c-0.5-6.9-1.9-8.8-8.8-9c-18.6-0.4-37.2-0.9-55.8-1c-53.4-0.4-106.9-0.8-160.3-1c-12.5-0.1-25,0.2-37.5-0.1
	c-4.1-0.1-6.5,1.7-8.8,4.5c-2.6,3.2-5.1,6.4-7.7,9.6c-7.5,9.1-15.3,18.1-22.6,27.3c-6.5,8.2-13.8,15.5-22.9,20.7
	c-5.8,3.2-12.8,4.8-17.8,8.9c-8.8,7.2-18.8,11.5-29.2,15.3c-11.3,4.2-16.8,13.1-15,25.2c0.6,3.8,2,7.5,2.9,11.4
	c1.5,6.6,6,11.3,11.9,12.5c9.9,2,20.2,2.6,30.3,3.2C378.3,671.5,387.6,671.1,397,671.1z M548.2,827L548.2,827c0-16.5-0.1-33,0-49.5
	c0.1-8.5-0.7-16.5-4.7-24.4c-4.8-9.5-9.9-17.7-21.5-19c-11.1-1.2-22.2-1.1-30,8.3c-3.1,3.8-4.8,9.1-6.1,14c-1.9,6.9-3.9,14-4,21.1
	c-0.4,31.3-0.2,62.7-0.2,94c0,7.1-0.2,14.1,3.5,20.7c1.7,2.9,0.4,5.2-3.2,5.5c-10.4,0.8-20.7,1.7-31.1,2c-6.8,0.2-13.5-0.8-20.3-0.9
	c-26.7-0.1-53.3,0-80,0c-1.5,0-3-0.1-4.5-0.1c-6.2,0.1-12.4-0.2-18.5,0.5c-1.8,0.2-4.6,3.1-4.6,4.8c-0.4,13.3-0.3,26.7-0.1,40
	c0,2.6,1.3,4.8,4.8,3.5c1.3-0.4,2.6-0.5,4-0.3c6.9,0.6,13.8,1.8,20.6,1.9c37.8,0.2,75.7,0.3,113.5,0c7.6-0.1,15.2-2.2,22.8-3.1
	c3-0.3,6.3-0.4,8.9,0.7c9.5,4.2,18.5,3.5,27.2-1.8c3.1-1.9,5.6-1.8,8.6,0.2c4.9,3.4,6.5,3,9.8-2c1.9-3,4.7-3.7,6.8-1.1
	c5,6.3,11.3,6.6,18.8,6.4c30.7-0.5,61.4-0.1,92.1-0.3c12.8-0.1,25.5-0.6,38.3-0.9c3.8-0.1,5.9-1.8,6-5.7c0-9.4,0.3-18.8-0.1-28.1
	c-0.3-9.2-2.7-11.6-10.3-11.6c-47.4-0.3-94.9-0.6-142.3-0.9c-4.9,0-9.9,0.8-14.8,0.9c-9.5,0.1-19,0.1-28.5,0
	c-4.4,0-8.9-0.3-13.3-1.1c-1.8-0.4-3.2-2.8-4.7-4.3c1.4-0.7,3-2.1,4.3-2c14,1.4,27.9,2.9,41.9,0.9c8-1.2,10.7-3.7,10.7-11.6
	L548.2,827z M433.6,42.1l2.4-0.2c0.8,2,1.4,4.1,1.8,6.2c0.5,4.6,0.5,9.2,1.2,13.8c0.2,1.2,2.1,2.8,3.4,3c5.3,1.2,10.6,1.9,16,2.3
	c8.7,0.4,17.4,0.4,26.2-0.1c8-0.5,15.9-2.6,23.9-2.9c4.9-0.2,9.9,2.6,14.9,2.6c15.4-0.2,30.7-1.1,46.1-1.9c3.3-0.1,6.5-1,9.8-0.9
	C597,65,614.8,66,632.6,67c4.3,0.2,6.4-2.6,6.3-6c-0.2-3.9-0.9-8.5-3-11.6c-3.4-4.9-2.9-9-1.1-14.3c2-5.9,2.5-12.4,3.1-18.7
	c0.1-1.5-1.9-4.1-3.4-4.6c-3.3-0.9-6.8-1.3-10.2-1.2c-29.8-0.4-59.5-0.8-89.3-0.9c-7.8-0.1-15.5,0.9-23.3,0.9
	c-21.5,0.1-43,0.1-64.5,0c-4.2,0-7,1.1-7.7,5.7c-0.4,2.4-1,4.7-1.9,7c-0.4,1-1.8,2.2-2.6,2.1c-1.2-0.3-2.1-1.1-2.6-2.3
	c-0.8-2.2-1.2-4.4-1.2-6.7c0.1-4.7-2.3-5.9-6.5-5.9c-8.9-0.1-17.9-0.4-26.8-1.1c-8.3-0.6-16.6-2.7-24.9-2.7
	c-28.3-0.1-56.5,0.5-84.8,0.8c-20.6,0.3-41.2,0.7-61.8,1c-5.3,0.1-6.3,1.5-5.4,6.7c0.9,4.7,1.5,9.4,1.7,14.1
	c0.1,4.9-0.7,9.9-0.8,14.8s0.8,5.3,5.2,3.9c1.6-0.5,4.5-0.7,5.1,0.1c1,1.4,0.8,3.8,0.5,5.7c-0.4,2.9-1.4,5.6-2.5,9.6
	c10-0.6,18.6-1.5,27.2-1.5c15.6,0,31.2,0.4,46.8,1c4.2,0.2,9.2,0.2,12.3,2.5c7.4,5.4,14.9,3.2,22.1,1.4c15-3.6,30.1-1.7,45.1-1.8
	c11.7-0.1,23.6,2.6,35.1,1.4c12.5-1.4,13.7,0.8,13.4-14.2C432.1,49,433.1,45.5,433.6,42.1z M651.9,323.8l-0.1,1.3
	c-1.1,0.5-2.2,1.4-3.3,1.5c-4.8,0.5-9.5,1-14.3,1c-18.7,0.1-37.3,0-56,0c-14.5,0-29-0.1-43.6,0c-26.5,0-53,0-79.5,0.1
	c-4.6,0-6,1.9-4.3,6.2c2.7,6.8,6.1,13.3,8.7,20s4.7,13.7,6.9,20.6c0.2,0.6,0.3,1.3,0.2,2c-0.5,4.1,1.9,4.5,5.2,4.6
	c49.6,0.3,99.2,0.6,148.8,1c14.8,0.1,29.7,0,44.5,0c1.7,0,3.3,0.1,5,0.2c11.4,0.6,22.8,1.4,34.2,1.6c2.3,0,5.7-0.3,5.8-4.5
	c0.2-14.4,0.7-28.9,0.9-43.3c0-2-0.6-4.8-2-5.8c-5.6-4.2-4.2-7.4,0.7-10.6c0.2-0.1,0.2-0.6,0.5-2.2c-2.6-0.9-5.3-2.1-8.2-2.6
	s-5.7,0.1-8.5-0.2c-12.9-1.3-25.8-3.4-38.7-3.8c-13.9-0.5-27.7-0.4-41.4-3c-7.2-1.4-14.7-1.4-22-2.5c-13.2-2-26.4-4.4-39.6-6.6
	c-5.2-0.9-10.4-1.2-15.5-2.4c-7.9-1.9-15.6-4.4-23.5-6.5c-5.2-1.4-10.4-2.6-15.5-4.1c-6.4-1.8-12.8-3.8-19.1-5.9
	c-7.1-2.3-14.2-4.8-21.2-7.1c-6.2-2.1-12.4-4-18.5-6.1c-10.2-3.6-20.4-7.3-30.6-10.9c-6.1-2.1-12.3-4-18.5-6
	c-12.1-3.7-24.1-7.8-36.4-10.8c-10-2.4-20.2-4.1-30.4-5c-13-1.2-26.1-1.6-39.1-2c-3.2-0.1-7.5,0.6-7.5,4.6c0,4.4,4.3,3.8,7.4,3.6
	c19.1-1.6,37.8,1.8,56.4,5.2c8.4,1.5,16.6,4.6,24.5,7.7c17.1,6.8,31.2,17.9,43.4,31.6c0.6,0.7,1,2.6,0.6,2.9
	c-3.1,2.7-0.8,5.1,0.7,6.9c2.8,3.4,6.2,6.3,9.8,9.8c0.3-2.5,0.5-4.4,0.7-6.7c4.9,1,9,2.2,10.5,7.6c0.4,1.5,2.1,2.8,3.2,4.1
	c1.6,1.9,3.6,3.5,4.8,5.6c1.5,2.8,3.4,3.4,6.3,3.5c15.6,0.2,31.2,0.6,46.8,0.9c12.6,0.3,25.2,0.7,37.8,1c12.3,0.3,24.7,0.8,37,1
	c20.8,0.4,41.5,0.7,62.3,1c5.7,0.1,11.3-0.2,17,0.1C647.4,322.2,649.6,323.2,651.9,323.8z M352.5,215.7c-0.1,0.4-0.2,0.7-0.3,1.1
	c3.6,1.1,7.3,2.2,10.9,3.3c7.3,2.3,14.5,4.7,21.8,6.9c6.2,1.9,12.5,3.4,18.7,5.4c7.1,2.3,13.9,5.2,21,7.5c5.8,1.9,11.9,3.3,17.7,5.3
	c5.1,1.8,9.9,4.7,15.1,6.4c10.8,3.6,21.6,6.8,32.6,9.8c14.4,4,28.8,7.8,43.3,11.4c9.3,2.3,19,3.2,28,6.3c9.2,3.1,18.9,4.4,28.6,3.8
	c0.5,0,1,0.1,1.5,0.3c7.7,0.9,15.3,2,23,2.7c7.9,0.6,15.9,0.5,23.8,1.1c16.9,1.2,33.8,2.6,50.7,4c1.8,0.1,3.6,0.6,5.4,0.7
	c4.9,0.2,9.9,1.4,15.5-1.3c-1.8-0.9-2.6-1.6-3.4-1.6c-4.4-0.1-8.7,0.2-13.1-0.1c-13.2-0.9-26.3-2-39.4-3c-4.9-0.4-9.9-0.5-14.8-1.1
	c-10.3-1.2-20.5-2.6-30.7-3.9c-11.8-1.5-23.7-2.9-35.5-4.7c-6.6-1.1-13.1-2.6-19.5-4.4c-1.4-0.4-2.4-2.1-4.5-4.1
	c3.2-0.6,5.1-1.5,6.9-1.3c7.6,0.8,15.2,2,22.9,3c6.5,0.8,13.1,1.2,19.6,2c6.2,0.8,12.2,2.3,18.4,2.9c16,1.5,32.1,3,48.2,4
	c13.9,0.8,27.9,0.8,41.8,1.1c3.4,0.1,4.4-2.1,4.1-5.2c-0.2-1.8-0.5-3.6-0.5-5.4c0-10.4-0.1-20.8,0-31.1c0-3-0.7-4.6-4.1-4.7
	c-9-0.1-18-0.5-26.9-1c-9.5-0.5-19.1-1-28.6-2.1c-12.4-1.4-24.7-3.5-37-4.8c-4.3-0.4-5.8-2-5.2-5.5c-5,0.5-9.8,1.3-14.7,1.2
	c-3.6-0.1-7.1-1.3-10.6-1.9c-13.8-2.3-28.1-1.8-41.5-6.8c-2.4-0.8-4.8-1.4-7.2-1.9l4.5-5.5c-2.4-0.6-5.4-0.7-6.8,0.8
	c-2.7,2.8-5.7,2.4-8.7,2.2c-3.3-0.2-6.5-0.6-9.8-0.9c-9.9-1.2-19.9-2-29.7-3.7c-11.9-2.1-23.6-5-35.4-7.3c-7.2-1.4-14.5-2.4-17.4-12
	c-2.8,6.6-7.2,4.8-11.8,4.1c-7.5-1.1-15.1-1.2-22.6-2.2c-6.6-0.9-13.1-3.1-19.7-3.8c-16.6-1.7-33.2-2.8-49.8-4.1
	c-12.5-1-25-1.8-37.4-3.2c-2.4-0.3-4.5-2.9-6.9-4.2c-1.2-0.7-3.4-1.5-3.8-1c-2.6,3.1-6,6.2-7,9.9c-2.3,7.7,5.3,19.4,13.3,20.8
	c7.3,1.3,14.7,1.4,22,2.1c9.8,1,19.6,2,29.4,3.1c3.9,0.4,7.8,1,11.6,1.7c5.5,1,10.9,2.1,16.4,3.2c8.8,1.7,17.7,3,26.3,5.2
	c8,2,15.7,5,23.5,7.7c4.1,1.5,8.1,3.2,12.1,5.1c1,0.5,1.6,2,2.4,3.2c-6.1,3-6.1,3-11.1,0.8c-1.9-0.9-3.9-1.7-5.9-2.4
	c-7.3-2.1-14.7-4-22-6.1c-8-2.3-15.8-5-23.9-6.8C361.7,215.8,357.1,216.1,352.5,215.7z M646.2,828.2c0-16.2-0.1-32.3,0-48.4
	c0.1-8.1-0.7-15.8-3.9-23.5c-5.2-12.5-17.1-21.5-30.6-21.5c-2.3,0-4.7,0.1-7,0c-10.4-0.4-25,8.6-28.3,19.3c-3,9.6-5.2,19.8-5.4,29.7
	c-0.7,31-0.2,61.9-0.2,92.9c-0.2,3.7-0.1,7.3,0.2,11c0.2,1.6,1.7,3.9,2.9,4.2c4.2,0.8,8.5,1.2,12.8,1.2c8.5,0.2,17-0.1,25.5,0.1
	c4.3,0.1,7.7-0.8,10.6-4.2s6.3-3.9,10.1-1.5c1.1,0.7,2.1,1.8,3.3,2.2c2.7,0.9,5.5,2,8.3,1.9c0.6,0,1.7-4.2,1.7-6.4
	C646.2,866.2,646.2,847.2,646.2,828.2z M537,713.7c6.8,6.1,13.1,11.5,19.2,17.2c5.4,5.1,6.6,5.3,12.2,0.2c1.8-1.7,3.8-3.5,5.7-1
	c0.6,0.7-1.2,3.3-1.9,5c-0.1,0.6-0.2,1.2-0.2,1.7l24.2-14.1c-3.1,0.3-6.1,0.9-9,1.8c-1.6,0.4-3.2,1.2-4.7,1s-2.6-1.5-3.9-2.3
	c0.9-1.1,1.8-2.1,2.9-3c1.9-1.2,3.9-2.2,6-3c5.4-2.2,10.7-5.2,16.3-6.1c7.8-1.3,15.9-1,23.9-1.1c1.2,0,3.4,1.1,3.6,2
	c1.7,7.6,8.3,10.9,13.5,14.9c5.2,4.1,9.8,10.3,17.8,10.4c2,0,4,2.4,2.5,5.7c-2.3,5-6,6.1-10.4,2.6c-1.3-1-2.5-2.2-4-3.5
	c-0.5,1-0.8,1.4-0.7,1.6c0.1,0.6,0.4,1.2,0.8,1.8c6.8,9.2,6.5,19.8,6,30.4c-0.1,2.4-0.9,4.9-1,7.3c-0.1,19.5-0.1,39,0,58.5
	c0.2,1.7,0.5,3.3,0.9,4.9h1.6c0.4-1.8,0.7-3.6,0.8-5.4c0-21.7-0.3-43.3,0.2-65c0.3-12.1,3.3-23.6,11.2-33.4c1.9-2.3,3.4-5,4.7-7
	c-3-1-5.7-1-6.8-2.4c-2.2-2.6,0.1-5,2.2-6.5c3.9-2.6,7.8-5.4,12.1-7.1c5.4-2.1,6.5-4.2,2.8-9.5c1.3-0.7,2.6-1.2,4-1.6
	c3.7-0.5,7.5-0.9,11.3-1c4.3-0.1,6.3-2.1,6.5-6.4c0.2-4.2-1.3-7-6.1-7.1c-1.7,0-3.3-0.7-6.3-1.3c3.8-2.7,6.3-4.3,8.5-6.1
	c0.8-0.7,1.9-2.3,1.6-2.9c-0.6-1.1-2-2.4-3.1-2.4c-6.3,0-12.6,0.7-18.9,0.7c-22.4-0.2-44.9-0.4-67.3-1c-18.2-0.4-36.4-1.8-54.6-1.9
	c-70.8-0.2-141.7,0-212.5-0.1c-3.9,0-7.9-0.8-11.8-0.9c-1.8,0-3.7,0.7-6.4,1.3l8.9,5.3c-1.6,0.8-3.2,1.6-4.9,2.3
	c-4.8,1.4-9.8,2.4-14.5,4.1c-1.6,0.6-3.8,2.7-3.8,4.2c0,2.3,0.9,5.8,2.5,6.7c3.4,2,7.2,3.1,11.1,3.2c15.3,0,30.5-0.8,45.8-0.8
	c36.9,0.1,73.9,0.7,110.8,1c15.8,0.1,31.7-0.1,47.5,0c7.6,0.1,15.2,0.5,22.8,1.1c1.5,0.1,2.8,1.8,4.2,2.8c-1,1-2,2.4-3.2,2.8
	c-2.4,0.6-4.8,0.9-7.3,0.9C545.9,713.8,541.6,713.7,537,713.7z M41,403.2l-0.7,0.1c0.9,4.3,1.5,8.7,2.6,12.9
	c1.5,5.7,2.9,11.4,5.1,16.8c1.6,3.9,5.4,5.6,9.8,4.7c4.8-1,7.5-3.8,7.3-8.8c-0.2-3.4-0.6-6.9-1-10.3c-2.1-17.7-4.2-35.5-2.9-53.4
	c0.9-11.9,2.5-23.8,4.7-35.5c1.7-9.1,5-17.8,7.1-26.9c2.8-12.4,7-24,14-34.7c3.3-5,6-10.4,8.9-15.6c1.7-3,3.1-6.1,5.1-8.9
	c5-7.1,9.8-14.4,15.3-21c5.3-6.3,9.6-14,18.4-16.6c0.9-0.3,1.7-1.4,2.4-2.2c4.7-5.4,9.1-11.1,14-16.2c2.2-2.3,5.4-3.5,8.1-5.3
	c4.8-3.1,9.5-6.4,14.3-9.4c1.8-1,3.7-1.9,5.6-2.6c3.2-1.4,6.3-2.9,9.5-4.2c1.2-0.5,2.6-0.4,3.6-1.1c4.7-2.9,9.2-6.1,14.1-8.7
	c2-1.1,4.8-0.8,7.2-1.4c1.6-0.4,3.9-0.5,4.5-1.6c2.2-3.5,5-3.6,8.5-2.9c1.6,0.3,4.1,0.3,4.8-0.7c2.6-3.4,6.4-3.8,10-4.6
	c4.1-0.9,8.4-1.2,12.6-2.1c4.2-0.9,7.5-2.5,7.1-8.1s0.4-11.2,0.9-16.8c0.4-4.7-2.8-5-5.8-4.3c-12,2.9-24.4,3.7-36.4,7.4
	c-12.3,3.7-24.3,8.2-36,13.5c-23.9,11.2-44.6,27-63.4,45.1c-11.4,11.1-21.8,23.4-31.8,35.9c-10.8,13.3-19.7,28.1-26.2,44
	c-4.9,12-9.4,24.2-13.3,36.6c-3.1,9.6-5.1,19.5-7.3,29.4c-1.3,5.7-1.7,11.6-2.7,17.4c-2.1,11.7-3.6,23.4-1.5,35.3
	C39.1,386.6,39.9,394.9,41,403.2z M493.1,470.1c-3,0.8-4.6,1.5-6.3,1.6c-4.8,0.5-9.5,0.7-14.3,1.1c-4.2,0.4-7.5,4-6.5,8.5
	c0.4,1.7,4,3.5,6.3,3.7c9.2,0.7,18.5,1,27.8,1.1c27.3,0.1,54.7,0,82,0c1.3,0,2.9,0.4,3.9-0.2c1.8-1.1,4.3-2.6,4.8-4.4
	c0.8-3.3-1.4-5.7-4.6-6.5c-2.7-0.7-5.5-1.1-8.2-1.2c-17.7-0.4-35.3-0.8-53-1c-11.5-0.1-12.2,2.1-11.8-12.4c0-1.8,1.8-3.4,2.7-5.2
	l4.2,3.6c2,1.8,3.9,4.6,6.2,5c6.4,1.4,13,2.1,19.6,2.1c12.4-0.2,24.7-1.1,37.1-1.9c4.5-0.3,5.8-2.4,4.5-6.5
	c-2-6.3-3.9-12.7-6.4-18.8c-1.2-3-0.5-5.1,1.8-6.3c3-1.7,3.7-4,3.4-7c-1-8.9-1.9-17.9-3.3-26.8c-0.5-2.9-1.5-5.9-5.9-5.9
	c-16.3-0.1-32.5-0.8-48.8-0.9c-6.4-0.1-12.9,1-19.3,0.9c-9.9-0.1-19.9-0.7-29.8-0.9c-6.7-0.1-7.4,0.5-7.2,7
	c0.3,12.8,0.8,25.5,0.9,38.3c0,2.4-1.3,4.7-2,7.1l-1.8-0.3l-4.9-7.8c-0.5,6.1-1.4,10.9-7.1,12c1.3,4.5,2.4,8.5,3.8,13.2
	c0.9-3,1.1-5.7,2.4-7.7s3.7-3.8,5.6-5.7l1.3,0.6c0.4,2.4,0.6,4.7,0.7,7.1c-0.1,7.7,0.4,8.1,7.9,8.8
	C483.4,464.6,488.4,465.2,493.1,470.1L493.1,470.1z M461.1,887c0.5-2.2,0.8-4.5,1-6.7c0-31.3-0.1-62.6,0.1-93.9
	c0-11.4,0.1-22.7-4.1-33.6c-3.8-9.8-8.8-18.3-20-21.1c-4.4-1.1-17.2,2.2-20,5.5c-5.9,6.7-8.1,14.8-8.2,23.5
	c-0.4,29.9-0.7,59.8-1,89.8c0,1.1-0.5,2.3-0.5,3.4c0.1,11.1,0.2,22.1,0.6,33.2c0,1.1,2.1,2.9,3.4,3c9.1,0.6,18.2,1.2,27.3,1
	c3.2-0.2,6.2-1.5,8.6-3.8C453.2,881.9,454.1,881.5,461.1,887L461.1,887z M247.8,436.2c6.4,6,11.9,11.7,18.1,16.8
	c3.1,2.6,7.1,5.2,11,5.8c6.4,0.9,13,0.5,19.4,0.1c2.5-0.1,4.9-1.6,7.2-2.7c8.8-4.2,14.8-11.5,20.7-18.7c7.5-9.1,9.2-28.8,3.9-38.8
	c-4.9-9.4-11.6-17.2-21-22c-7.1-3.6-14.6-7.8-23.2-4.7c-5.5,2-10.8,4.4-16.3,6.5c-1.6,0.8-3.4,1.2-5.2,1.3c-1.5-0.1-3-0.8-4-2
	c-0.4-0.6,0.5-2.9,1.5-3.7c2.5-1.8,5-3.5,7.7-5c2.6-1.6,5.6-2.8,5.3-6.9c-0.9-0.1-1.6-0.4-2.1-0.2c-3,1.1-5.9,2.7-9,3.4
	c-2,0.4-4.2-0.5-6.4-0.8c1-1.5,1.7-3.3,3-4.3c4.1-3.1,8.6-5.7,12.8-8.7c2.8-2,2-3.9-0.4-5.8c-3.5-2.7-11.9-0.7-14,3.3
	c-0.9,1.7-2,3.8-3.5,4.5c-8,3.3-12.5,9.7-15.9,17.2c-1.7,3.7-3.5,7.3-5,11.1c-2.4,6-4.7,12.1-6.5,18.3c-0.9,3.1-0.8,6.5-1.2,9.8
	l1.6,0.6c1.9-2.9,3.6-5.9,5.7-8.6c0.8-1.1,2.3-1.5,3.6-2.3c0.7,1.5,1.2,3.1,1.5,4.6c0.2,1.9,0.2,3.8,0.1,5.6l1.5,0.1l5.5-7.5
	c4.3,6,2.3,11.8,2.6,17.2c0.3,5.5,1.7,11.7-6,13.4C242.1,438,244.1,439.8,247.8,436.2z M283.6,345.5l0.1,2.3
	c1.4,0.4,2.9,0.9,4.3,1.2c2,0.4,4.4,0.3,6.1,1.3c1.3,0.7,1.7,2.8,2.5,4.3c-1.3,0.7-2.6,1.4-4,2c-1.6,0.7-3.3,1.2-5,1.7
	c1.9,1.6,3.5,2.5,5.2,2.6c9,0.3,17.1,3.4,25,7.6c10.5,5.6,16.9,14.7,22,25.2c3.8,7.6,3.9,15.7,5.9,23.5c0.7,2.2,1.6,4.4,2.5,6.6
	c2.3-3.6,3.6-7.8,5.8-8.3s5.4,2.5,8.6,4.2c0.4-1.3,0.9-2.9,1.4-4.5c1.5-4.7,1.6-9.8,0.1-14.5c-0.3-0.9,1.1-2.4,1.7-3.6
	c0.9,0.9,1.9,1.8,2.8,2.7c0.9,0.9,1.7,2,2.5,3c0.5-1.4,0.9-2.7,1.4-4.1s0.6-2.9,1.5-3.5c0.7-0.5,2.8-0.1,3.5,0.7
	c3,3.2,6.1,6.1,5.3,11.5c-0.6,4,0.3,8.2,1,12.3c0.4,2.2,1.7,4.3,3,7.4c1.1-2.3,2.1-3.4,2.1-4.5c0-5.3-0.4-10.6-0.4-15.9
	c0-1.7,0.4-4,1.5-5.1c4-3.6,4.4-9.8,0.8-13.8c-0.5-0.6-1.1-1.1-1.8-1.5c-6.5-4.5-6.5-6.7,0.3-11.4c0.7-0.5,1.3-1.1,1.8-1.7
	c1.9-1.8,3.8-3.7,5.7-5.5c1.2,2.3,2.5,4.6,3.7,6.9c0.1,0.1,0,0.4,0.1,0.5c4.5,4.2,2.8,9.3,2.8,13.9c1.7,1.9,3.5,3.9,4,6.2
	c2,9.8,3.4,19.6,5.3,29.4c0.3,1.6,1.7,3.9,2.9,4.1c1.5,0.3,3.7-0.9,5-2.1c3.2-2.9,2.5-6.9,1.9-10.7c-0.9-5.5-1.5-11-2.7-16.4
	c-2-8.7-3.9-17.5-6.8-25.9c-3.3-9.2-7.1-18.2-11.3-27c-2.2-4.7-5.1-9.1-8.6-12.9c-4.2-4.4-8.8-8.4-13.8-11.9
	c-9.6-6.8-19.1-13.9-29.4-19.2c-9.3-4.8-19.7-7.5-29.6-11.1c-11.2-4.1-22.7-3.2-34.1-1.7c-1.6,0.2-3,2.1-4.4,3.2
	c1.9,1,3.6,2.8,5.5,3c4.9,0.6,10,0,14.8,1c8.9,1.9,17.6,4.4,26.3,7.3c7.5,2.7,14.8,5.8,22,9.3c1.2,0.6,1.5,3,2.2,4.6
	c-1.4,0.7-2.8,1.2-4.3,1.6c-2.1,0.4-5-0.5-6.3,0.7c-6.4,5.6-13.8,4.1-20.6,2.4c-11.8-3-23.5-4.9-35.6-3.9c-1,0.1-2,1-3,1.6
	c1,0.6,1.9,1.5,3,1.6c5.3,0.5,10.7,0.1,15.8,1.2c9.8,2.2,19.9,4.2,29.1,8.1c11.9,5,20.7,14.6,28.4,24.8c1.2,1.6,1.3,5.1,0.4,7.1
	c-1.4,3-4,5.3-5.7,7.4c-3.7-3.6-6.5-7.1-10.1-9.7c-2.5-1.9-6.1-2.3-8.9-4c-4.6-2.8-8.6-7.2-13.5-8.8c-8.6-2.5-17.4-4.2-26.3-5.1
	C291.4,342.5,287.4,344.6,283.6,345.5z M442.3,719.8c-0.1-0.4-0.2-0.9-0.3-1.3c-0.7-0.3-1.4-0.5-2.1-0.7c-6-0.7-12-1.4-18.1-2.1
	c-5.7-0.6-11.4-1.4-17.1-1.9c-2.2-0.2-4.3-0.2-6.5,0c-2.4,0.1-4.9,0.4-7.3,0.7c1.1,2.1,2.4,4.1,3.8,6c5,6.2,5.3,6,11.6,0.5
	c2.4-2.1,5.7-2.9,9.3-4.7c0,2.2,0.3,3.1,0,3.5c-4.6,5.9-9.1,12-14.1,17.6c-1.8,2-6.2,0-7.5-2.4c-1.9-3.6-4.2-6.9-6.7-10.1
	c-2.5-3.1-5.8-4.6-9.8-1.9c-1.6,1.2-3.4,2.1-5.3,2.7c-6.9,1.5-10.8,5.7-12.5,12.3c-1.4,5.3-2.7,10.7-3.9,16
	c-1.1,4.9-2.9,9.9-2.9,14.9c-0.2,37.5-0.1,75-0.1,112.4c0,4,1.3,7.6,6.1,8.1c6.9,0.7,13.7,2,20.5,1.7c3.9-0.2,9.5-1.2,10.4-6
	c1.1-7.2,1.5-14.5,1.1-21.8c-0.1-7-1.8-14.1-1.8-21.1c0.1-28.1,0.6-56.2,1-84.3c0.1-0.9,0.3-1.7,0.6-2.6l7.5,5.6
	C401.4,734.6,414.3,718.9,442.3,719.8z M245.1,605.1l0.2-1.1c4.2,0,8.4,0.3,12.5-0.1c1.5-0.1,3.9-1.6,4.2-2.9
	c1.3-5.7-3.4-11.4-9-12.4c-13.3-2.2-26.6-4.5-39.9-7.1c-14.2-2.7-27.2-8.6-39.4-16.2c-11.5-7.2-23.1-14.5-33.6-22.9
	c-11.6-9.4-23.1-19.4-32.9-30.7c-15.6-18-25.5-39.6-34.3-61.7c-1.8-4.4-4.6-5.7-9-3.9c-1.2,0.5-2.4,1-3.7,1.3
	c-2.7,0.7-6.5,0.4-7.7,2c-1.2,1.6,0.4,5.2,1.4,7.7c3.7,9.4,6.6,19.2,11.7,27.7c8.9,15,19,29.3,28.7,43.9c2.3,3.5,4.5,7.3,7.5,10
	c5.4,5,11.5,9.2,17.2,13.8c4.4,3.6,8.4,7.7,13.1,10.8c3.4,2.3,7.2,3.7,8.9,7.9c0.5,1.2,1.6,2.1,2.9,2.4c7.4,0.1,12.1,5.3,17.8,8.7
	c2,1.2,3.4,3.7,5.5,4.4c8.3,2.9,16.6,5.6,25.1,7.9c8.8,2.3,17.7,4.3,26.6,6C227.6,602.6,236.4,603.8,245.1,605.1z M640.2,49.6
	c0.8,1.8,1.4,3.2,2,4.6c4.5,9.7,0.3,16.5-10.1,16.7c-1.8,0-3.7,0.1-5.5,0c-11.2-0.2-22.3-0.2-33.5-0.8c-10.8-0.7-21.4-1.6-32.5,0.3
	c-12,2.1-24.6,0.7-36.9,0.4c-4-0.1-8-1.8-12.1-2.4c-3.3-0.5-6.7-0.6-10.1-0.2c-4.7,0.6-9.4,2.4-14.1,2.6c-10.6,0.4-21.3,0.2-32,0.1
	c-7.5,0-15.1,0.3-19.5-5.4c-5.2,2-9.6,4.8-14,5c-11.8,0.6-23.6,0.6-35.5-0.1c-17-0.9-33.9-2.3-50.8,0.7c-2.1,0.5-4.1,1-6.1,1.8
	l0.2,1.4c1.4,0.3,2.8,0.5,4.2,0.6c14.7,0.7,29.3,1.7,43.9,1.7c77.5-0.1,154.9-0.5,232.4-0.6c13.5,0,26.9,0.5,40.4,1
	c9.6,0.4,19.3,1.2,28.9,1.7c10,0.5,20,0.8,29.9,1.1c2.8,0.1,5.2-0.6,5.2-3.9c0-8.8,0.1-17.6-0.3-26.4c-0.1-1.4-2-3.4-3.5-4.1
	c-4.9-2.3-6.6-5-4.6-10.1c1.8-4.4,4-8.7,6.4-12.9c2.8-5,6-9.7,9.2-14.8h-28.2c1.6,5.6,3.9,10.2,3.9,14.8c0,10-3.6,19.3-8.4,27.9
	c-4.3,7.8-10.1,7.8-16.8,2c-5.1-4.4-5.5-10.5-7.5-16c-3.2-8.9-3.2-17.6,2.3-25.8c0.5-1,0.8-2.1,1.1-3.2h-37.4c2.9,1.5,7,2.4,9,5
	s2,6.9,3,11c1.2-1,1.7-1.5,2.4-2c1.5-1.1,3.1-2.1,4.6-3.1c1.1,1.7,2,3.5,2.7,5.4c0.8,2.7,0.8,5.6,1.7,8.3
	C658.4,43.2,652.4,51.1,640.2,49.6z M362.2,265l-0.3,1.5c-2.1,0.4-4.2,0.8-6.3,1.2c-1.6,0.3-3.8-0.1-4.7,0.8
	c-5.2,5.3-10.7,3.3-16.5,1.4c-2.9-1.1-5.9-1.8-9-2.1c-11.6-0.5-23.2-0.8-34.8-1c-1.8,0-3.9,0.1-5.2,1.1c-1.6,1.2-3.6,3.4-3.4,5
	c0.2,1.9,2.3,4.8,3.9,5c4.6,0.7,9.3,0.3,14,0.3c6.9,0,13.6-0.4,20.4,2.5c7.6,3.2,15.9,4.7,23.6,7.6c11.4,4.2,21.7,10.5,31.3,17.9
	c10.4,7.9,22,14.3,28.7,26.4c3.6,6.5,8.9,12.2,12.3,18.8c4.3,8.6,8,17.4,10.9,26.6c2.5,8.4,4.4,17,5.6,25.7
	c1.2,6.9,1.3,14.1,2.3,21.1c0.2,1.3,2.2,3.1,3.6,3.3c4,0.6,6.4-2,6.5-7.3c0.2-11.2,0.1-22.4,0-33.6c0-1-0.3-1.9-1-2.6
	c-3.9-3-2.8-7-2.8-10.9c-0.1-1.4-0.5-2.8-1.2-4.1c-1.2-2.6-2.7-5.2-3.9-7.8c-1.1-2.4-1.9-5-3.2-7.4c-3.4-6.1-8.5-11.3-10.4-18.4
	c-0.7-2.7-2.4-5.2-3.8-7.7c-1-1.8-2.3-3.5-3.5-5.2c0.9-0.6,2.3-1.9,2.6-1.6c1.7,1.3,3.3,2.8,4.7,4.5c0.4,0.5-0.1,1.9,0.4,2.4
	c1.3,1.2,2.7,2.4,4.2,3.4l1.2-1.3c-2.3-6.6-6.6-11.9-11.9-16.3c-1.9-1.4-4.3-2.1-6.7-2.1c-4.2,0-8.1-2.7-6.5-5.6
	c2.1-3.9-0.4-5.5-2.2-7.8c-1.5-1.7-3-3.5-4.4-5.3c-4.6-7.1-14-8.4-18.9-15.2c-0.4-0.5-1.6-0.4-2.3-0.8c-4.1-2.3-8.1-4.7-12.2-7.1
	c0.2-0.6,0.4-1.1,0.5-1.7l7.4-3.8l-15.1-5.7l-0.6,1.2L362.2,265z M633.2,106.1c22.7,0,45.3,0,68,0c2.3,0.1,4.6-0.3,6.7-1.2
	c1.2-0.6,2-3,2-4.5c0-0.9-2.1-2.3-3.4-2.5c-4.1-0.7-8.2-1-12.3-1.1c-6.1,0.1-12.2,0.9-18.3,0.9c-6.8,0-13.5-0.8-20.3-0.9
	c-10.9-0.2-21.7,0.1-32.6-0.1c-13.1-0.2-26.3-0.8-39.4-0.9c-67.9-0.4-135.9-0.8-203.8-1c-19.1-0.1-38.2,0.7-57.3,0.9
	c-6.6,0.1-13.2-0.8-19.8-0.9c-3.3-0.1-8.4-0.6-8.5,3.5c-0.1,4.3,4.9,3.7,8.2,3.7c14.2,0.1,28.4-0.1,42.6,0.1
	c9.1,0.1,18.2,0.9,27.3,1c40.1,0.4,80.2,0.5,120.3,1.1c25.7,0.3,51.4,1.5,77.1,1.9C590.9,106.3,612.1,106.1,633.2,106.1L633.2,106.1
	z M599.8,716.4l0.3,1.3c2.5-0.4,5.1-0.9,7.7-1.1c2.1-0.2,4.4-0.4,6.3,0.3c1.5,0.8,2.6,2.2,3,3.9c0.1,0.8-2,2.6-3.3,3
	c-4.8,1.3-9.7,2.2-14.6,3.3c-12.4,2.7-21.7,10.4-30.4,19c-0.4,0.5-0.7,1.1-0.8,1.8c-1.7,9.3-4.4,18.6-4.7,27.9
	c-0.7,20.8-0.2,41.6-0.2,62.5c0,8.5-1,9.3-9.8,7.7c-0.3,2.8-0.8,5.5-0.8,8.2c0.2,1.1,0.9,2,1.9,2.5c6.4,2.1,12.3-1.9,12.5-8.6
	c0.4-13,0.7-26,0.9-39c0.2-10.2,0.2-20.3,0.2-30.5c0-10,1.7-19.9,6.4-28.4c8-14.5,22.1-20,37.9-19.8c20.8,0.4,37.1,23.8,36.8,38.9
	c-0.5,28.2-0.1,56.3,0,84.5c0,7.5,0.8,15.1,1.2,22.6h1.3c0.2-3.9,0.2-7.7,0.6-11.6c0.7-6.8,2.5-8.5,9.2-8.2c2.9,0.1,4-1.2,4.2-3.7
	c0.2-2,0.4-4,0.4-6c0.3-22.3,1.2-44.7,0.6-67c-0.5-17.5,7-30.4,19.3-41.3c4.6-4.1,10-6.8,16.5-5.6c2.3,0.4,4.6,1.5,8.2,2.7
	c0-8.7,0.1-16.7-0.1-24.8c0-0.5-2.2-1.6-3-1.3c-1.7,0.6-3.3,1.6-4.6,2.9c-5.1,5-11.5,8.6-18.4,10.6c-3.9,1.2-7.4,3.8-11.1,5.8
	l0.8,1.4c0.6-0.2,1.2-0.3,1.8-0.4c2.4,0.2,4.8,0.4,7.2,0.7c-1.1,2-1.8,4.3-3.2,6c-6.4,7.3-12,14.8-14.9,24.4
	c-3.8,12.8-3.1,25.8-3.1,38.7c0,15.1,0,30.3-0.1,45.4c0,3-1.1,6.3-4.7,5.5c-1.8-0.4-3.9-3.4-4.2-5.5c-0.7-4.7-0.5-9.6-0.5-14.5
	c0-15.7-0.9-31.4,0.4-46.9c1.3-14.7,1.4-28.5-8.3-40.8c-2.9-3.6-1.9-6.7,2.3-9.6c-3.9-3.1-7.4-5.8-10.8-8.8c-3.7-3.3-6.9-8.9-11-9.7
	c-7.8-1.4-16.1-0.1-24.2,0.2C600.7,715.1,600.3,715.9,599.8,716.4L599.8,716.4z M12.6,397.5l1.5,0.1c0.5-1.5,0.8-3.1,1-4.7
	c0.4-12.6,0.6-25.2,1.1-37.8c0.4-7.9,0.5-15.9,2-23.6c3.6-18.2,7.3-36.4,12.4-54.2c3.6-12.4,9.2-24.3,14.9-36
	c5.7-11.4,12.1-22.4,19-33.1c5.4-8.6,11.5-16.8,18.3-24.3c10.2-11,21.3-21.3,32.3-31.5c16.1-15,34.1-27.7,53.6-37.8
	c17.3-9.1,35.6-16.2,54.5-21c14.4-3.6,28.9-3.8,43.3-5.7c5.1-0.7,11.2,0.8,15.1-4.2c0.7-0.9,1.4-2.7,0.9-3.3
	c-0.9-0.9-2.1-1.5-3.4-1.4c-6,0.4-12.1,1.3-18.1,1.7c-14.1,0.8-28.1,2-41.7,6.1c-11,3.3-22.3,6.2-32.7,10.8
	c-13.1,5.8-25.6,13-38.2,19.9c-17.3,9.3-32.4,21.7-46.6,35c-9,8.6-17.2,17.8-24.7,27.7c-8.6,11.1-16.5,22.7-23.8,34.8
	c-6.4,11-12.3,22.2-17.5,33.8c-4.6,9.6-8.6,19.6-11.8,29.8c-3.9,12.9-7,26.1-9.7,39.3c-1.9,9.5-3.1,19.1-3.6,28.8
	c-0.6,12.3-0.3,24.7-0.1,37C10.9,388.2,12,392.9,12.6,397.5z M283.5,100c0-0.8-0.1-1.6-0.1-2.3c-2-0.7-4.1-2-6-1.8
	c-10.3,0.8-20.6,1.9-30.9,3.2c-7.5,0.9-15,1.6-22.3,3.2c-6.9,1.7-13.7,3.9-20.3,6.6c-8.5,3.2-17.4,5.8-25.1,10.2
	c-13.5,7.7-26.6,16.1-39.2,25c-10.1,7.1-19.7,14.9-28.6,23.5c-10.5,10.3-20.8,21-29.6,32.8c-9.8,13.2-18.2,27.4-26.2,41.8
	c-4.4,7.8-7.2,16.7-10.4,25.2c-3.8,10.2-7.7,20.3-10.7,30.7c-2.6,8.8-4.5,17.7-5.9,26.7c-1.7,10.4-2.7,20.8-3.1,31.4
	c-0.3,14.9,0.4,29.9,0.9,44.8c0.1,2.6,1.5,5.1,2.2,7.6l2-0.3c0.3-2.2,1.1-4.4,1-6.5c-0.5-6.4-1.8-12.7-1.8-19.1
	c0-13.9,0.5-27.9,1-41.8c0.2-3.3,0.8-6.5,1.6-9.7c2.1-9.6,3.9-19.2,6.5-28.6c3-11,5.8-22.1,10.2-32.5c5.5-13.4,12.5-26.2,19.3-39
	c8.1-15.2,18.4-29.2,30.6-41.4c10.5-10.6,22-20.4,33.2-30.4c14.5-12.8,30.6-23.6,48-32c13.2-6.5,27-11.1,41-15.1
	c3.9-1.1,7.9-1.7,11.9-2.6c3-0.7,6-1.8,9-2.2c11.5-1.5,23.1-2.6,34.7-4.2C278.6,102.6,281.1,101,283.5,100z M321.6,879.9l-2.2-0.1
	c-0.3,5.3-0.8,10.6-0.9,15.8c0,0.5,2.3,1.6,3.4,1.4c4.9-0.5,9.8-2,14.7-2c18.6-0.2,37.3-0.1,55.9,0.1c16.3,0.1,32.6,0.7,49,0.7
	c11.7,0,23.3-0.6,35-0.9c3.3-0.1,5.1-0.8,3.6-4.8c-1-2.7-1-5.9-1-8.8c-0.1-22-0.2-44-0.2-66c0-14.1-0.5-28.3,0.4-42.4
	c0.5-8.3,2-17.1,5.2-24.8c5.1-12.3,15.9-18.3,28.8-19.1c17.3-1.1,33,12.1,36.8,30.4c1.7,8.6,2.2,17.5,3.2,26.2
	c0.2,1.6,0.3,3.2,0.4,4.8c1.1-10.5,1.3-21,0.7-31.5c-0.4-5.8-1.3-12.8-4.7-17.1c-4.7-5.9-11.4-10.7-18.2-14.3
	c-8.7-4.7-18.7-5.1-28.6-5c-1.1,0.2-2.1,0.7-2.9,1.4c-3.1,2.4-6,5.1-9.3,7.1c-7,4.2-12,10.2-13.1,18c-1.9,13.7-3,27.5-3.5,41.3
	c-0.7,17.5-0.6,35-0.9,52.5c0,3.4-0.2,6.6-3.9,8.5c-1,0.5-2.1,2.6-1.9,3.5c0.4,1.3,2.1,2.1,3.2,3.1c1.8,1.8,4.7,3.4,5,5.4
	c0.9,7.4,1.1,14.9,0.9,22.4c-0.3,5.7-4.5,6.8-9.6,4.5c-4-1.8-8.7-1.9-13.2-2.6c-0.5-0.1-1.2,0.6-1.6,1.1c-3.7,5.1-9,5.6-14.8,5.4
	c-5-0.2-10-0.3-15,0c-10.3,0.6-19-2.7-27.2-9.8c-2.4,6.5-7.6,9.2-13.9,9.5c-6.6,0.3-13.3,0.1-19.9-0.6c-10-1.1-11.1-2.6-11.2-12.7
	c-0.1-13.5-0.1-27-0.1-40.5c0-7.6,0-7.6-9.5-6.9c0.8,6.7,1.9,13.3,2.3,20c0.8,10.6,1.5,21.2,1.5,31.8c0,5.2-5.3,8.6-11.5,8.6
	c-5.9,0.1-8.5-2.1-9.6-7.9C322.5,883.7,322.1,881.8,321.6,879.9z M337.1,767.4h1c0-6.3,0.1-12.7-0.1-19c0-1.3-0.8-2.6-1.4-3.8
	c-0.8-1.8-1.6-3.5-2.6-5.2c-0.9-1.3-1.9-2.5-2.9-3.7c-1.1,1.1-3.1,2-3.3,3.3c-1,6.1-2,12.4-2,18.6c-0.2,34.6-0.1,69.2-0.1,103.9
	c0,2.9,0.6,5.8,0.8,8.8c0.2,5.5,0,11.1,0.4,16.6c0.1,1.1,1.6,2.6,2.9,3.1c4.1,1.7,10.3-1,10.8-5.2c0.8-6.4,1.8-13.3,0.3-19.4
	c-2.9-11.3-3.6-22.7-3.8-34.2C336.9,809.9,337.1,788.6,337.1,767.4z M706.7,506c0.2-0.5,0.4-1.1,0.5-1.6c-1.4-0.9-2.8-2.4-4.3-2.6
	c-6.8-0.9-13.7-2-20.6-2.1c-23.5-0.2-47,0-70.5-0.1c-3.3,0-6.5-0.6-9.5-2c-9.8-4.7-20-3.9-30-2c-9.2,1.9-18.5,3-27.8,3.1
	c-26.1,0-52.2,0.5-78.3,1c-1.9,0-3.8,0.9-5.7,1.4c0.9,1.8,1.8,2.7,2.7,2.8c6.8,0.8,13.7,2,20.5,2c72.5,0.1,144.9,0.1,217.4,0
	L706.7,506z M296.1,220.1l-0.2,2.4c1.1,0.3,2.3,0.4,3.5,0.6c10.4,0.7,20.9,0.6,31.1,2.2c12,1.9,23.9,5.1,35.8,8.1
	c6.3,1.6,12.4,3.8,18.6,5.7c11.1,3.6,22.3,7.1,33.4,10.8c10.5,3.5,20.8,7.5,31.3,11c14.8,4.9,29.9,9.1,44.6,14.5
	c17.5,6.4,35.5,10.4,53.6,14.7c2.2,0.4,4.5,0.8,6.8,1c11.8,1.6,23.7,3,35.5,4.7c6.8,1,13.5,2.5,20.3,3.2c6.2,0.7,12.5,0.7,18.8,1.1
	c13.8,0.9,27.6,2,41.4,3c3,0.2,5.9,0.7,8.8,0.8c8.7,0.1,17.4,0,26.1,0c-0.6-1.2-1.3-2-2.1-2.1c-4.1-0.5-8.2-0.8-12.3-1.1
	c-16-1-32-2-47.9-3c-1.8-0.1-3.6-0.4-5.4-0.6c-9.8-1.1-19.6-2.2-29.3-3.4c-4.6-0.5-9.1-0.9-13.7-1.7c-12.4-2-24.8-4.1-37.2-6.3
	c-11.1-1.9-22.2-3.7-33.2-6.1c-8.2-1.8-16.3-4.4-24.4-6.9c-12.3-3.7-24.6-7.3-36.8-11.4c-13.4-4.5-26.6-9.7-40-14.4
	c-12-4.2-24-8.1-36-12c-5.5-2-11.1-3.6-16.8-5c-12.8-2.8-25.5-5.7-38.5-7.4C320.2,220.8,308.1,220.8,296.1,220.1z M395.5,864.6
	c6.2-3.5,9.6-7.5,9.6-14.2c0-7.8,0.8-15.6,0.9-23.4c0.1-22.5-0.1-45,0.2-67.5c0.1-9.6,3.3-18.3,10.6-25c7.9-7.2,20.3-8.4,29.6-3.2
	c6.6,3.7,9.6,9.9,13.1,15.9c0.7,1.3,1.5,2.5,2.3,3.7l1.3-0.6c-0.2-1.6-0.5-3.1-0.9-4.7c-1.3-3.2-3.2-6.2-4.2-9.5
	c-0.5-1.6,0.3-3.7,0.5-5.5c1.7,0.5,3.6,0.8,5.1,1.7c1.7,1.2,2.9,3.2,4.6,4.5c2.4,1.8,4.2,1,5.1-1.9c-7.6-2.4-18.5-14.6-20.6-22.2
	c-0.7-1.5-2.1-2.6-3.7-2.9c-8.3-0.5-16.6-0.7-25-0.9c-1.3,0.1-2.5,0.4-3.7,0.8l0.1,1.6c3.5,0.5,7.1,1,10.6,1.6
	c7.6,1.3,15.7,1.6,22,7c1.4,1.2,1.8,3.5,2.7,5.3c-1.8,0.5-3.6,1.5-5.3,1.5s-3.4-1.2-5.1-1.7c-2.5-0.8-5.1-1.9-7.6-1.9
	c-15.4,0-32.2,10.3-33.5,28.5c-0.5,6.8-2.1,13.1-7.3,18.1c-0.9,0.8-1.4,1.8-1.5,3c0.2,6.4-2.5,13.4,3.5,18.8c0.7,0.9,1.1,2,1.1,3.2
	c0.4,10.8,0.9,21.5,0.7,32.3c-0.1,5-0.1,10.5-5.4,13.8c-0.7,0.7-1.1,1.7-1,2.7C394.4,850.3,395,857,395.5,864.6z M327.2,685.1
	c-3.2-6.7-2.3-8.4,4.4-9c2.1-0.2,4.3-0.1,6.5-0.3c1.7-0.1,3.3-0.4,5-0.6l0.5-1.6c-9.9-2.5-16.8-8.8-22.3-17.1
	c-0.8,1.7-1.2,3.6-1.3,5.6c-0.1,3.8-0.2,7.7-0.2,11.5c0,4.7-1.2,8.7-5.4,11.7c-1.9,1.3-4.1,3.8-4.1,5.8c-0.2,10,0.2,20,1.1,29.9
	c0.6,4.6,2.6,8.9,5.7,12.3c3,3,3.7,5.4,3.2,9.1c-0.8,4.8-1.2,9.6-1.3,14.4c-0.1,14.7,0.1,29.3,0.1,44c0,11.7-0.1,23.3-3.3,34.7
	c-1.3,4.7-1.1,10-0.4,14.9c0.5,3.4,2.9,6.6,4.4,9.9l1.9-0.5c-0.2-3.7-0.6-7.4-0.5-11.1c0.2-13.2,0.7-26.3,0.8-39.5
	c0.1-16.5-0.2-33,0.2-49.5c0.3-7.3,1.3-14.6,2.8-21.8c0.4-2,2.8-3.7,4.5-5.4c1.3-1.3,4.3-2.8,4.1-3.3c-0.9-2.2-2.2-4.8-4.1-5.7
	c-2.7-1.3-6.2-0.9-9.2-1.7c-1.5-0.4-3.8-1.7-3.9-2.8c-0.2-2.1,0.3-4.1,1.6-5.8c0.7-0.8,3.3-0.3,4.9,0c4,0.8,8,2,12,2.5
	c1.1,0.1,2.5-2,3.7-3.2c-1.1-0.9-2.1-2.4-3.3-2.6c-2.6-0.4-5.5,0.4-7.9-0.3c-4.2-1.2-8.7-2.5-12-5.2c-5.8-4.7-3.8-14,3.1-16.7
	C321.1,686.7,324,686.1,327.2,685.1z M679.3,10.3c-8.8,0.4-8.8,0.4-10.7,9.6c-0.1,0.3-0.3,0.6-0.4,0.9c-0.8,10.1,0,19.8,6.1,28.4
	c3,4.2,10.2,4,12.4-1.2c3.7-8.4,6.6-16.9,7.3-26.2c0.4-5.4-1.4-8.4-6.7-10C684.8,11.1,682.1,10.6,679.3,10.3z M716.3,594.6l1.4-0.2
	c0.4-0.7,1.1-1.3,1.2-2.1c1.4-10.8,8-17,17.8-20.6c5.3-1.9,12-0.9,14.7,2.7c3.2,4.2,3,11.1-0.5,15.6c-2.8,3.6-4.1,3.5-6.4-0.3
	c-0.8-1.4-1.9-2.6-3.8-5.3c-1.2,3.9-3,6.8-2.5,9.1c1.1,4.4,5,6.4,9.4,7.6c2.4-3.1,4.5-6,6.7-8.8c4.8-5.8,5-17.2,0.5-23.3
	c-5.6-7.6-13.9-10.9-22.5-10.9c-9.6,0-16.3,0.7-15.7,14.6c0.2,3.9-0.8,7.9-0.9,11.8C715.8,587.8,716.2,591.2,716.3,594.6
	L716.3,594.6z M349.5,788.8c0.2-1.5,0.4-3.1,0.4-4.7c-0.5-14.6,1-29.2,4.6-43.4c3.3-12.7,12.6-17.8,22.7-22.4
	c2.7-1.3,6.6-0.2,9.6-0.2c-0.6-8.1-6.1-9.6-13.4-8.5c-0.8,0.1-1.7,0.1-2.5,0c-5.6-0.4-11.2-0.7-11.9,7.2c-0.1,0.7-1,1.3-1.3,2.1
	c-1.4,2.8-2.6,5.7-3.6,8.7c-2,7.1-3.6,14.3-5.8,21.4c-0.4,1.2-2.5,1.8-3.6,2.9c-1.3,1.4-3.3,3-3.4,4.5c-0.3,8.1,0.1,16.3,0,24.4
	C341.2,786.2,343.7,788.8,349.5,788.8z M694.8,410.9c-1.2,11.2,2.8,22.1,9.1,32.3c0.8,1.3,2.8,1.9,4.2,2.8c0.7-1.6,1.9-3.1,1.9-4.7
	c0.2-13.5,0.2-27,0-40.5c0-4.9-1.8-6.1-7.9-6c-5.4,0.1-7.3,1.6-7.4,6.2C694.7,403.9,694.8,406.9,694.8,410.9z M399.2,177
	c-0.2-0.8-0.4-1.7-0.5-2.5c-5.4,0-10.7,0.1-16.1,0c-2.4-0.1-5.6,0.3-7-1c-4.7-4.3-9.6-4.4-15.7-4c-6,0.4-13.3,2.1-17-5.8
	c-0.3-0.6-2.3-0.8-3.4-0.6c-2.9,0.5-5.7,1.2-8.5,2.1c-2.6,0.8-5.5,1.6-7.7,3.1c-3.1,2.2-2.4,5.1,1.3,6c2.8,0.5,5.6,0.8,8.4,0.6
	c15.5,0,31,0.3,46.2,3.8c4.1,0.9,8.2,1.3,12.4,1C394.2,179.7,396.7,178,399.2,177z M385.7,675c0,0.4,0,0.9,0,1.3h166.6
	C496.8,669,441.3,675.3,385.7,675L385.7,675z M491.9,713.4c-11.8,0-22.3,0-32.7,0c-0.7,0-1.9,0.4-1.9,0.8c-0.2,1.1,0,2.1,0.5,3.1
	c3.2,4,6.7,7.8,10.4,11.4c1.1,1,4,0.5,5.9-0.1c1.4-0.5,2.3-2.5,3.7-3.2c2.7-1.3,5.9-3.3,7.3,1.9c0.2,0.8,2.9,1.7,3.9,1.3
	c2.6-1.1,4.9-3,8.2-5.2l-8.2-3.2C489.9,718,490.6,716.3,491.9,713.4z M749.6,585.9c-0.2-2.7,0.4-6-0.9-8c-1.1-1.7-4.4-2.4-6.9-2.6
	c-2.4-0.2-4.9,0.7-7.3,1.3c-7.1,1.9-14.1,12.9-12.6,20c0.2,1,2.6,2.5,3.1,2.3c4.9-2.4,8.2-0.1,11.6,3c1.2,1.1,3.3,1.3,4.9,1.9
	c0.2-0.5,0.3-1,0.5-1.5l-2.3-1.7c-4.5-3.3-6.4-11.7-3.1-15.6c4-4.7,7.6-1.6,11.1,1C747.9,586.2,748.2,586.1,749.6,585.9z M710,638.6
	l1.9-0.3c0.5-1.6,0.8-3.2,0.9-4.9c0.1-13.8,0-27.6,0-41.4c0-7.3,0-14.6,0.5-21.8c0.5-6.8,2.6-12.8,10.5-14.5c0.5-0.1,0.8-0.9,1.9-2
	c-1.9-0.3-3.9-0.7-5.7-1.2c-4.7-1.8-6.2,0.2-7.1,4.8c-5,25-4.7,50.3-4.7,75.5C708.2,634.6,709.4,636.6,710,638.6z M77.8,523.8
	c0-1.6,0.2-2.2,0-2.5c-1.8-2.9-3.6-5.8-5.5-8.7c-10.2-15.3-19.1-31.3-25.2-48.7c-4.4-12.6-8-25.5-12.1-38.2
	c-0.3-1.1-1.3-2.6-2.2-2.7c-1.2,0.1-2.3,0.7-2.9,1.8c-0.4,1.2-0.4,2.6,0.1,3.8c0.6,1.5,2,2.6,2.6,4.1c2.8,8.1,5.7,16.3,8.1,24.5
	c4.2,14.9,11.4,28.4,19.4,41.5c4.4,7.2,8.9,14.4,13.5,21.5C74.4,521.6,76,522.3,77.8,523.8z M396.3,332l1.5-1.5
	c-0.9-1.5-1.4-3.3-2.6-4.4c-12.1-11.3-25.1-21.6-40-28.6c-13.7-6.5-28.5-10.9-43-15.8c-3.1-1-6.8-0.1-10.2-0.1l-0.1,2
	c1.6,0.4,3.3,0.9,5,1.3c6.5,1.5,13.1,2.5,19.4,4.4c23.8,7.1,44.9,19,62.5,36.8C391.1,328.3,393.8,330,396.3,332z M555.1,951.9
	c-1.5-1.6-3-3.5-4.7-5.2c-1.9-2-3.8-2-5.4,0.2c-3.3,4.4-7.3,4.5-11.9,2.2c-3.5-1.7-11.5,0.2-13.6,3.1c-0.5,0.7-0.7,1.4-0.8,2.2
	c-0.1,2.9,0,5.7,0,9.2L555.1,951.9z M677,953.2c0,0.3,0.1,0.7,0.1,1c1.2,0.3,2.4,0.7,3.6,0.8c5.4,0.8,10.8,1.7,16.3,2.3
	c7,0.8,11.5,3.9,11.4,11.6c0,0.2,0.5,0.3,0.2,0.1c2-4.3,4.1-8.6,6-13c0.4-0.9,0.5-1.9,0.2-2.9c-1.9-5.2-4-10.3-6.2-15.8
	c-0.1,1.4-0.3,2.5-0.3,3.7c-0.4,7.3-1.3,8.2-8.5,8.8c-6.5,0.6-12.9,1.3-19.3,2.1C679.2,952.3,678.1,952.7,677,953.2z M36.5,275.8
	c5.8-13.2,10.5-25.2,16.5-36.6c6.1-11.6,12.8-22.9,20.3-33.7c7.3-10.4,15.8-20,23.8-30C73.5,192.3,38.1,256.1,36.5,275.8z
	 M129.8,166.1c-17.2,7.9-63.2,63.2-63.1,76.6C84.1,213.3,105.3,188.4,129.8,166.1z M570.6,492l-0.2-1.8c-3.4,0.2-6.8,0.4-10.2,0.5
	c-12.8,0.1-25.6,0-38.4,0.1c-2.4,0-4.8,1.2-7.2,1.8l0.5,2.4C533.7,496,552.3,496.5,570.6,492z M530.9,710.2h-36
	c0.2,2.3,0.3,4.1,0.6,5.8c0.2,1.2,0.6,3.1,1.2,3.2c1.4,0,2.7-0.3,4-1c1.8-0.8,3.3-2.3,5.1-2.9c7.9-2.3,16.4-1.5,23.8,2.3
	c1.5,0.7,3,1.2,4.5,1.7C533.1,716.3,532.1,713.7,530.9,710.2z M655.9,880.7c-0.1,2.5-0.7,4.8-0.2,6.8c0.4,1.7,2,3,3.1,4.5
	c1.5-1.3,4.1-2.4,4.2-3.8c0.4-8.3,0.2-16.6,0.2-25c0-0.7-0.3-1.3-0.7-1.8c-1.3-0.7-2.8-1.8-4-1.5c-1,0.2-2.3,2-2.3,3.1
	C655.8,869.1,655.9,875.1,655.9,880.7L655.9,880.7z M713.7,317.4c0.6-1,1-1.4,1-1.8c0.1-1.7,0.2-3.3,0.2-5c-0.1-5.5-0.5-5.7-5.7-4
	c-2,0.7-4.2,1.1-6.3,1.1c-13.3-0.4-26.6-1-39.8-1.5c-5.1-0.2-10.3,0-15.5,0c1,1,2.3,1.6,3.7,1.6c13.8,0.7,27.6,1,41.3,2.3
	C699.9,310.8,708.4,309.3,713.7,317.4z M346.6,954.6l0.2-2.1c-5.6-0.5-11.3-1.3-16.9-1.3c-5.3,0-9.6-0.5-10.9-6.6
	c-0.1-0.4-1-0.7-2-1.4c-1,2.4-2.4,4.4-2.6,6.6c-0.2,2.3-0.1,5.5,1.3,7c1.2,1.3,4.4,1.3,6.6,1.1c3.4-0.3,6.8-1.4,10.2-1.8
	C337.1,955.3,341.9,955,346.6,954.6z M486.3,964.2c0.6-1.3,1.2-2.6,1.6-4c1.2-4.8,2.9-6,7.8-4.8c1.6,0.5,3.1,1.2,4.5,2.1
	c3.8,2.1,6.4,1.1,8.3-2.9c-4.1-1.7-8.1-3.7-12.3-4.9c-6.2-1.7-11.9,0.1-17.3,2.9L486.3,964.2z M481.8,198.3c-2.2-9-13.3-14.1-20-11
	c-1.3,0.7-2.2,1.9-2.5,3.3c-0.1,1.1,1.1,3.1,2.1,3.4C468.2,195.6,475,196.9,481.8,198.3z M172.1,117c-12,3.1-55.1,34.7-60.2,43.4
	L172.1,117z M526.8,202.2c0.1-0.6,0.2-1.1,0.3-1.7c-1.7-0.8-3.4-1.5-5.2-2c-6.6-1.4-13.3-2.4-19.9-3.9c-4.9-1.1-7.3,1.3-10.1,6.8
	c6.5-0.4,12-0.9,17.4-1.1c2.1-0.1,4.6-0.2,6.2,0.8C518.8,203.2,523.1,203.7,526.8,202.2z M558.5,887.7l2.5-0.1
	c0.7-8.1,1.5-16.1,2.2-24.2c0.3-2.9-1.5-4.3-3.9-3.4c-1.3,0.4-2,2.7-2.8,4.3c-0.3,1-0.4,2.1-0.4,3.2
	C555.4,874.2,556.2,881.2,558.5,887.7L558.5,887.7z M216.7,625.2l-46.9-9.7C181.1,623.8,200.7,627.8,216.7,625.2z M653.4,216.7
	c-5.1-0.6-9.1-1.1-13.2-1.7c-6.4-0.8-7.7,0.3-8.4,6.9C639.9,225.8,646.3,222.6,653.4,216.7z M246.7,342.3c-1,0.2-2,0.1-2.4,0.6
	c-4.2,4.6-8.4,9.3-12.4,14.1c-0.2,0.2,1.3,2.7,2.2,2.9c4.3,0.9,9.8-3.6,10.7-8.3C245.4,348.7,246,345.8,246.7,342.3z M649.8,24.6
	c-4.6,3.1-6.5,7.2-7,14.7c-0.2,2.9-0.8,7,2.9,7.4c4,0.4,4.5-3.8,5.4-6.9c0.1-0.7,0.1-1.3,0-2C650.7,33.6,650.3,29.3,649.8,24.6z
	 M470.2,764.6l0.8,0.1c1.6-8.2,3.3-16.4,5.1-25.5c-4.2,2.1-7.4,5.6-11.6-0.3L470.2,764.6z M677.5,109.8c0.2,0.3,0.4,0.7,0.6,0.8
	c1.2,0.1,2.3,0.2,3.5,0.4c10.9,2.8,22.9-2.4,34.1,5.8c-0.3-5-0.5-8.8-0.9-14.2c-5.1,7.8-11.8,7.1-18.2,7.2S683.9,109.8,677.5,109.8z
	 M427.5,180.4l-0.5-1.5c-5.5-0.9-10.9-2-16.4-2.4c-0.9-0.1-2.6,2.3-2.8,3.8c-0.2,0.9,1.5,3,2.5,3.2c3.4,0.7,6.9,0.8,10.4,0.4
	C423.1,183.5,425.2,181.6,427.5,180.4L427.5,180.4z M714.5,235.9l1.3-0.1c-0.5-6.4-0.9-12.7-1.6-19.1c-0.1-0.6-1.8-1.5-2.8-1.5
	c-3,0.2-6.1,0.7-9.1,1.2c0.4,0.8,1.1,1.3,2,1.5c6,1.4,6.3,2,4.6,7.8c-0.3,0.9-0.2,1.9,0.3,2.7C710.9,231,712.8,233.4,714.5,235.9z
	 M351,712.2c-4.8,1.2-10-0.2-9.8,4.8c0.1,2.5,4.2,5.3,7,7c1.8,1.1,7.3-4.8,6.6-7.6C354.5,714.6,352.1,713.2,351,712.2z M551.7,887.7
	c-0.5,1.8-1.7,4.1-1.3,6.1c0.2,1,3.4,1.9,5.3,2.1c3.1,0.2,6.3,0.2,9.4,0.1c3.1,0,4.2-1.5,3.1-4.5c-0.7-1.9-1.4-3.9-2.4-6.6
	c-2.2,3-3.6,6.8-5.6,7.2C558.2,892.5,555.3,889.8,551.7,887.7z M706.5,283.1c2.4,3.3,5.8,6,5.7,8.3c-0.2,2.3-4,4.3-6.5,6.8l9.2,4
	c0-7.3,0.1-13.5-0.1-19.8c0-0.6-2-1.9-2.7-1.7C710.2,281.3,708.3,282.1,706.5,283.1z M125.4,576.7c14.2,11.1,29.5,20.6,46.7,26.7
	L125.4,576.7z M709.3,929.7h0.7v-39.6l-7.7,9c5.6,3.3,5.9,8.8,6.2,14.4C708.6,918.8,709,924.3,709.3,929.7L709.3,929.7z M664.2,93.4
	V92h-49.6v1.3H664.2z M202.1,366.1c0.9,0.6,2.3,2.2,3.9,2.4c3.3,0.4,8.3-4.2,7.5-7.1c-0.8-2.1-2.5-3.7-4.7-4.4
	C205.4,356.3,202.2,360.4,202.1,366.1z M311.1,611.6l0.6,1.6c2.3-1.1,5.5-1.6,6.7-3.5c2.1-3.4,3-7.6,4.5-11.9l-16.5,5.2
	C315.5,605.4,315.8,606,311.1,611.6z M45.9,504c1.4,8,20.3,34.4,26.5,37.4L45.9,504z M109.7,565l-25.8-28.6
	C83.7,542.3,99.8,560.9,109.7,565L109.7,565z M141.1,593.4c11,10.3,34.8,21.5,41.6,20L141.1,593.4z M554.7,746.1
	c1,3.1,2.3,5.6,2.7,8.3s0.2,5.6,0.4,8.4c0.3,2.5,0.8,5,1.3,7.6l0.6-0.2c1.5-7.7,3-15.3,4.5-23.1L554.7,746.1z M761.8,574.8
	c1.5-5.5-1.1-9.5-4.7-13.1c-5.4-5.4-11.4-8-16.8-6.5C749.8,559.7,758.7,564,761.8,574.8z M468.1,842.8h1.6v-47.1h-1.6V842.8z
	 M413.3,306.9c0.4-0.4,0.8-0.9,1.3-1.3c-2.6-3.1-5.2-6.2-7.9-9.2s-6.3-5.3-3.5-10.2c0.3-0.6-1.5-2.6-2.6-3.5
	c-0.3-0.2-2.6,1.1-2.7,1.9c-0.2,1.8-0.1,4,0.8,5.4c3.5,5,7.4,9.7,11.3,14.4C411,305.4,412.1,306.2,413.3,306.9z M637.8,897.7
	c0.2-0.7,0.5-1.3,0.7-2c-2.7-1.9-5.2-4.7-8.2-5.4c-1.9-0.5-4.6,2-6.8,3.4c-0.2,0.1,0.5,2.7,0.9,2.7
	C628.9,897,633.4,897.3,637.8,897.7z M712.5,673.8l-2.1-0.8c-1.2,1.9-3.9,4.8-3.4,5.5c2.7,3.9,1.9,7.4,0.5,11.3
	c-0.3,0.8,1.3,2.3,2,3.4c0.7-0.5,2-1,2.1-1.6C712,685.7,712.2,679.7,712.5,673.8L712.5,673.8z M424.4,311.3c1.6,2.6,2.7,5.2,4.5,7.1
	c2.8,3,4.8,5.8,5.3,10.2c0.3,2.4,3.9,4.5,6,6.7C438.4,324.5,429.4,311.3,424.4,311.3z M245.2,251.4l0.1,1.3c4.9-0.5,8,6.7,12.8,3.8
	v-9L245.2,251.4z M461.1,381.3l-4.5,6.5l-5.4-6.5l-1.9,1l3.5,11.8c1.7-1.2,2.7-2.4,4.1-2.9C462.8,389.1,463.1,388.6,461.1,381.3z
	 M664.4,676v1.5h30V676H664.4z M349.8,734.7c-3,0.5-4.5,0.8-5.9,1c-3.1,0.4-6.5,7.1-4.4,9.2c1.3,1.2,5.2,1.8,5.4,1.4
	C346.8,742.8,348.1,739.1,349.8,734.7L349.8,734.7z M646.4,292.3l-0.1,2.1l34.8,1.8l0.1-1.8L646.4,292.3z M444.2,353.3l-2-0.2
	c-1,2.4-3.5,5.8-2.7,6.9c1.8,2.6,5.2,4.1,8,6l1.8-1.4C447.6,360.9,445.9,357.1,444.2,353.3L444.2,353.3z M355.5,599.5l0.1,0.8
	c1.9-0.6,3.8-1.4,5.6-2.3c4.6-2.5,9.1-5.1,13.5-7.9c1.7-1.1,2.9-3,4.3-4.5c-2.3,0.2-4.5,0.3-6.8,0.5c-0.1,0-0.2,0.2-0.4,0.3
	L355.5,599.5z M663.4,221.5l0,1.6c12.9,0,25.8,0,38.7,0v-1.6L663.4,221.5z M425.5,5.8l-0.7,1.9c5.5-0.3,9.1,2,10.1,8.3l6.3-9.1
	L425.5,5.8z M392.2,377.3c-0.3,1.1-1.5,3-1,4c1.6,3.3,3.8,6.2,6,9.5c1-1.8,1.9-3.7,2.7-5.7c0.2-1-0.2-2.1-0.9-2.8
	C397.2,380.7,395.1,379.4,392.2,377.3z M454.6,482.4l-2.1-0.9l-2,3c-0.7,1-1.4,2.1-2.3,3.5l-3.1-3.4c-3,3-2.5,4.4,3.9,11.2
	C450.9,491.3,452.8,486.9,454.6,482.4z M272.6,624.3v-1.7h-31.9v1.7H272.6z M294.6,160c0.8,0,1.8,0.3,2.5-0.1c1.4-0.8,2.7-1.7,4-2.6
	c-1.2-1.2-2.3-2.9-3.8-3.5c-1.6-0.6-3.3-0.6-4.9,0c-1.4,0.5-2.4,2.1-3.5,3.1c1.2,1.1,2.5,2.1,3.8,3C293.2,160.3,294,160,294.6,160
	L294.6,160z M459.6,464.6l-1.5,0.6l-7-7.8c0.7,4,0.9,7.1,1.8,9.9c1,3.1,2.7,5.9,4.5,9.6L459.6,464.6z M559.6,808.5
	c-3,11.1-1.6,22.2-1.8,33.3h1.8V808.5z M361.6,604.7c-0.4-0.8-0.7-1.6-1-2.5l-19,9.6c0.4,0.7,0.7,1.4,1.1,2.2L361.6,604.7z
	 M436.4,521.7c-5.1,1.1-9.8,9.1-10.5,17.4C430.1,534,435.1,529.5,436.4,521.7L436.4,521.7z M142.6,153.9l1.1,1.5l21.7-15l-1.1-1.6
	L142.6,153.9z M310.4,211c0,0.8,0,1.5,0,2.3h29.9C330.5,211.6,320.4,210.8,310.4,211z M562.6,324.5c0-0.3-0.1-0.6-0.1-0.9h-32.8
	c0,0.3,0,0.6,0,0.9H562.6z M226.3,343.2l-0.3-1.6c-1.2-0.4-2.5-1.3-3.6-1.1c-2.8,0.4-6,0.8-5.8,4.6c0,0.9,2.2,2.8,2.6,2.6
	C221.6,346.3,224,344.8,226.3,343.2z M471.5,867.2h-2.2c-0.2,5.2-0.5,10.3-0.4,15.5c0,1.1,1.4,2.1,2.2,3.2c0.7-1.3,1.9-2.6,1.9-3.9
	c0-3.6-0.5-7.1-0.9-10.7C472,869.9,471.7,868.6,471.5,867.2L471.5,867.2z M221.6,333.6c2.9-1.1,5.6-1.8,7.9-3.2
	c0.9-0.5,1.3-2.6,1-3.8c-0.1-0.7-2.3-1.8-3-1.4C224.4,326.8,221.3,328.7,221.6,333.6z M328.3,247.6c-4.9-1.3-8.8-1.1-11.5,3.4
	C322.8,254.2,325.4,253.4,328.3,247.6z M550.8,732.2c0.8,1.8,1.5,3.6,2.4,5.3c2.6,5.3,8.9,6.5,11.3,1
	C557.2,741.2,555.7,734,550.8,732.2z M203.1,180.9l3.9-2.7c-0.9-1-1.6-2.4-2.8-2.9c-2.4-0.9-4.9-1.5-7.4-1.9c-0.1,0-1,2.2-0.8,2.4
	C198.1,177.7,200.5,179.2,203.1,180.9z M212.7,618.9l-0.2,1.3l22.9,3.1l0.2-1.6C228.2,618.6,220.5,618.5,212.7,618.9L212.7,618.9z
	 M443.4,331.1l1.7-0.2l4.7-8.4c-3.3,0.7-6.8,0.6-7.1,1.6C442.1,326.1,443.1,328.7,443.4,331.1z M88.5,531.7l2.3-1.3l-10.5-14.4
	l-1.2,0.8L88.5,531.7z M68.5,496.8l-1.5,0.9l9.4,15.3l1.7-1L68.5,496.8z M466.5,460.9l-1.7,0.2c-0.4,2-0.7,4-0.7,6.1
	c0.1,1.1,1.3,2.1,2.1,3.1c0.9-1.1,2.5-2.2,2.4-3.2C468.4,465,467.3,463,466.5,460.9L466.5,460.9z M186.4,613.6c5,4.9,11,4.6,17,4.3
	l0.3-1.7L186.4,613.6z M343.5,733c1.5-1.6,3-2.9,2.9-3.3c-1-1.5-2.1-3-3.4-4.3c-0.9,0.9-2.6,2-2.4,2.8
	C340.9,729.7,342.2,730.9,343.5,733z M245.5,93.1l0.1,2l13.7-1.5l-0.2-1.7L245.5,93.1z M393.8,726.3c0.8,2.1,1.7,4.1,2.8,6
	c0.7,0.8,1.8,1.2,2.9,1.1c0.9-0.3,1.5-1.1,1.7-2.1c-0.1-0.9-0.6-1.8-1.4-2.3C397.8,728,395.8,727.1,393.8,726.3z M521.5,719.6
	c-4.5-3.1-9-3.8-13.4,0H521.5z M390.6,277.2c-3.7-2.3-6.8-4.1-10.6-6.5C380.6,276.4,384.3,278.5,390.6,277.2z M165.4,595.4
	c-0.5-6-3.3-7.6-10.1-5.6L165.4,595.4z M33.8,375.4h-1.5l1.1,13l1.6-0.1L33.8,375.4z M667.5,891.6h-2.2c-0.3,1.8-0.7,3.6-1,5.3
	l4.1,0.3C668.1,895.4,667.7,893.5,667.5,891.6z M60,505.4l-1.2,1l7.8,10.6l1.3-1L60,505.4z M427.4,517.9c-1.9,4-7.9,4.2-5.6,10.1
	C423.2,524.6,429.5,524.6,427.4,517.9z M517.9,462.2l-2,1c0.8,1.8,1.5,3.5,2.5,5.2c0.9-0.3,1.8-0.7,2.7-1.1
	C520,465.6,519,463.9,517.9,462.2z M347.1,263.3c0.1-0.9,0.1-1.8,0.2-2.7l-5.1-0.3c-0.1,0.8-0.1,1.6,0,2.4
	C343.7,263.1,345.4,263.2,347.1,263.3z"/>
<path class="st0" d="M697.7,182.4c-9.6-1.2-19.2-2.7-28.8-3.5c-9.9-0.8-19.8-1-29.8-1.1c-9.7-0.2-19.3-0.1-29-0.1
	c-8.5,0-17,0-25.6,0c-3.1,0-5.9-0.8-5.1-4.2c0.4-1.6,4-3.5,6-3.3c14.5,1.3,28.8,1.5,43.3-1.7c5.7-1.3,12.1,0.1,18.2,0.6
	c7.7,0.5,15.4,1.6,23.1,1.9c10.5,0.3,21-0.5,31.5,0.3c5.3,0.4,9,0.5,10.1-5.7c0.1-0.4,3.7-1,4.8-0.3c4.4,3,4.3,7.9,3,12.1
	c-1.7,5.4-2,10.4-0.1,15.9c0.6,1.8,0.3,5.2-1,6.2c-1.7,1.4-4.7,1.8-7.1,1.7c-3.6-0.1-7.1-1.3-10.7-1.4c-23.6-0.4-47.2-0.6-70.8-1.1
	c-3.8-0.1-7.6-1.7-11.5-2.2s-8-0.2-11.9-0.8c-12-1.6-24.5,0.7-35.8-5.2c-1.3-0.7-2.2-2.1-3.3-3.2c1.3-0.8,2.5-2.2,3.8-2.1
	c9.8,0.2,19.6,0.1,29.3,1.4c6.7,0.9,13.1,2.4,20.2,1.9c13.8-0.8,27.7-0.8,41.6-0.1c9,0.4,17.8,2.7,26.7,3.6
	c6.1,0.5,12.3,0.5,18.5-0.1c1-0.1,2.3-2.9,2.8-4.6c0.7-2.6,0-5.1-3.3-5.4c-3-0.3-6,0-9,0L697.7,182.4z M698.4,177
	c4.4,1.1,8.8,2.3,13.2,3.3c1.1,0,2.1-0.5,2.7-1.4c0.5-2.4,0.9-4.8,1.2-7.2L698.4,177z M707.2,195.7l0.3,1.2c2.2-0.2,4.4-0.7,6.6-1.2
	c0.4-0.1,0.2-2.2,0.2-4.2L707.2,195.7z"/>
<path class="st0" d="M405.2,155.8c1.8-0.6,3.6-1.7,5.4-1.7c12.4-0.2,24.7-0.4,36.9,2.6c4,0.9,8.1,1.3,12.2,1.3
	c20.1,0.5,40.1,1.3,59.9,5.1c1.5,0.3,2.8,1.3,4.2,2c0.1,0.5,0.1,1,0.2,1.6c-1.9,0.7-3.8,1.9-5.7,2c-14.7,0.1-29.3,0.6-43.9-2.6
	c-7.5-1.7-15.5-0.7-23.2-1.3c-10.5-0.8-20.9-2-31.4-3.1c-2.6-0.1-5.2-0.4-7.8-0.9c-2.5-0.8-4.9-1.7-7.3-2.7
	C404.9,157.2,405.1,156.5,405.2,155.8z"/>
<path class="st0" d="M528.1,165.3c1.8-0.6,3.6-1,5.4-1.2c8.1-0.3,16.1-0.2,23.9,2.7c1.8,0.7,4.1-0.1,5.9,0.6c1.3,0.4,3,2.1,2.9,3.2
	s-2,3.1-3,3c-9.5-0.5-19.1-1.1-28.5-2.2c-2.4-0.3-4.6-2.7-6.9-4.1L528.1,165.3z"/>
<path class="st0" d="M359,151.9c1.7-0.6,3.3-1.7,5-1.8c10.3-0.2,20.6-0.1,30.9-0.1c0.7,0,1.5-0.2,2,0.1c1.4,1,2.6,2.1,3.9,3.2
	c-1.1,1-2.3,1.9-3.6,2.6c-1.4,0.5-2.8,0.7-4.3,0.7c-8.6,0.1-17.3,0.2-25.9-0.1c-2.7-0.1-5.3-1.5-8-2.3L359,151.9z"/>
<path class="st0" d="M561.6,188.6c-2.4,0.1-4.7,0.3-7.1,0.3c-4.8,0-9.6-0.1-14.4-0.2c-1.6-0.1-3.5-0.1-4.7-1c-1.4-1-2.2-2.9-3.3-4.4
	c1.6-0.8,3.2-2.2,4.7-2.2c6.3-0.1,12.5,0.3,18.7,1c2.3,0.3,4.4,2.5,6.6,3.8L561.6,188.6z"/>
<path class="st0" d="M503.6,179c-4.8,5.5-17.8,4.9-21.3-1C489.1,173.6,499.8,174.1,503.6,179z"/>
<path class="st0" d="M517.8,185.7c-0.7,0-1.3,0-2,0c-3,0.1-6.7,0.4-6.5-3.9c0.2-4.7,4.3-2.5,6.6-2.6c2.4,0.1,4.8,0.6,7.1,1.6
	c1.1,0.4,1.8,1.9,2.7,3c-1.1,0.8-2.2,1.4-3.5,1.8C520.8,185.8,519.3,185.8,517.8,185.7z"/>
<path class="st0" d="M118.1,433.3c-0.7-1.4-1.2-2.8-1.4-4.3c-0.2-1.4,0.3-4,1.1-4.3c3.6-1.2,7.4-2.5,11.1-2.3
	c1.6,0.1,3.3,3.4,4.5,5.5c1.3,2.4,1.6,5.2,2.9,7.6c1.3,2.3,3.1,2.9,4.8,0c2-3.4,4.7-3.1,7.6-1.2c1.4,0.8,2.8,1.8,4.1,2.8
	c3.4,2.9,6.2,4.1,7.9-1.6c0.5-1.1,1.5-1.8,2.6-2c6.2,0.2,12.3,0.8,18.5,1.1c1.6,0.1,3.6,0,4.6-0.9c8.1-7.2,17.1-9.2,27.2-4.9
	c0.9,0.4,2.1,0.6,2.6,1.4c4.3,5.6,8.4,11.3,12.6,16.9c1.1,1.2,2,2.5,2.9,3.9c0.5,1.2,0.4,2.7,0.5,4.1c-1.2,0-2.4,0.1-3.6,0
	c-3.3-0.2-6.5-0.5-9.8-0.7l-1.2,1.3c1.5,2.3,2.6,5,4.6,6.7c9.9,8.6,20.9,15.1,33.9,18.1c3.4,0.8,6.7,1.9,9.9,3.5
	c1.7,0.9,3,2.4,3.6,4.3c1.2,6.2,1.9,12.5,2.6,18.8c0.4,3.9-1.8,6-5.6,6.2c-2.5,0.2-5,0.1-7.5-0.3c-3.7-0.6-6.8-0.5-10.2,2
	c-4.6,3.4-9.6,0.8-13.2-2.5c-4.7-4.4-10-4.7-15.7-4.2c-1.6,0.3-3.2,0.8-4.8,1.3c2.2,1.8,3.3,3.4,4.8,3.8c10.6,3.2,21.4,6.1,32,9.2
	c3,0.9,6.2,1.6,8.8,3.2c1.7,1.3,2.7,3.4,2.6,5.6c-0.2,1.3-3.1,3-4.8,3.1c-12.2,0.1-24.2-2.5-35.2-7.5c-5.7-2.6-11.9-4.1-17.8-6.2
	c-2-0.7-3.9-2.3-5.9-2.5c-2-0.2-4,1-5.9,1.5c1.1,1.2,2.2,3.2,3.5,3.5c7.8,1.4,11.9,6.7,14.7,13.3c1.4,3.2,3.4,4.2,6.1,1.6
	c3-2.9,6.2-2.3,9.8-1.3c5.4,1.5,11,2.6,16.5,3.6c1.2,0.2,2.6-0.8,3.9-1.3c1.7-0.7,3.3-1.4,4.9-2.1l1.5,6.2c1.8,0.1,3.5,0.4,5.2,0.9
	c1.6,0.7,3,2.1,4.5,3.2c-1.3,0.9-2.5,1.8-3.8,2.6c-0.9,0.5-1.8,0.9-2.7,1.3c6.3,3.3,9.5,12.5,6.3,18.9c-2.3,4.6-7,6-11.5,5.3
	c-11.3-1.7-22.5-4.1-33.8-6.2c-12.4-2.4-23.7-7.6-34.4-13.9c-29.2-17.2-56.1-36.9-73.9-66.8c-6.7-11.3-13.8-22.3-17-35.2
	c-1.6-6.1-0.7-8.6,4.7-11.8c2.7-1.6,5.3-3.6,8.2-4.8C109.9,435.4,113.8,434.6,118.1,433.3z M157.7,486.9c-2.6-6.1-3.9-12-8.4-16.5
	c-1.5-1.5-1.9-4.1-3.3-5.8c-3.5-4.3-4.1-11.4-11.7-11.9c-2.9-0.2-5.7-1.5-5.6-5.4c0-0.8-1.7-1.6-2.6-2.3c-0.4,1.3-1.2,2.5-1.2,3.7
	c0,0.9,1.5,1.6,1.9,2.5c0.5,1.3,0.9,2.6,1.2,3.9c-1.4-0.3-3.5-0.2-4.1-1.1c-2.8-4.1-5.4-8.4-7.8-12.8c-1.5-2.7-2.9-4.4-6.1-2.4
	c-3.8,2.3-7.9,4.1-11.2,7c-1.5,1.3-2.6,4.9-1.8,6.7c3.3,8.6,6.6,17.3,11.2,25.3c5.6,9.8,12,19.1,19.1,27.9
	c6.7,7.9,14.2,15.1,22.2,21.6c8.5,6.9,18,12.5,26.9,19c12.1,8.8,25.7,14.7,40,18.9c11.3,3.3,22.9,5.3,34.7,6.1
	c9.1,0.7,10.6-0.5,10.2-9.3c0-0.5,0-1,0-1.5c0.3-3.4-1.1-4.7-4.6-4.7c-3.1-0.1-6.2-0.5-9.2-1.3c-1-0.4-1.8-1.2-2-2.3
	c0.2-1,0.9-1.9,1.8-2.4c1.8-0.8,3.7-1.5,5.6-2c-4.4-2.8-8-2.5-10,0.2c-1.2,1.6-3.3,3.8-4.9,3.7c-2.8-0.2-5.5-2-8.3-3.1
	c0.8-1.4,1.9-2.5,3.3-3.3c0.9-0.5,1.8-1.1,2.5-1.5l-13.5-3c-5.3,4.1-7.9,4.3-12.4,0.4c-1.5-1.2-3.1-2.3-4.8-3.2
	c-2.6-1.4-5.6-2.4-2.2-6c0.4-0.4-0.4-1.8-0.9-4.1c-1.4,1.9-2.2,2.8-2.8,3.8c-1.9,3-5.1,2.1-6,0.4c-1.4-2.8-7.1-3.9-4-8.7
	c-1.2-0.8-2.4-2-3.7-2.2c-1.1-0.2-2.3,1-3.6,1.4c-2.2,0.8-3.4,0.4-3-2.4c0.7-5.9-1.5-8.7-7.7-9.1c-3.1-0.2-3.9-1.4-3.9-4.3
	c0-3.5-0.4-6.9-0.6-10.8c-5.6,3-11.7-1.6-13.6-9.3L157.7,486.9z M187.1,440c1.7,2,3.3,4.1,4.7,6.3c0.8,1.3,0.9,3.1,1.4,4.6
	c-1.7-0.2-3.5-0.7-5.1-1.3c-1-0.5-2.4-1.9-2.4-2.8c0.3-4.7-3.4-6.4-6-8.9c-2.9-2.8-11.7-2.7-14.5,0.1c-0.6,0.8-1,1.6-1.4,2.5
	c-0.9,1.7-1.9,4.9-2.6,4.9c-2.2-0.1-4.4-1.3-6.4-2.6c-3.3-2.1-6.5-4.5-9.9-7c-3,10-1.4,19.1,4.8,24.6c5.6,5,6.5,12.5,12.2,17
	c4.1,3.2,5,9,10.3,12c3.7,2,5.4,7.5,8.7,12.6l-11.5-2.4c2.5,2.1,5.4,3.8,7.2,6.3c2.6,3.5,5.1,4.7,9,2.1c0.9-0.6,2.8-0.7,3.4-0.2
	c4.4,4.1,9.6,6.2,15.3,8.1c15.2,5.2,29.9,12.3,45.9,14.7c3.5,0.5,7,0.6,10.5,0.9l0.4-1.6c-1.2-0.8-2.2-1.9-3.5-2.3
	c-7.6-2.4-15.1-4.7-22.8-7c-0.6-0.2-1.4,0.1-2-0.1c-3.3-0.8-6.9-1.1-9.8-2.7c-5.3-2.9-9.8-7.3-15.2-9.7c-10-4.5-20.2-8.1-24.6-19.7
	c-0.8-2-3.6-3.3-5.4-5c-6.1-5.8-13.5-10.3-16-19.3c-1.1-4.2,0.6-6.3,3.4-7.4c1.2-0.5,4.1,1.3,5.4,2.7c2.9,3.4,5.6,6.9,8,10.6
	c2.9,4.2,5.6,8.5,8.3,12.7c0.8,1.2,1.2,2.8,2.3,3.6c8,5.9,16.1,11.7,24.3,17.3c1.1,0.8,3,0.5,4.5,0.8c0.1-1.3,0.3-2.6,0.4-3.9
	c0.1-1.1,0-2.2,0-3.3c1-0.2,1.5-0.5,1.9-0.4c3.4,1.3,6.7,2.8,10.1,4s6.3,2.5,7.7,6.5c1.6,4.6,5.5,5.1,9.1,1.9c1.9-2,4.9-2.7,7.5-1.6
	c3.4,1.2,6.9,1.8,10.5,1.9c1.2,0,3.5-2.5,3.5-3.9c-0.1-3.5-1.9-7-1.9-10.5c0-6.6-1.6-11-9.4-10.1c-0.1,0-0.3-0.2-0.4-0.3
	c-6.1-2.5-12.3-4.5-18.1-7.5c-8.5-4.3-16.7-9.3-22.2-17.2c-2-2.9-1.4-7.7-3.6-10.3c-4.1-5.1-4.7-9.8-1.4-15.3
	c0.4-0.6-0.5-2.8-1.3-3.3C202.6,427.3,190.2,432,187.1,440z M190.6,490.7l-1,1.5c2.7,5.2,9.7,9.7,15.6,8.7L190.6,490.7z
	 M167.2,461.6l-1.7,1.4c-0.5,4.5,2.5,7,5.7,9.4c0.7,0.4,1.6,0.4,2.3,0c0.5-0.3,0.9-1.7,0.6-2C172,467.3,169.6,464.5,167.2,461.6z"/>
<path class="st0" d="M347.6,479.3c-3.5,3.1-7.3,5.9-10.6,9.2c-7,6.9-15.4,12.3-24.5,15.8c-1.1,0.4-2.1,1-3,1.7
	c-6.1,5.8-13.6,6.9-21.4,5.9c-3.2-0.4-6.5-2.5-8.9-4.7s-1.5-5.1,1.3-6.6c3.1-1.8,6.5-3.1,11.3-5.4c-3.1,0.2-4.9,0.2-6.6,0.4
	c-5.4,0.6-8.6-0.9-9.2-4.5c-0.6-4,1.8-7.1,7.3-7.5c14.4-1.1,26.4-7.7,37.4-16.1c5.2-3.9,8.7-10.3,12.2-16c3.1-5,5-10.9,8-16
	c1-1.7,3.9-2.2,5.9-3.3c1,2,2.5,4,3,6.1c0.4,1.9-0.4,4-0.7,6l1.4,0.4l4.1-8.8c2-4.3,5.4-5.5,9.3-2.7c2.1,1.5,3.7,2.7,5.8,0
	c0.7-0.5,1.7-0.6,2.5-0.3c0.6,1.2,1.5,2.9,1.1,4c-3,8.9-2.3,19-8.3,27c-0.8,0.9-1.3,2-1.5,3.1c-0.1,1.1,0.5,2.3,0.8,3.4
	c1.1-0.5,2.6-0.7,3.3-1.5c1-1.3,1.3-3,2-4.5c3.5-7.7,7-15.4,10.8-22.9c0.7-1.4,3.2-2.6,4.8-2.5c5.6,0.3,11.1,1.4,16.7,1.8
	c1.7,0,3.3-0.7,4.5-1.9c3.4-3.3,10.1-4,14.7-1.2c3.7,2.2,4.1,5.8,2.2,11.5c-2.1,6.3-3.6,12.8-5.5,19.1c-7.9,25.8-22.5,47.2-43,64.6
	c-14.3,12.2-30.4,22.1-47.6,29.5c-12.2,5.2-24.9,9-37.6,13c-7,2.2-13.1-1.2-18.2-5.8c-3.8-3.3-3-7.9-1-11.6c1.3-2.3,4.4-4.2,7.1-5.1
	c3.3-1,7-0.4,10.4-1.1c2.6-0.5,4.9-1.7,6.9-3.4c2.8-2.7,1.5-5.4-2.3-6.5c-2.4-0.7-4.5-2.4-6.8-3.5c-2.5-1.2-5.2-2-7.5-3.5
	c-1.8-1.1-4-3-4.2-4.7c-0.2-1.3,2.2-3.4,3.9-4.4c2.1-1.2,4.7-2.4,7-2.3c8.8,0.3,16.6-3,24.5-5.7c2.5-0.9,4.7-2.5,7.1-3.5
	c7.1-3,14.2-5.9,21.3-9c3.4-1.5,5.4-3,3.4-7.9c-1.2-2.9,2-7.8,3.6-11.6c0.9-1.9,2.8-3.4,4.3-5.1L347.6,479.3z M305.8,542.6
	c4.5,5.2,4.5,6.8,0.8,8.1c-8.5,3-17.2,5.1-26.3,5.1c-3.8,0-7.8,1.9-8.3,6.3s2.4,6.9,6.5,7.9c1.9,0.5,3.8,0.8,5.7,1
	c10.1,0.7,19.1-3.7,28.3-7c16.2-5.6,31.6-13.4,45.8-23c13.1-9,25.4-19.1,34.6-32.1c5.7-7.9,10.3-16.6,14.8-25.3
	c6.2-11.8,10.3-24.7,12.1-37.9c0.3-1.8-1.6-5.4-3-5.7c-2.8-0.6-6.9-2.2-8.4,2.5c-1.1,3.3-2.6,4.5-5.9,2.4c-0.6-0.4-2.4,0.1-3,0.7
	c-2.2,2.5-4,2.3-6.2-0.1c-0.4-0.5-1.9,0-2.8,0c0.2,1,0,2.4,0.6,2.9c0.9,0.8,2.3,0.9,3.4,1.5c1.1,0.6,3,1.4,3.1,2.3
	c0.6,4.9-0.1,9.6-4.2,13c-3.7,3.1-3.8,5.9,0,8.9c3.8,3,3,7.5-1.4,9.3c-1.1,0.4-2.2,0.7-3.3,0.9c-3.6-3.6-7.3-3.9-11.9-0.7
	c0.2,0.4,0.3,0.9,0.5,1.3c2,4.5-0.7,11.1-5.4,12.4c-1.1,0.3-3.6-0.8-3.6-1.4c-0.3-3.6-1.5-9.1,0.3-10.5c4.4-3.5,5.2-8.1,6.8-12.6
	c1.5-4.1,4.4-7.1,8.5-8.2c5.2-1.3,7-4.7,3.5-8.9c-2.6-3-3-5.5-1.2-8.9c0.4-0.7-0.6-2.1-0.9-3.2c-1.1,0.4-2.7,0.5-3.3,1.3
	c-0.9,1.1-1,2.7-1.6,4c-2.3,5.3-4.3,10.8-7.1,15.9c-2.1,3.9-2.6,8.9-8.9,10.2c-2.4,0.5-4.1,6-5.2,9.5c-0.3,1,2.5,3.5-0.3,4.6
	c-1.8,0.8-4.7,1-6.3,0c-5-3-5.3-2.9-8.1,2c-2.6,4.4,1.5,5.7,3.3,8.7c-5.3,5.8-10.6,11.4-19,12.6c-2.2,0.2-4.4,0.9-6.5,1.9
	c-12.6,7-25.5,13.3-40.5,13.2c-1.5,0-3.1,1.7-4.1,2.3c4.3,2.5,7.6,4.7,11.1,6.5c1.5,0.8,3.2,1.1,4.9,0.8c5-1.3,9.9-2.9,14.9-4.4
	c0.2,0.4,0.3,0.8,0.5,1.3c0.8-1.4,1.6-2.8,2.7-4.5c2.8,1.1,6.3,1.4,8,3.3c3.6,3.8,7.5,3.3,12.8,2.5c-1-2.4-1.9-4.4-2.6-6.4
	c-1.1-3.2-2.8-6.3,1.1-9.2c4.2-3,8.1-6.4,12.1-9.7c1.6-1.4,3.1-3.2,4.9-4c1.1-0.5,3.7-0.1,4.3,0.7c2.1,3.3,4.5,3.2,8,2.6
	c2.5-0.4,5.3,1.5,8,2.4c-1.1,1.9-1.7,4.3-3.3,5.6c-1.7,1.4-4.3,1.6-6,2.2c-2.4,2.4-4.7,4.6-6.8,6.9c-5,5.6-10,11.1-18.4,11.3
	c-0.8,0-1.7,1.3-2.4,2.2c-5.8,7.5-13.6,8.7-20.9,3.4C309.8,542.7,307.9,542.9,305.8,542.6z M289.8,508l0.1,0.4
	c4.3-0.8,9-0.9,12.9-2.6c7.4-3.3,14.9-6.9,21.3-11.7c9.1-6.9,17.3-15,25.9-22.6c1.9-1.7,3.1-5.1,6.7-2.7c0.3,0.2,1.8-1.1,2.3-2
	c2.4-4.3,4.9-8.5,7-13c3.6-7.5,2.8-11.6-2.8-16.4c-3.5-3-4.5-2.5-6.6,2c-2.3,4.8-5,9.5-8,13.9c-0.9,1.3-3.5,1.4-5.3,2
	c-0.1-1.9-0.8-4-0.3-5.8c0.7-3.3,2.2-6.5,3.1-9.8c0.3-1.1-0.3-2.5-0.4-3.7c-1,0.9-2.4,1.7-3,2.8c-6.5,14.6-13,29.1-28.4,36.9
	c-9.8,4.9-19,11-30.5,11c-1.3,0-2.6,1.8-3.9,2.7c1.6,0.9,3.4,2.7,4.8,2.5c11.3-1.8,21.9-5.9,32.1-11c1.5-0.7,3.6-0.1,5.4-0.1
	c-0.5,1.6-0.6,4-1.7,4.7c-5.4,3.6-10.8,7.2-16.7,9.9c-5.5,2.5-11.7,3.6-17.5,5.6c-1.7,0.6-3,2.4-4.4,3.6c1.8,1.1,3.6,2.3,5.5,3.3
	C288.1,508.3,289.1,508,289.8,508L289.8,508z M338.5,532.5c1.6-0.6,3.7-0.9,5.3-1.9c5.1-3.6,9.9-7.8,9.2-14.7
	c-0.2-1.9-2.7-3.6-4.1-5.4c-1.2,1.7-3.4,3.4-3.4,5.1c0,3.1-1.3,3.9-3.8,4.8c-8,2.9-8.4,4.2-4.3,11.4
	C337.6,531.9,338,532.1,338.5,532.5L338.5,532.5z M381.5,479.2c1.9-2.3,3.6-4.7,5.2-7.2c0.1-0.3-1.6-2.3-2.7-2.5
	c-2.6-0.3-5.8,3.4-5.3,6C379,476.4,380.1,477.3,381.5,479.2L381.5,479.2z"/>
<path class="st0" d="M660.1,469.2c6.6,3.5,6.8,8.9,5.5,14.2c-0.6,2.4-3.2,5-5.5,6.1c-3.6,1.7-7.8,2.2-11.8,3.1c-1,0-2-0.1-3-0.3
	c3-3.9,0.8-6-1.5-8.8c-1.4-1.7-0.6-5.3-0.7-8.1c-0.1-1.5,0.6-3.7-0.1-4.4c-2.7-2.5-2-4.9-0.2-7.1c4.6-5.7,9.5-11.2,14.2-16.7
	c0.5-0.6,1.1-1.5,1.8-1.6c6.4-1.3,5.3-6,5.2-10.6c-0.1-4.3,0.7-8.6,1.1-12.9c0.6-6.6,1.3-13.2,1.8-19.8c0.2-3.1,0.7-6.9,4.3-6.6
	c2.2,0.1,5.7,3.1,6,5.2c1.6,12.3,5.7,24.4,2.2,37c-0.5,2-0.5,4.2-0.8,7.4c6.8-4.8,9,0.4,11.7,4.1c2,2.7,3.7,5.5,5.7,8.2
	c5.1,6.6,5.2,6.6,1.7,13.2c8.9,4.6,10.9,8.1,7.9,14.1c-3.2,6.5-9,8-16.8,4.1c-5.6-2.7-6-6.7-1.6-16.5c-0.7-0.6-1.4-1.2-2.3-1.6
	c-5.8-1.6-8.4-5.5-9-11.2c-0.2-1.2-1.3-2.4-2-3.5c-1.2,0.7-3.3,1.3-3.5,2.2C669.3,463.9,667,468.3,660.1,469.2z M670.7,453.4
	c1.5-2.7,4-5.4,4.2-8.2c0.8-11.3,1.1-22.7,1-34.1c0-3.2-2-6.4-3.1-9.6l-2.4,0.3C669.4,418.8,667.7,435.7,670.7,453.4L670.7,453.4z
	 M645.8,465.2l0.8,2.1c3.6-0.7,7.2-1.8,10.9-2.2c5.7-0.6,9.1-3.7,8.8-9.1c-0.1-2.9-2.7-5.6-4.5-9C656,453.7,650.9,459.5,645.8,465.2
	L645.8,465.2z M697.1,464.7c-2.7-3.6-5.3-7.3-8.1-10.9c-1.6-2.1-3.5-4-5.3-5.9c-1,2.4-2.6,4.8-2.8,7.3c-0.3,3.9-1.6,8.5,2.3,11.5
	C685.3,468.3,695.2,466.7,697.1,464.7L697.1,464.7z M656.1,485c6.9,0,6.9-0.1,7-5.7c0.1-4.8-2.6-5.8-6.7-5.6
	c-5.8,0.1-10.8,2.7-10.7,5.8S650.7,485,656.1,485L656.1,485z M694.2,475.7c-1.4,0.3-2.8,0.7-4.1,1.4c-3.3,2-3.3,5.9,0,7.5
	c2.3,1.2,4.9,1.9,7.5,2.3c1.6-0.1,3.2-0.9,4.1-2.3C704.4,479.5,701.7,475.7,694.2,475.7L694.2,475.7z"/>
<path class="st0" d="M607.2,404.2c0-2-0.2-4,0-6c0.5-5.9,2.6-8.2,8.4-8.4c9.3-0.2,18.6-0.1,27.9,0.2c5.1,0.2,8.7,2.4,9.8,8.1
	c1,5.3,3.5,10,8.2,13.2c1.1,0.8,2.3,3.1,1.9,4.1c-0.5,1.3-2.5,3-3.9,3c-4.9,0-5.9,2.7-7.1,6.9c-2.4,7.9-5.5,15.6-9.4,22.9
	c-4.2,7.8-13.7,8.9-20.4,2.1c-4.3-4.3-8.4-9.8-10.2-15.5c-3.2-9.8-4.5-20.3-6.6-30.4L607.2,404.2z M658.2,415.4
	c-2.9-5.1-6.4-9.5-7.7-14.4c-1.1-4.4-3.3-6.5-7-6.8c-9-0.8-18.1-1.3-27.2-1.2c-3.4,0-6,2.4-5.6,6.6c0.8,8,1,16.1,2.2,24
	c1.3,9,4.6,17.1,11.5,23.6c5.5,5.3,13.5,4.4,16.4-1.9c3.6-8,6.7-16.1,9.2-24.5c1-3.4,2.1-4.9,5.5-4.8
	C656.4,416,657.3,415.8,658.2,415.4L658.2,415.4z"/>
<path class="st0" d="M594.1,453.6c1.2-2.6,1.9-5.6,3.6-7.7c2.1-2.7,5.4-2.9,7.9-0.5c5.3,5.1,10.4,10.3,15.3,15.7
	c1.3,1.6,1.7,3.8,1.3,5.8c-0.4,1.1-3.2,1.7-5.1,2s-4,0-6,0.2C599.7,470.1,594.9,465.7,594.1,453.6z M617.1,465
	c-0.1-1.4,0.1-2.3-0.3-2.7c-4.4-4.6-8.8-9.3-13.4-13.7c-0.5-0.5-2.8,0-3.5,0.7c-2.5,2.5-0.6,14.5,2.4,16.5c0.5,0.4,1.2,0.6,1.8,0.7
	C608.5,466.1,612.7,465.6,617.1,465L617.1,465z"/>
<path class="st0" d="M612.5,470.9c7.7,0,11.2,3.3,11.1,10.2c-0.1,6.4-3.5,9.8-10,9.7c-7.5-0.1-14.5-5.4-14.5-10.9
	C599.1,474.6,604.7,470.9,612.5,470.9z M612.7,473.8l-0.5,1c-0.5,0-1,0-1.5,0c-3.9-0.2-7.3,1.5-7.5,5.3c-0.1,1.8,3.5,3.9,5.7,5.5
	c1.2,0.9,2.7,1.3,4.2,1c2.4-0.6,5-1.5,6.6-3.2c1-1.1,1.1-4.6,0.2-5.6C618.1,475.9,615.1,475,612.7,473.8z"/>
<path class="st0" d="M606.2,413.6l-4,5.6c-1.5-1.6-3.8-3-4.2-4.8c-1-4.5-1.6-9.1-1.7-13.7c0-1.4,1.7-2.9,2.6-4.3
	c1.5,1,4,1.7,4.5,3.1C604.6,403.8,605.2,408.2,606.2,413.6z"/>
<path class="st0" d="M169.9,195.7c-3.9-1-5.3-2.5-4.1-5.7c1.4-3.6,2.8-7.4,7.8-6.8c4.1,0.5,5.7,4.1,2.9,7.2
	C174.7,192.5,172.2,193.9,169.9,195.7z"/>
<path class="st0" d="M204.8,12.8c4.7,0.1,8.9,4.3,8.5,7.7c-0.1,1.2-3,3.1-3.1,3c-2.8-2.3-5.5-4.8-7.9-7.6
	C202.1,15.7,204.3,13.5,204.8,12.8z"/>
<path class="st0" d="M238.1,166l-3.7-4.6c1.2-0.9,2.4-2.4,3.6-2.4s2.4,1.4,3.7,2.2L238.1,166z"/>
<path class="st0" d="M162.4,296.8c-0.9,2.9-0.8,5.8-2.1,6.6c-4,2.5-4.8,6.9-7.2,10.1c-2.3,3.2-4,6.9-4.8,10.8
	c-1.7,6.5-4.8,12.6-7.1,18.9c-0.7,1.8-0.5,4-1.4,5.6c-1.1,2.1-2.9,5.4-4.4,5.5c-3.4,0.1-3.6-3.4-3.1-6.1
	c2.2-11.3,5.1-22.4,14.4-30.4c0.7-0.6,0.6-2.2,0.9-3.3c0-0.1-0.2-0.3-0.2-0.4c0.3-1.2,0.4-3.4,0.9-3.5
	C155.5,309.1,152.4,297.4,162.4,296.8z"/>
<path class="st0" d="M214.2,224.9c1.4-7,8.1-8.2,13-10.6c6.7-3.3,14.2-5,21.5-7c4.4-1.3,9.1-3.3,13.9,2c-6.3,2.6-11.9,5.2-17.7,7.3
	s-12.2,2.8-17.5,5.7c-4.5,2.4-8.8,2.1-13.3,2.5L214.2,224.9z"/>
<path class="st0" d="M225.5,243.4c-3.6,3.7-6.4,8.7-12.9,7.4c-0.8,0-1.6,0.3-2.1,1c-2.3,3.8-5.3,6.5-10,6.9
	c-0.7,0.1-1.1,1.7-1.9,2.4c-5.1,5.4-9.6,11.7-17.6,12.9l-1.7-1c1.1-2.4,1.6-5.5,3.5-7c4.1-3.3,8.9-5.7,13.4-8.5
	c1.3-0.8,3-1.4,3.8-2.6c1.9-2.7,3.4-5.5,7.6-4.9c0.8,0.1,2.1-1.7,2.9-2.8C214.1,241.8,220.9,240.1,225.5,243.4z"/>
<path class="st0" d="M131.3,314.7c-1.9,6.4-3.4,11.8-5.2,17.1c-0.7,1.1-1.9,1.7-3.2,1.6c-1-0.2-2.7-1.8-2.6-2.6
	c0.3-2.4,0.7-5.2,2.3-6.8c2.1-2.2,4.4-3.7,2.5-7.1c-0.2-0.3-0.3-0.7-0.2-0.9c0.9-1.6,1.9-3.2,2.8-4.9L131.3,314.7z"/>
<path class="st0" d="M235,274.8c-0.3,4.3-2.6,6.6-6.7,8.1c-2.7,1-5,3.1-7.6,4.6c-1.6,0.7-3.2,1.3-4.9,1.7c-1.1-4.1-0.3-6.3,3.5-7.3
	c2-0.7,3.8-2,5.1-3.7c3-3.5,6.3-5,10.8-3.3L235,274.8z"/>
<path class="st0" d="M214,224.8c-1,1.6-2.2,3.2-3.5,4.6c-2.1,2.2-4.5,4.2-7.1,5.8c-1.8,1-4.2,0.7-6.4,1c0.4-1.9,0.2-5,1.2-5.4
	c5.1-2.4,9.5-7.2,16-5.7L214,224.8z"/>
<path class="st0" d="M137.3,376.1c-2.1,2.9-3.9,7.3-5.4,7.2c-4.5-0.4-4.2-5-3.6-8.1c0.5-2.7,2.5-5.1,3.9-7.7L137.3,376.1z"/>
<path class="st0" d="M162.8,264.2c0.9-7,5.8-11.8,12.8-12.9C175.3,257.8,168.7,264.8,162.8,264.2z"/>
<path class="st0" d="M177.7,282.8c-3.6,3-7.3,5.9-11,8.8c-0.1,0.1-2.4-1.8-2.2-2.2c1.7-4.1,3.2-8.5,8-9.9c1.3-0.4,3.1,0.6,4.6,0.9
	L177.7,282.8z"/>
<path class="st0" d="M162.8,351.6c1.8-4.4,3-8,4.7-11.3c0.6-1.1,2.9-2.2,3.8-1.9c1.1,0.4,2.2,2.4,2.3,3.8
	C174.1,346.4,169.1,351.2,162.8,351.6z"/>
<path class="st0" d="M180.2,261.4c-0.4-1-0.6-2.2-0.6-3.3c0.7-4.8,4.8-6.3,8.4-7.9c1.8-0.8,4.5-0.5,3,3.3
	C189.4,257.6,184.4,262,180.2,261.4z"/>
<path class="st0" d="M144.5,286.6c1.9-9.1,4.4-11.7,10.8-11.1C155.7,282.1,151.1,287,144.5,286.6z"/>
<path class="st0" d="M195.6,282.6c0.1,3.1-5.8,9.9-8.4,9.8c-1.1-0.1-3-1.9-3-3c-0.1-3.3,6.1-8.6,9.3-8.2
	C194.3,281.3,195.1,282.3,195.6,282.6z"/>
<path class="st0" d="M156.6,373.8c0.3,5.3-3.5,5.2-6.2,5.3c-2.1,0.1-5.6-0.9-4-3.8c1.4-2.6,4.7-4.1,7.2-6.1L156.6,373.8z"/>
<path class="st0" d="M189.1,307.3c2.4,6,1.9,10.1-3.5,11.9c-1.2,0.2-2.4-0.1-3.3-0.9c-0.6-0.5-1.2-2.4-0.8-2.9
	C183.9,312.6,186.6,310,189.1,307.3z"/>
<path class="st0" d="M167.2,315.3c2.1,2.5,4.3,4.6,4.1,4.9c-1.3,1.8-3,3.3-5,4.3c-0.6,0.2-3.4-2.5-3.4-3.8
	C163,319.1,165.1,317.7,167.2,315.3z"/>
<path class="st0" d="M187.5,238.7l4.3,3.4l-5.1,4.5c-0.8-1.1-2.4-2.4-2.3-3.4C184.5,241.9,186.1,240.7,187.5,238.7z"/>
<path class="st0" d="M196.6,245.1l5.4-4.2C202.7,246.7,202.7,246.7,196.6,245.1z"/>
<path class="st0" d="M212.7,239.4l-4.8,1.6c-0.3-0.9-0.6-1.7-0.8-2.6c1.5-0.6,3.1-1.2,4.7-1.7L212.7,239.4z"/>
<path class="st0" d="M430.7,232.8c5-1.9,9.3-3.3,14.3,2.1c2.8,3.1,8.6,3.7,13.2,5.1c9,2.7,18,5.4,27.1,7.7c8,2,16.2,3.5,24.2,5.4
	c5.2,1.2,10.3,2.7,15.4,4c5.7,1.5,11.3,2.8,16.9,4.5c1.5,0.5,2.6,2.3,3.9,3.4c-1.5,1.2-3.1,3.4-4.7,3.4c-4.3,0.2-8.6-0.2-12.7-1.2
	c-9.9-2.6-19.6-5.6-29.4-8.5c-7.6-2.3-15.1-4.8-22.8-6.9c-5-1.3-10.3-1.5-14.1-5.6c-0.4-0.4-0.8-0.5-1.3-0.5c-8,2.8-11.7-3.9-17-7.4
	c-1.8-1.2-4.9-0.2-7.2-0.8c-2.3-0.7-4.5-1.6-6.7-2.7L430.7,232.8z"/>
<path class="st0" d="M392,687.7c11.8-0.6,23.6-1.4,35.4-1.6c18.5-0.3,37,0.1,55.4-0.1c25.4-0.2,50.8-0.8,76.2-0.9
	c13.9,0,27.9,0.4,41.8,1c6.4,0.3,12.8,1.5,19.3,2.3v1.4c-5.2,0.6-10.4,1.7-15.6,1.9c-22.9,0.5-45.8,1.1-68.8,1
	c-39.1-0.1-78.1-0.5-117.2-1c-8.8-0.1-17.6-1.2-26.4-1.9L392,687.7z"/>
<path class="st0" d="M508.2,413.4l-4.3,4.3c-1.1-1.4-3.1-2.8-3-4.1c0.1-1.6,2-3,3-4.5L508.2,413.4z"/>
<path class="st0" d="M238.6,387c3.1-14.1,3.1-14.2,10-13.5C249.9,381.4,242.1,382.3,238.6,387z"/>
<path class="st0" d="M248.4,391.7c-0.7-4.2,0.3-7,4.2-7.4c0.6-0.1,2,2.6,2.1,4C254.8,393.2,251.2,391.3,248.4,391.7z"/>
<path class="st0" d="M363,383.9c0.1-3.2,0.7-7.4-6.8-5.5c2-4,3-7.2,4.9-9.8c5.7-8,6-8,11,0.3c1.9,3.4,3.4,7,4.5,10.8
	c0.7,2.2-4.6,5.5-7.8,5C367,384.4,365.2,384.2,363,383.9z"/>
<path class="st0" d="M378.3,369.9c-4.6-1.8,2.5-5.5,0.5-8.7l-5.5-1.6c2.9-4.4,5.3-8.5,8.1-12.1c0.7-0.9,3.1-0.5,4.7-0.7
	c0,1.9,0.3,4-0.2,5.8c-0.4,1.5-1.7,2.7-2.6,4.1c1.6,0.1,3.5-0.2,4.7,0.5c2.4,1.5,4.5,3.6,7.5,6.1L378.3,369.9z"/>
<path class="st0" d="M365.6,343.8c0,0-0.5,2.4-1.4,2.5c-1.7,0.2-4.3-0.2-5.2-1.4c-3.1-4-5.7-8.3-8-12.8c-0.7-1.3-0.1-4.5,1.1-5.3
	c2.4-1.7,5.2-2.8,8.1-3.3c0.5-0.1,2,3.6,2.4,5.6C363.8,333.5,364.5,337.9,365.6,343.8z M357.4,337l1.5-0.6c0-2.1-0.1-4.1-0.5-6.2
	c-0.2-0.8-1.8-1.3-2.8-1.9c-0.4,0.9-1.4,2.1-1.1,2.8C355.4,333.2,356.3,335.1,357.4,337z"/>
<path class="st0" d="M697.4,71.8c-3.2,0.2-6.3,0.1-9.5-0.1c-1.4-0.2-3.3-1.4-3.6-2.6s0.4-3.3,1.4-4.3c4.6-4.6,9.4-8.9,14.2-13.3
	c3.8-3.4,6.6-3,9.5,1.2c1.1,1.5,1.9,3.1,2.6,4.8c3.3,9.6,0,14.3-10.1,14.3L697.4,71.8L697.4,71.8z M709.4,62.5
	c-0.3-1.9-0.8-3.8-1.4-5.6c-1.5-3.8-4.9-4.1-7.7-1.1s-6,5.3-8.9,8.1c-0.9,1.1-1.7,2.2-2.4,3.5c1.4,0.6,2.8,1.6,4.2,1.7
	c3.3,0.3,6.7,0.3,10,0C706.8,68.6,710.3,67.6,709.4,62.5L709.4,62.5z"/>
<path class="st0" d="M663.1,70.9c-4.2,0.4-8.8,0-11.1-5.3c-2.1-4.7-0.9-9.2,2-13.1c1.8-2.5,4.3-3.4,6.8-1.2c3.7,3,7.2,6.4,10.4,10
	c1.5,1.8,2.5,5.1,1.8,7c-0.5,1.4-4,1.8-6.3,2.5C665.8,71.1,664.8,70.9,663.1,70.9z M668.3,67.3l1.5-2.8l-13-9.9
	c-1.5,3.3-2.7,8.1,0.7,11C659.9,67.6,664.7,66.8,668.3,67.3L668.3,67.3z"/>
<path class="st0" d="M384.6,289.9c-5,2.8-7.2,1-8.3-2.3c-0.2-0.6,1.1-1.7,1.7-2.5L384.6,289.9z"/>
<path class="st0" d="M149.6,491.7c-6.5-1.6-10.8-6.1-11.3-11.8c-0.1-0.8,0.7-2.4,1.1-2.4c2.4,0,5.2-0.4,7,0.8
	C151.2,481.5,149.8,486.7,149.6,491.7z"/>
<path class="st0" d="M256.4,499c-6.6-2.1-12.2-3.5-17.5-5.6c-1.4-0.6-2.1-3.5-2.6-5.4c-0.1-0.6,1.8-2.5,2.1-2.4
	c3.6,1.6,7.5,3,10.6,5.5c1.9,1.5,2.6,4,5.9,2.3c0.7-0.4,2.6,1.6,3.9,2.5C257.9,497,257,498.2,256.4,499z"/>
<path class="st0" d="M179,461c4.2,0.7,7.7,1.4,7.6,5.8c0,1-2.5,2.9-3.3,2.7C179.2,468.2,179.7,464.6,179,461z"/>
<path class="st0" d="M227.6,484c-5,1.8-6,1.3-6.2-3.4l6.6,1.7L227.6,484z"/>
<path class="st0" d="M324.5,520.9c0,7-1.5,8.6-6.6,7.7c-1.1-0.2-3-1.3-3-1.9c0-1.2,1.1-2.4,1.9-3.5c0.4-0.3,0.8-0.6,1.3-0.6
	C320.1,522,322.1,521.6,324.5,520.9z"/>
<path class="st0" d="M386.3,492c-0.5,2.1-1,4.2-1.8,6.2c-1-0.1-2-0.3-3-0.6l1.4-6.6L386.3,492z"/>
<path class="st0" d="M325.1,476.9c1.2-1.9,2-4.3,3.6-5.6c1.4-1.2,3.8-1.4,5.7-2c-0.4,2.5,0.1,5.9-1.4,7.3s-4.9,1.3-7.4,1.8
	L325.1,476.9z"/>
</svg>
