<svg id="Layer_1" data-name="Layer 1" xmlns="http://www.w3.org/2000/svg" viewBox="0 0 132.59 162.9"><defs><style>.cls-1{fill:#fff;}</style></defs><title>footer</title><path class="cls-1" d="M1159.72,426.12c0,11.63.22,23.25,0,34.87-.37,15.54-8.57,26.79-20.83,35.31-12.71,8.83-26.86,14.89-41.34,20.11a12.06,12.06,0,0,1-8.21,0c-13.11-5.85-26.17-11.83-38.92-18.42-9.39-4.85-17.25-11.67-21.52-21.67a18,18,0,0,1-1.47-6.82c-.1-27,0-53.95-.1-80.92,0-3.92,1.42-6.81,5.07-8.38,11.32-4.89,22.71-9.64,34-14.65,5.46-2.43,11.17-4.46,15.45-9.07a7.9,7.9,0,0,1,5-2,81.87,81.87,0,0,1,13.47,0c2,.22,4,1.94,5.89,3.06.38.22.47,1,.85,1.16,5.45,3,10.78,6.2,16.43,8.74,10.23,4.61,20.69,8.71,31,13.23,3.74,1.65,5.45,4.88,5.43,9.07-.06,12.12,0,24.24,0,36.36Zm-66.48-1.54c4.76-.51,8.76-.74,12.68-1.41,6.74-1.16,12.65-4,16.56-9.89,7.51-11.37,6-29.45-3.13-39.5a34.72,34.72,0,0,0-41.22-7.23c-14.05,7.33-19.84,20.91-16.23,37.77,2,9.67,7.84,15.78,17.31,18.11,4.78,1.2,9.8,1.53,14,2.15Zm-33.89-50.26c-7.23,3.54-14.44,7.11-21.7,10.6-2.94,1.42-4.07,3.57-4,6.87.22,10.49.23,21,.22,31.46,0,14.11-.18,28.21-.12,42.32,0,6.72,3.52,11.81,8.38,16.2a85.82,85.82,0,0,0,.43-13.12c-.13-2.87.74-4.07,3.76-3.9,3.73.2,7.49-.08,11.23.07,2.85.11,2.8-1.59,2.85-3.62s-.48-3.23-2.91-3.15c-4.36.14-8.74.14-13.11,0-1.1,0-3.09-1-3.09-1.49a13.11,13.11,0,0,1,1.26-5.33c1.73-3.69,3.81-7.23,5.65-10.87.59-1.18.51-3,1.39-3.65,1.53-1.15,3.59-1.61,5.4-2.41,5.32-2.37,10.64-4.77,15.73-7.05C1053,409.72,1050.52,398.48,1059.35,374.32Zm57,53c5,2.09,10.25,4.26,15.48,6.41a13.05,13.05,0,0,0,2.37.83c3.06.61,4.44,2.24,5.19,5.47.85,3.67,2.3,7.76,4.86,10.28,2.25,2.22,1.81,4.15,1.71,6.28-.27,5.39-.92,10.76-1.28,16.14-.17,2.51,0,5,0,7.55,5.38-6.12,9-12.42,8.88-20.66-.33-23.07-.11-46.16-.35-69.24,0-1.64-1.71-4-3.26-4.77-6-3.12-12.16-5.78-18.29-8.56-1.31-.5-2.65-.94-4-1.31,8.79,18.22,5.77,38.7-11.29,51.64Z" transform="translate(-1027.33 -354.23)"/><path d="M1093.24,424.58c-4.23-.62-9.25-1-14.06-2.13-9.47-2.33-15.28-8.44-17.28-18.13-3.58-16.88,2.21-30.46,16.26-37.79a34.72,34.72,0,0,1,41.22,7.23c9.16,10.05,10.64,28.13,3.13,39.5-3.91,5.92-9.82,8.73-16.56,9.89C1102,423.84,1098,424.07,1093.24,424.58Z" transform="translate(-1027.33 -354.23)"/><path d="M1059.35,374.32c-8.83,24.12-6.39,35.36,11.37,52.89-5.09,2.28-10.41,4.68-15.73,7.05-1.81.8-3.87,1.26-5.4,2.41-.88.66-.8,2.47-1.39,3.65-1.84,3.64-3.92,7.18-5.65,10.87a13.11,13.11,0,0,0-1.26,5.33c0,.51,2,1.45,3.09,1.49,4.37.18,8.75.18,13.11,0,2.43-.08,3,1,2.91,3.15s0,3.73-2.85,3.62c-3.74-.15-7.5.13-11.23-.07-3-.17-3.89,1-3.76,3.9a85.82,85.82,0,0,1-.43,13.12c-4.86-4.39-8.35-9.48-8.38-16.2-.06-14.11.11-28.21.12-42.32,0-10.49,0-21-.22-31.46-.07-3.3,1.06-5.45,4-6.87C1044.9,381.47,1052.12,377.9,1059.35,374.32Z" transform="translate(-1027.33 -354.23)"/><path d="M1116.37,427.38c17.06-12.94,20.08-33.42,11.24-51.58,1.35.37,2.69.81,4,1.31,6.13,2.78,12.34,5.44,18.29,8.56,1.55.81,3.24,3.13,3.26,4.77.24,23.08,0,46.17.35,69.24.11,8.24-3.5,14.54-8.88,20.66,0-2.51-.14-5,0-7.55.36-5.38,1-10.75,1.28-16.14.1-2.13.54-4.06-1.71-6.28-2.56-2.52-4-6.61-4.86-10.28-.75-3.23-2.13-4.86-5.19-5.47a13.05,13.05,0,0,1-2.37-.83Z" transform="translate(-1027.33 -354.23)"/></svg>