<svg id="Layer_1" data-name="Layer 1" xmlns="http://www.w3.org/2000/svg" viewBox="0 0 674 577"><title>mapbackground</title><path d="M176.67,240.09v9.57c0,3.63,1.61,5.17,3.77,5.17,2.4,0,3.94-1.59,3.94-5.17v-9.57h2.11v9.43c0,5-2.62,7-6.12,7-3.32,0-5.81-1.9-5.81-6.91v-9.53Z"/><path d="M189.61,254.1a5.47,5.47,0,0,0,2.78.84c1.54,0,2.26-.76,2.26-1.72s-.6-1.56-2.16-2.14c-2.09-.74-3.08-1.9-3.08-3.29,0-1.87,1.52-3.41,4-3.41a5.85,5.85,0,0,1,2.86.72l-.53,1.54a4.53,4.53,0,0,0-2.38-.67c-1.24,0-1.94.72-1.94,1.58s.7,1.39,2.21,2c2,.77,3.05,1.78,3.05,3.5,0,2-1.59,3.49-4.35,3.49a6.6,6.6,0,0,1-3.26-.8Z"/><path d="M200.57,250.84a3.72,3.72,0,0,0,4,4,7.54,7.54,0,0,0,3.21-.6l.36,1.52a9.46,9.46,0,0,1-3.86.72c-3.58,0-5.71-2.36-5.71-5.86s2.06-6.27,5.45-6.27c3.79,0,4.8,3.34,4.8,5.48a6.7,6.7,0,0,1-.08,1Zm6.2-1.51c0-1.35-.56-3.43-2.93-3.43-2.14,0-3.07,2-3.24,3.43Z"/><path d="M216.41,256.27c.05-.8.1-2,.1-3v-14h2.09v7.3h.05a4.31,4.31,0,0,1,4-2.14c2.88,0,4.92,2.4,4.89,5.93,0,4.15-2.61,6.22-5.21,6.22a4.13,4.13,0,0,1-3.88-2.18h-.08l-.09,1.92Zm2.19-4.66a4.77,4.77,0,0,0,.09.77,3.27,3.27,0,0,0,3.17,2.47c2.21,0,3.53-1.8,3.53-4.47,0-2.32-1.2-4.32-3.46-4.32a3.36,3.36,0,0,0-3.21,2.6,4,4,0,0,0-.12.86Z"/><path d="M239.89,253.1c0,1.2,0,2.25.09,3.17h-1.87l-.12-1.9h-.05a4.35,4.35,0,0,1-3.84,2.16c-1.82,0-4-1-4-5.09v-6.79h2.12v6.43c0,2.21.67,3.7,2.59,3.7a3.06,3.06,0,0,0,2.78-1.92,3.14,3.14,0,0,0,.19-1.08v-7.13h2.12Z"/><path d="M245.93,241.31v3.34h3v1.61h-3v6.26c0,1.44.41,2.26,1.59,2.26a4.28,4.28,0,0,0,1.22-.15l.1,1.59a5.14,5.14,0,0,1-1.87.29,2.93,2.93,0,0,1-2.28-.89,4.33,4.33,0,0,1-.82-3v-6.33h-1.8v-1.61h1.8v-2.79Z"/><path d="M253.88,241.31v3.34h3v1.61h-3v6.26c0,1.44.41,2.26,1.58,2.26a4.42,4.42,0,0,0,1.23-.15l.09,1.59a5.1,5.1,0,0,1-1.87.29,3,3,0,0,1-2.28-.89,4.33,4.33,0,0,1-.82-3v-6.33H250v-1.61h1.8v-2.79Z"/><path d="M269.65,250.36c0,4.3-3,6.17-5.79,6.17-3.14,0-5.57-2.3-5.57-6,0-3.89,2.55-6.17,5.76-6.17S269.65,246.81,269.65,250.36Zm-9.22.12c0,2.54,1.46,4.46,3.53,4.46s3.53-1.89,3.53-4.51c0-2-1-4.46-3.48-4.46S260.43,248.27,260.43,250.48Z"/><path d="M272.31,247.79c0-1.2,0-2.18-.1-3.14h1.87l.13,1.92h0a4.27,4.27,0,0,1,3.84-2.19c1.61,0,4.11,1,4.11,5v6.94h-2.11v-6.7c0-1.87-.7-3.43-2.69-3.43a3,3,0,0,0-2.84,2.16,3.17,3.17,0,0,0-.14,1v7h-2.11Z"/><path d="M285.34,254.1a5.55,5.55,0,0,0,2.79.84c1.53,0,2.25-.76,2.25-1.72s-.6-1.56-2.16-2.14c-2.09-.74-3.07-1.9-3.07-3.29,0-1.87,1.51-3.41,4-3.41a5.81,5.81,0,0,1,2.85.72l-.52,1.54a4.53,4.53,0,0,0-2.38-.67c-1.25,0-1.94.72-1.94,1.58s.69,1.39,2.2,2c2,.77,3.05,1.78,3.05,3.5,0,2-1.58,3.49-4.34,3.49a6.67,6.67,0,0,1-3.27-.8Z"/><path d="M306.65,256.27l-.16-1.47h-.08a4.31,4.31,0,0,1-3.55,1.73,3.31,3.31,0,0,1-3.55-3.34c0-2.81,2.5-4.34,7-4.32v-.24a2.39,2.39,0,0,0-2.64-2.69,5.74,5.74,0,0,0-3,.87l-.48-1.39a7.16,7.16,0,0,1,3.82-1c3.55,0,4.41,2.43,4.41,4.76v4.34a16.91,16.91,0,0,0,.19,2.79Zm-.31-5.93c-2.3-.05-4.92.36-4.92,2.61a1.87,1.87,0,0,0,2,2,2.88,2.88,0,0,0,2.81-1.95,2.2,2.2,0,0,0,.12-.67Z"/><path d="M311.69,256.27c.05-.8.1-2,.1-3v-14h2.09v7.3h0a4.33,4.33,0,0,1,4-2.14c2.89,0,4.93,2.4,4.9,5.93,0,4.15-2.61,6.22-5.21,6.22a4.15,4.15,0,0,1-3.89-2.18h-.07l-.09,1.92Zm2.19-4.66a3.86,3.86,0,0,0,.09.77,3.26,3.26,0,0,0,3.17,2.47c2.21,0,3.53-1.8,3.53-4.47,0-2.32-1.2-4.32-3.46-4.32a3.36,3.36,0,0,0-3.21,2.6,4,4,0,0,0-.12.86Z"/><path d="M336,250.36c0,4.3-3,6.17-5.79,6.17-3.14,0-5.57-2.3-5.57-6,0-3.89,2.55-6.17,5.76-6.17S336,246.81,336,250.36Zm-9.22.12c0,2.54,1.46,4.46,3.53,4.46s3.53-1.89,3.53-4.51c0-2-1-4.46-3.48-4.46S326.74,248.27,326.74,250.48Z"/><path d="M339.27,244.65l2.28,6.53a27.77,27.77,0,0,1,.93,3h.08c.26-1,.6-1.92,1-3l2.26-6.53H348l-4.56,11.62h-2L337,244.65Z"/><path d="M350.93,250.84a3.72,3.72,0,0,0,4,4,7.54,7.54,0,0,0,3.21-.6l.36,1.52a9.46,9.46,0,0,1-3.86.72c-3.58,0-5.71-2.36-5.71-5.86s2.06-6.27,5.44-6.27c3.8,0,4.81,3.34,4.81,5.48a6.7,6.7,0,0,1-.08,1Zm6.2-1.51c0-1.35-.56-3.43-2.93-3.43-2.14,0-3.08,2-3.24,3.43Z"/><path d="M369.41,241.31v3.34h3v1.61h-3v6.26c0,1.44.41,2.26,1.59,2.26a4.28,4.28,0,0,0,1.22-.15l.1,1.59a5.16,5.16,0,0,1-1.88.29,3,3,0,0,1-2.28-.89,4.33,4.33,0,0,1-.81-3v-6.33h-1.8v-1.61h1.8v-2.79Z"/><path d="M385.18,250.36c0,4.3-3,6.17-5.78,6.17-3.15,0-5.57-2.3-5.57-6,0-3.89,2.54-6.17,5.76-6.17S385.18,246.81,385.18,250.36Zm-9.22.12c0,2.54,1.47,4.46,3.53,4.46s3.53-1.89,3.53-4.51c0-2-1-4.46-3.48-4.46S376,248.27,376,250.48Z"/><path d="M392.64,254.1a5.55,5.55,0,0,0,2.79.84c1.53,0,2.25-.76,2.25-1.72s-.6-1.56-2.16-2.14c-2.09-.74-3.07-1.9-3.07-3.29,0-1.87,1.51-3.41,4-3.41a5.85,5.85,0,0,1,2.86.72l-.53,1.54a4.53,4.53,0,0,0-2.38-.67c-1.25,0-1.94.72-1.94,1.58s.69,1.39,2.2,2c2,.77,3.05,1.78,3.05,3.5,0,2-1.58,3.49-4.34,3.49a6.6,6.6,0,0,1-3.26-.8Z"/><path d="M403.61,250.84a3.72,3.72,0,0,0,4,4,7.56,7.56,0,0,0,3.22-.6l.36,1.52a9.46,9.46,0,0,1-3.86.72c-3.58,0-5.72-2.36-5.72-5.86s2.07-6.27,5.45-6.27c3.8,0,4.8,3.34,4.8,5.48a7,7,0,0,1-.07,1Zm6.19-1.51c0-1.35-.55-3.43-2.92-3.43-2.14,0-3.08,2-3.25,3.43Z"/><path d="M414.46,239.22h2.11v17h-2.11Z"/><path d="M421.3,250.84a3.72,3.72,0,0,0,4,4,7.6,7.6,0,0,0,3.22-.6l.36,1.52a9.5,9.5,0,0,1-3.86.72c-3.58,0-5.72-2.36-5.72-5.86s2.07-6.27,5.45-6.27c3.79,0,4.8,3.34,4.8,5.48a9,9,0,0,1-.07,1Zm6.19-1.51c0-1.35-.55-3.43-2.93-3.43-2.13,0-3.07,2-3.24,3.43Z"/><path d="M440.43,255.83a7.78,7.78,0,0,1-3.34.68c-3.5,0-5.78-2.38-5.78-5.93a5.9,5.9,0,0,1,6.24-6.17,7,7,0,0,1,2.92.6l-.48,1.63a4.84,4.84,0,0,0-2.44-.55c-2.67,0-4.11,2-4.11,4.39,0,2.69,1.73,4.35,4,4.35a6.09,6.09,0,0,0,2.6-.58Z"/><path d="M445.75,241.31v3.34h3v1.61h-3v6.26c0,1.44.41,2.26,1.59,2.26a4.28,4.28,0,0,0,1.22-.15l.1,1.59a5.14,5.14,0,0,1-1.87.29,2.93,2.93,0,0,1-2.28-.89,4.33,4.33,0,0,1-.82-3v-6.33h-1.8v-1.61h1.8v-2.79Z"/><path d="M456.46,256.27v-10h-1.63v-1.61h1.63v-.51a5.24,5.24,0,0,1,1.63-4,5.51,5.51,0,0,1,3.72-1.18,7.46,7.46,0,0,1,3.48.77v16.54H463.2V240.9a3.77,3.77,0,0,0-1.73-.31c-2.2,0-2.92,1.61-2.92,3.48v.58h2.71v1.61h-2.71v10Z"/><path d="M479.31,250.36c0,4.3-3,6.17-5.79,6.17-3.14,0-5.57-2.3-5.57-6,0-3.89,2.55-6.17,5.76-6.17S479.31,246.81,479.31,250.36Zm-9.22.12c0,2.54,1.46,4.46,3.53,4.46s3.53-1.89,3.53-4.51c0-2-1-4.46-3.48-4.46S470.09,248.27,470.09,250.48Z"/><path d="M492.48,250.36c0,4.3-3,6.17-5.78,6.17-3.15,0-5.57-2.3-5.57-6,0-3.89,2.54-6.17,5.76-6.17S492.48,246.81,492.48,250.36Zm-9.22.12c0,2.54,1.47,4.46,3.53,4.46s3.53-1.89,3.53-4.51c0-2-1-4.46-3.48-4.46S483.26,248.27,483.26,250.48Z"/><path d="M495.14,248.27c0-1.37,0-2.54-.09-3.62h1.85l.07,2.28h.09a3.5,3.5,0,0,1,3.22-2.55,2.18,2.18,0,0,1,.6.08v2a3,3,0,0,0-.72-.07,3,3,0,0,0-2.83,2.71,5.69,5.69,0,0,0-.1,1v6.2h-2.09Z"/></svg>